<?xml version="1.0" encoding="utf-8"?>
<!-- Generator: Adobe Illustrator 24.2.0, SVG Export Plug-In . SVG Version: 6.00 Build 0)  -->
<svg version="1.1" id="Layer_1" xmlns="http://www.w3.org/2000/svg" xmlns:xlink="http://www.w3.org/1999/xlink" x="0px" y="0px"
	 viewBox="0 0 450 250" style="enable-background:new 0 0 450 250;" xml:space="preserve">
<style type="text/css">
	.st0{fill:#E0E0E0;}
	.st1{fill:#FA7268;}
</style>
<g>
	<g id="Group_1565" transform="translate(1401.34 3545)">
		<g id="Group_1558" transform="translate(0 0)">
			<g id="Group_1554">
				<g id="Group_1551">
					<g id="Path_606_2_">
						<path class="st0" d="M-1255.6-3401.3h-21.5c-0.6,0-1-0.4-1-1v-35.3c0-0.6,0.4-1,1-1h20.7c0.1-0.5,0.3-1.1,0.4-1.7v-0.1
							c0.1-0.2,0.1-0.4,0.1-0.6c0-0.3,0.1-0.6,0.2-0.8c0-0.1,0-0.1,0.1-0.2c0-0.1,0-0.1,0-0.2c0.1-0.4,0.2-0.8,0.4-1.3
							c0-0.1,0.1-0.3,0.1-0.4l-17.9-10.4c-0.5-0.3-0.6-0.9-0.4-1.4l17.7-30.5c0.1-0.2,0.4-0.4,0.6-0.5c0.3-0.1,0.5,0,0.8,0.1
							l17.9,10.4l0.1-0.1c0.3-0.3,0.5-0.5,0.8-0.9l0.1-0.1l2.2-2.2l-10.5-17.8c-0.1-0.2-0.2-0.5-0.1-0.8s0.2-0.5,0.5-0.6l30.4-17.9
							c0.5-0.3,1.1-0.1,1.4,0.4l10.5,17.8c1-0.3,2-0.6,2.8-0.8l2.8-0.7v-20.6c0-0.6,0.4-1,1-1h17.6c0.6,0,1,0.4,1,1s-0.4,1-1,1
							h-16.6v20.4c0,0.5-0.3,0.9-0.8,1l-3.6,0.9c-1.4,0.3-2.4,0.6-3.4,1c-0.4,0.1-0.9,0-1.2-0.4l-10.4-17.6l-28.7,16.9l10.4,17.6
							c0.2,0.4,0.2,0.9-0.2,1.2l-2.7,2.7c-0.3,0.4-0.6,0.7-0.9,1l-0.6,0.6c-0.3,0.3-0.8,0.4-1.2,0.2l-17.7-10.3l-16.7,28.8
							l17.7,10.3c0.4,0.2,0.6,0.7,0.5,1.1c-0.1,0.4-0.2,0.8-0.4,1.3c-0.1,0.4-0.2,0.7-0.3,1.1c0,0.2-0.1,0.5-0.1,0.6s0,0.1-0.1,0.2
							c0,0.4-0.1,0.8-0.2,1.1c-0.2,0.9-0.4,1.7-0.6,2.5c-0.1,0.4-0.5,0.8-1,0.8h-20.5v33.3h20.5c0.6,0,1,0.4,1,1
							S-1255-3401.3-1255.6-3401.3z"/>
					</g>
					<g id="Path_606_3_">
						<path class="st0" d="M-1176.7-3318.5h-17.6c-0.6,0-1-0.4-1-1v-20.7c-0.6-0.1-1.1-0.3-1.7-0.4h-0.1c-0.2-0.1-0.4-0.1-0.6-0.1
							c-0.3,0-0.6-0.1-0.8-0.2c-0.1,0-0.1,0-0.2-0.1c-0.1,0-0.1,0-0.2,0c-0.4-0.1-0.8-0.2-1.3-0.4c-0.1,0-0.3-0.1-0.4-0.1
							l-10.4,17.8c-0.3,0.5-0.9,0.6-1.4,0.4l-30.5-17.7c-0.2-0.1-0.4-0.4-0.5-0.6c-0.1-0.3,0-0.5,0.1-0.8l10.4-17.9l-2.2-2.2
							c-0.4-0.4-0.4-1,0-1.4s1-0.4,1.4,0l2.7,2.7c0.3,0.3,0.4,0.8,0.2,1.2l-10.3,17.7l28.8,16.7l10.3-17.6c0.2-0.4,0.7-0.6,1.1-0.5
							s0.8,0.2,1.3,0.4c0.4,0.1,0.7,0.2,1.1,0.3c0.2,0,0.5,0.1,0.6,0.1s0.1,0,0.2,0.1l0,0c0.4,0,0.8,0.1,1.2,0.2
							c0.8,0.2,1.6,0.4,2.3,0.6c0.4,0.1,0.8,0.5,0.8,1v20.5h16.6c0.6,0,1,0.4,1,1S-1176.1-3318.5-1176.7-3318.5z"/>
					</g>
					<g id="Path_607_2_">
						<path class="st0" d="M-1176.7-3359.5L-1176.7-3359.5c-13-0.1-25.4-4.3-35.7-12.1c-0.4-0.3-0.5-1-0.2-1.4s1-0.5,1.4-0.2
							c10,7.5,22,11.6,34.5,11.7c0.6,0,1,0.5,1,1C-1175.7-3359.9-1176.1-3359.5-1176.7-3359.5z"/>
					</g>
					<g id="Path_607_1_">
						<path class="st0" d="M-1235.5-3415.3c-0.5,0-1-0.4-1-0.9c-0.1-1-0.1-2.1-0.1-3.2c-0.3-33.3,26.6-60.6,59.9-60.9l0,0
							c0.5,0,1,0.4,1,1s-0.4,1-1,1c-32.2,0.3-58.2,26.7-57.9,58.9c0,1,0,2,0.1,3.1C-1234.5-3415.8-1234.9-3415.3-1235.5-3415.3
							C-1235.4-3415.3-1235.5-3415.3-1235.5-3415.3z"/>
					</g>
				</g>
				<g id="Group_1553" transform="translate(100.742 0.001)">
					<g id="Group_1550">
						<g id="Path_606-2">
							<path class="st0" d="M-1259.4-3318.5h-17.6c-0.6,0-1-0.4-1-1s0.4-1,1-1h16.6v-20.5c0-0.5,0.3-0.9,0.8-1
								c0.9-0.2,1.6-0.4,2.5-0.6c0.3-0.1,0.7-0.2,1.2-0.2h0.1c0.2-0.1,0.4-0.1,0.6-0.1c0.4-0.1,0.7-0.2,1.1-0.3s0.8-0.3,1.3-0.4
								c0.4-0.1,0.9,0.1,1.1,0.5l10.3,17.7l28.8-16.7l-10.3-17.7c-0.2-0.4-0.2-0.9,0.2-1.2l4.2-4.2c0.3-0.3,0.8-0.4,1.2-0.2
								l17.6,10.4l16.9-28.7l-17.6-10.4c-0.4-0.2-0.6-0.7-0.4-1.2c0.3-1,0.6-2.1,1-3.4l0.9-3.6c0.1-0.4,0.5-0.8,1-0.8h20.5v-33.3
								h-20.5c-0.5,0-0.9-0.3-1-0.8v-0.1c-0.2-0.8-0.4-1.5-0.6-2.4c-0.1-0.3-0.2-0.7-0.2-1.2v-0.1c-0.1-0.2-0.1-0.4-0.1-0.6
								c-0.1-0.4-0.2-0.7-0.3-1.1c-0.1-0.4-0.3-0.8-0.4-1.3c-0.1-0.4,0.1-0.9,0.5-1.1l17.7-10.3l-16.7-28.8l-17.7,10.3
								c-0.4,0.2-0.9,0.2-1.2-0.2l-0.6-0.6c-0.3-0.3-0.6-0.6-0.9-1l-2.7-2.7c-0.3-0.3-0.4-0.8-0.2-1.2l10.4-17.6l-28.7-16.9
								l-10.4,17.6c-0.2,0.4-0.7,0.6-1.2,0.4c-1.3-0.4-2.5-0.7-3.4-1l-3.6-0.9c-0.4-0.1-0.8-0.5-0.8-1v-20.6h-16.6c-0.6,0-1-0.4-1-1
								s0.4-1,1-1h17.6c0.6,0,1,0.4,1,1v20.8l2.8,0.7c0.8,0.2,1.8,0.4,2.8,0.8l10.5-17.8c0.3-0.5,0.9-0.6,1.4-0.4l30.4,17.9
								c0.2,0.1,0.4,0.4,0.5,0.6s0,0.5-0.1,0.8l-10.5,17.8l2.2,2.2l0.1,0.1c0.3,0.3,0.5,0.6,0.8,0.9l0.1,0.1l17.9-10.4
								c0.2-0.1,0.5-0.2,0.8-0.1c0.3,0.1,0.5,0.2,0.6,0.5l17.7,30.5c0.3,0.5,0.1,1.1-0.4,1.4l-17.9,10.4c0,0.1,0.1,0.3,0.1,0.4
								c0.1,0.4,0.3,0.8,0.4,1.3c0,0.1,0,0.2,0,0.2v0.1c0.1,0.2,0.2,0.5,0.2,0.8c0,0.1,0.1,0.4,0.1,0.6v0.1c0.1,0.6,0.3,1.2,0.4,1.7
								h20.7c0.6,0,1,0.4,1,1v35.3c0,0.6-0.4,1-1,1h-20.7l-0.7,2.8c-0.3,1.1-0.5,2-0.8,2.8l17.8,10.5c0.5,0.3,0.6,0.9,0.4,1.4
								l-17.9,30.4c-0.1,0.2-0.4,0.4-0.6,0.5c-0.3,0.1-0.5,0-0.8-0.1l-17.8-10.5l-3.1,3.1l10.4,17.9c0.1,0.2,0.2,0.5,0.1,0.8
								s-0.2,0.5-0.5,0.6l-30.5,17.7c-0.5,0.3-1.1,0.1-1.4-0.4l-10.4-17.9c-0.1,0-0.3,0.1-0.4,0.1c-0.4,0.1-0.8,0.3-1.3,0.4
								c-0.1,0-0.2,0-0.2,0h-0.1c-0.2,0.1-0.5,0.2-0.8,0.2c-0.1,0-0.4,0.1-0.6,0.1h-0.1c-0.6,0.1-1.2,0.3-1.7,0.4v20.7
								C-1258.4-3318.9-1258.8-3318.5-1259.4-3318.5z"/>
						</g>
						<g id="Path_607-2">
							<path class="st0" d="M-1277-3359.5c-0.6,0-1-0.4-1-1s0.4-1,1-1c32.2,0,58.4-26.2,58.4-58.4s-26.2-58.4-58.4-58.4
								c-0.6,0-1-0.4-1-1s0.4-1,1-1c33.3,0,60.4,27.1,60.4,60.4S-1243.7-3359.5-1277-3359.5z"/>
						</g>
					</g>
				</g>
			</g>
		</g>
	</g>
	<path class="st1" d="M251.2,137.9l-23.3-40c-0.3-0.5-0.7-0.8-1.1-1.1c-1.4-0.8-3.3-0.3-4.1,1.1l-23.3,40c-0.3,0.5-0.4,1-0.4,1.5
		c0,1.7,1.3,3,3,3h46.6c0.5,0,1-0.1,1.5-0.4C251.5,141.2,252,139.3,251.2,137.9z M228.3,110.8l-0.7,16.6h-4.1l-0.8-16.6H228.3z
		 M225.5,135.8c-1.6,0-3-1.4-3-3s1.3-3,3-3s3,1.4,3,3S227.1,135.8,225.5,135.8z"/>
	<g>
		<path class="st0" d="M224.7,78.7c-25.9,0-46.9,21-46.9,46.9c0,6.5,1.3,12.6,3.7,18.3l-15.4,9.7l-3.7-6l-48,30l13,20.9l48-30
			l-3.5-5.5l15-9.4c8.6,11.6,22.3,19.1,37.7,19.1c25.9,0,46.9-21,46.9-46.9C271.6,99.7,250.7,78.7,224.7,78.7z M224.7,168.5
			c-23.6,0-42.9-19.3-42.9-42.9s19.3-42.9,42.9-42.9s42.9,19.3,42.9,42.9S248.3,168.5,224.7,168.5z"/>
		<rect x="109" y="180.5" transform="matrix(0.848 -0.53 0.53 0.848 -84.9954 89.2256)" class="st0" width="8.2" height="24.6"/>
	</g>
</g>
</svg>
