<?xml version="1.0" encoding="utf-8"?>
<!-- Generator: Adobe Illustrator 24.2.0, SVG Export Plug-In . SVG Version: 6.00 Build 0)  -->
<!DOCTYPE svg PUBLIC "-//W3C//DTD SVG 1.1//EN" "http://www.w3.org/Graphics/SVG/1.1/DTD/svg11.dtd" [
	
		<!ENTITY st0 "opacity:0.4;fill:none;stroke:#63F0A3;stroke-width:3;stroke-linecap:round;stroke-linejoin:round;stroke-dasharray:7;enable-background:new    ;">
	<!ENTITY st1 "fill:none;stroke:#E0E0E0;stroke-width:2;stroke-linecap:round;stroke-linejoin:round;">
	<!ENTITY st2 "fill:none;stroke:#E0E0E0;stroke-width:2;stroke-miterlimit:10;">
	<!ENTITY st3 "fill:#FA7268;">
	<!ENTITY st4 "fill:none;stroke:#E0E0E0;stroke-miterlimit:10;stroke-dasharray:3;">
	<!ENTITY st5 "fill:none;stroke:#E0E0E0;stroke-width:2;">
	<!ENTITY st6 "opacity:0.999;">
	<!ENTITY st7 "fill:#F4C2BE;">
	<!ENTITY st8 "fill:url(#Path_458_1_);">
	<!ENTITY st9 "opacity:0.7;fill:url(#Path_459_1_);enable-background:new    ;">
	<!ENTITY st10 "opacity:0.998;fill:#63F1A4;enable-background:new    ;">
	<!ENTITY st11 "fill:none;stroke:#63F0A3;stroke-width:2;stroke-dasharray:7;">
	<!ENTITY st12 "fill:none;">
	<!ENTITY st13 "fill:#E0E0E0;">
	<!ENTITY st14 "fill:#63F0A3;">
	<!ENTITY st15 "fill:none;stroke:#E0E0E0;stroke-width:2;stroke-linejoin:bevel;">
	<!ENTITY st16 "fill:none;stroke:#E0E0E0;stroke-width:2;stroke-linejoin:round;">
	<!ENTITY st17 "fill:none;stroke:#2F8786;stroke-width:3;stroke-dasharray:7;">
	<!ENTITY st18 "fill:none;stroke:#E0E0E0;stroke-width:3;stroke-miterlimit:10;">
	<!ENTITY st19 "fill:#62F0A3;">
	<!ENTITY st20 "fill:none;stroke:#2F8786;stroke-width:3;stroke-linecap:round;stroke-linejoin:round;stroke-dasharray:7;">
	<!ENTITY st21 "fill:#0E4072;">
	<!ENTITY st22 "fill:none;stroke:#E0E0E0;stroke-width:4;">
]>
<svg version="1.1" id="Layer_1" xmlns="http://www.w3.org/2000/svg" xmlns:xlink="http://www.w3.org/1999/xlink" x="0px" y="0px"
	 viewBox="0 0 450 250" style="enable-background:new 0 0 450 250;" xml:space="preserve">
<g id="Group_1541" transform="translate(-820 -2889.875)">
	<g id="Group_1540" transform="translate(-32 10)">
		<g id="Group_1538" transform="translate(852 2880.217)">
			<line id="Line_133" style="&st11;" x1="165.6" y1="141.6" x2="139.5" y2="161.2"/>
			<line id="Line_134" style="&st11;" x1="284.4" y1="141.6" x2="310.5" y2="161.2"/>
			<line id="Line_135" style="&st11;" x1="277.9" y1="74.1" x2="303.9" y2="54.6"/>
			<line id="Line_136" style="&st11;" x1="172.1" y1="74.1" x2="146.1" y2="54.6"/>
			<line id="Line_137" style="&st11;" x1="160.7" y1="109.9" x2="126.5" y2="109.9"/>
			<line id="Line_138" style="&st11;" x1="323.5" y1="109.9" x2="289.3" y2="109.9"/>
			<line id="Line_139" style="&st11;" x1="203" y1="49.5" x2="191.3" y2="17.4"/>
			<line id="Line_141" style="&st11;" x1="247" y1="49.5" x2="258.7" y2="17.4"/>
		</g>
		<g id="Group_1539" transform="translate(899.047 2927.387)">
			<g id="Union_1" transform="translate(-0.047 -0.387)">
				<path style="&st12;" d="M155.9,153v-32.4c-28.2-12.5-41-45.6-28.4-73.9c8.9-20.1,28.7-33.1,50.7-33.2
					c30.9,0.2,55.8,25.5,55.5,56.4c-0.2,22-13.2,41.8-33.2,50.7V153H155.9z"/>
				<path style="&st13;" d="M198.7,151.2v-30.6v-1.2l1.1-0.5c4.7-2.1,9.1-4.8,13-8.1c3.9-3.3,7.3-7.2,10.2-11.4
					c5.9-8.9,9-19.2,9-29.9c0-7.3-1.4-14.4-4.2-21c-1.3-3.2-3-6.3-5-9.2c-1.9-2.9-4.1-5.6-6.6-8c-2.4-2.4-5.1-4.7-7.9-6.6
					c-2.9-2-5.9-3.6-9.1-5c-6.6-2.8-13.6-4.2-20.9-4.2c-7.2,0-14.3,1.4-20.9,4.2c-3.2,1.4-6.2,3-9.1,5c-2.8,1.9-5.5,4.2-7.9,6.6
					c-2.4,2.4-4.6,5.1-6.6,8c-1.9,2.9-3.6,6-5,9.2c-2.8,6.7-4.2,13.7-4.2,21c0,10.7,3.1,21.1,9,29.9c2.8,4.3,6.3,8.1,10.2,11.4
					c3.9,3.3,8.3,6.1,13,8.1l1.1,0.5v1.2v30.6H198.7 M200.5,153h-44.6v-32.4c-19.6-8.6-33.2-28.3-33.2-51.2
					c0-30.9,24.9-55.9,55.5-55.9c30.7,0,55.5,25,55.5,55.9c0,22.9-13.7,42.6-33.2,51.2V153z"/>
			</g>
			<path id="Path_597" style="&st1;" d="M177.9,71.4v31.8l-27.6-15.9V56.6L177.9,71.4z"/>
			<path id="Path_598" style="&st1;" d="M205.6,56.7l-27.6-15.9l-27.7,15.9l27.6,14.8L205.6,56.7z"/>
			<path id="Path_599" style="&st2;" d="M161.8,93.9l10.4-5.8V60.4"/>
			<path id="Path_600" style="&st2;" d="M193.9,50.1l-10.2,5.1v28.1"/>
			<path id="Path_601" style="&st5;" d="M178,103.2l27.9-17.3V57"/>
			<circle id="Ellipse_75" style="&st3;" cx="172.2" cy="59.4" r="3.1"/>
			<circle id="Ellipse_76" style="&st3;" cx="183.6" cy="83" r="3.1"/>
		</g>
		<line id="Line_142" style="&st5;" x1="1077.2" y1="3078.7" x2="1077.2" y2="3030"/>
		<rect id="Rectangle_946" x="1054.7" y="3083.7" style="&st3;" width="45" height="3.7"/>
		<rect id="Rectangle_947" x="1054.7" y="3091.1" style="&st3;" width="45" height="3.7"/>
		<rect id="Rectangle_948" x="1054.7" y="3098.4" style="&st3;" width="45" height="3.7"/>
		<path id="Subtraction_2" style="&st13;" d="M1077.2,3112.2c-2.4,0-4.8-0.6-6.9-1.8c-2.1-1.1-3.9-2.7-5.2-4.7h24.3
			c-1.4,1.9-3.1,3.5-5.2,4.7C1082,3111.6,1079.6,3112.2,1077.2,3112.2z"/>
	</g>
</g>
</svg>
