<?xml version="1.0" encoding="utf-8"?>
<!-- Generator: Adobe Illustrator 24.2.0, SVG Export Plug-In . SVG Version: 6.00 Build 0)  -->
<!DOCTYPE svg PUBLIC "-//W3C//DTD SVG 1.1//EN" "http://www.w3.org/Graphics/SVG/1.1/DTD/svg11.dtd" [
	
		<!ENTITY st0 "opacity:0.4;fill:none;stroke:#63F0A3;stroke-width:3;stroke-linecap:round;stroke-linejoin:round;stroke-dasharray:7;enable-background:new    ;">
	<!ENTITY st1 "fill:none;stroke:#E0E0E0;stroke-width:2;stroke-linecap:round;stroke-linejoin:round;">
	<!ENTITY st2 "fill:none;stroke:#E0E0E0;stroke-width:2;stroke-miterlimit:10;">
	<!ENTITY st3 "fill:#FA7268;">
	<!ENTITY st4 "fill:none;stroke:#E0E0E0;stroke-miterlimit:10;stroke-dasharray:3;">
	<!ENTITY st5 "fill:none;stroke:#E0E0E0;stroke-width:2;">
	<!ENTITY st6 "opacity:0.999;">
	<!ENTITY st7 "fill:#F4C2BE;">
	<!ENTITY st8 "fill:url(#Path_458_1_);">
	<!ENTITY st9 "opacity:0.7;fill:url(#Path_459_1_);enable-background:new    ;">
	<!ENTITY st10 "opacity:0.998;fill:#63F1A4;enable-background:new    ;">
	<!ENTITY st11 "fill:none;stroke:#63F0A3;stroke-width:2;stroke-dasharray:7;">
	<!ENTITY st12 "fill:none;">
	<!ENTITY st13 "fill:#E0E0E0;">
	<!ENTITY st14 "fill:#63F0A3;">
	<!ENTITY st15 "fill:none;stroke:#E0E0E0;stroke-width:2;stroke-linejoin:bevel;">
	<!ENTITY st16 "fill:none;stroke:#E0E0E0;stroke-width:2;stroke-linejoin:round;">
	<!ENTITY st17 "fill:none;stroke:#2F8786;stroke-width:3;stroke-dasharray:7;">
	<!ENTITY st18 "fill:none;stroke:#E0E0E0;stroke-width:3;stroke-miterlimit:10;">
	<!ENTITY st19 "fill:#62F0A3;">
	<!ENTITY st20 "fill:none;stroke:#2F8786;stroke-width:3;stroke-linecap:round;stroke-linejoin:round;stroke-dasharray:7;">
	<!ENTITY st21 "fill:#0E4072;">
	<!ENTITY st22 "fill:none;stroke:#E0E0E0;stroke-width:4;">
]>
<svg version="1.1" id="Layer_1" xmlns="http://www.w3.org/2000/svg" xmlns:xlink="http://www.w3.org/1999/xlink" x="0px" y="0px"
	 viewBox="0 0 450 250" style="enable-background:new 0 0 450 250;" xml:space="preserve">
<g id="Sustainable_change_2_" transform="translate(465.645 1335.376)">
	<path id="Path_447_2_" style="&st0;" d="M-257.5-1132.9c-44-9.5-71.9-52.9-62.4-96.9c7.2-33.1,34.1-58.3,67.6-63.3"/>
	<path id="Path_448_2_" style="&st0;" d="M-219.1-1291.2c43.5,11.7,69.2,56.4,57.5,99.9c-8.2,30.4-33.1,53.3-64.1,58.9"/>
	<g id="Group_1358_2_" transform="translate(67.355 357.185)">
		<path id="Path_450_2_" style="&st1;" d="M-308.8-1569.7v58.9l-51.1-29.5v-57L-308.8-1569.7z"/>
		<path id="Path_451_2_" style="&st1;" d="M-257.5-1596.9l-51.1-29.4l-51.3,29.4l51.1,27.5L-257.5-1596.9z"/>
		<path id="Path_452_2_" style="&st2;" d="M-338.7-1528l19.3-10.8v-51.3"/>
		<circle id="Ellipse_57_2_" style="&st3;" cx="-319.6" cy="-1595.2" r="5.3"/>
		<path id="Path_453_2_" style="&st2;" d="M-279.3-1609.2l-18.8,9.4v52"/>
		<path id="Path_596_2_" style="&st3;" d="M-298.1-1547.8c2.6,0,4.7,2.1,4.7,4.7c0,2.6-2.1,4.7-4.7,4.7c-2.6,0-4.7-2.1-4.7-4.7
			c0,0,0,0,0,0C-302.8-1545.7-300.7-1547.8-298.1-1547.8z"/>
		<g id="Group_1355_2_" transform="translate(-1)">
			<path id="Path_454_2_" style="&st4;" d="M-411.5-1644.8v23.5l20.3-11.7v-22.7L-411.5-1644.8z"/>
			<path id="Path_455_2_" style="&st4;" d="M-411.6-1644.8v23.5l-20.3-11.7v-22.7L-411.6-1644.8z"/>
			<path id="Path_456_2_" style="&st4;" d="M-431.9-1655.8l20.4-11.7l20.3,11.7"/>
		</g>
		<path id="Path_595_2_" style="&st5;" d="M-308.7-1510.8l51.8-32.1v-53.7"/>
		<g id="Group_1524_2_" transform="translate(143.809 129.706)" style="&st6;">
			<g id="Group_1356_2_" transform="translate(54.918 33.125) rotate(180)">
				<circle id="Ellipse_65_2_" style="&st3;" cx="435.4" cy="1671" r="3.5"/>
				<circle id="Ellipse_66_2_" style="&st3;" cx="447.2" cy="1677.6" r="3.5"/>
				<circle id="Ellipse_67_2_" style="&st3;" cx="460.3" cy="1684.6" r="3.5"/>
				<circle id="Ellipse_68_2_" style="&st3;" cx="472" cy="1691.2" r="3.5"/>
				<circle id="Ellipse_69_2_" style="&st3;" cx="484.4" cy="1698.1" r="3.5"/>
			</g>
		</g>
		<g id="Group_1525_2_" transform="translate(45.809 35.706)" style="&st6;">
			<g id="Group_1356-2_2_" transform="translate(54.918 33.125) rotate(180)">
				<circle id="Ellipse_65-2_2_" style="&st3;" cx="435.4" cy="1671" r="3.5"/>
				<circle id="Ellipse_66-2_2_" style="&st3;" cx="447.2" cy="1677.6" r="3.5"/>
				<circle id="Ellipse_67-2_2_" style="&st3;" cx="460.3" cy="1684.6" r="3.5"/>
				<circle id="Ellipse_68-2_2_" style="&st3;" cx="472" cy="1691.2" r="3.5"/>
				<circle id="Ellipse_69-2_2_" style="&st3;" cx="484.4" cy="1698.1" r="3.5"/>
			</g>
		</g>
	</g>
	<path id="Path_457_2_" style="&st7;" d="M-136.9-1134.8v25l21.6-12.5v-24.1L-136.9-1134.8z"/>
	
		<linearGradient id="Path_458_1_" gradientUnits="userSpaceOnUse" x1="-631.9803" y1="-1052.7548" x2="-632.5743" y2="-1053.5398" gradientTransform="matrix(21.631 0 0 -36.606 13527.8076 -39676.9141)">
		<stop  offset="0" style="stop-color:#FA7268"/>
		<stop  offset="1" style="stop-color:#FA7268"/>
	</linearGradient>
	<path id="Path_458_2_" style="&st8;" d="M-136.9-1134.8v25l-21.6-12.5v-24.1L-136.9-1134.8z"/>
	
		<linearGradient id="Path_459_1_" gradientUnits="userSpaceOnUse" x1="-639.1934" y1="-1060.947" x2="-638.1934" y2="-1059.947" gradientTransform="matrix(43.362 0 0 -24.0939 27558.3301 -26697.1113)">
		<stop  offset="0" style="stop-color:#E05D53"/>
		<stop  offset="0.176" style="stop-color:#FA7268"/>
		<stop  offset="0.645" style="stop-color:#E69E98"/>
		<stop  offset="1" style="stop-color:#F4C2BE"/>
	</linearGradient>
	<path id="Path_459_2_" style="&st9;" d="M-115.2-1146.5l-21.6-12.4l-21.7,12.4l21.6,11.6L-115.2-1146.5z"/>
	<path id="Path_460_2_" style="&st10;" d="M-233.2-1294l-14.3-8.2v16.5L-233.2-1294z"/>
	<path id="Path_461_2_" style="&st10;" d="M-247.4-1131l14.3,8.2v-16.5L-247.4-1131z"/>
</g>
</svg>
