<?xml version="1.0" encoding="utf-8"?>
<!-- Generator: Adobe Illustrator 24.2.0, SVG Export Plug-In . SVG Version: 6.00 Build 0)  -->
<!DOCTYPE svg PUBLIC "-//W3C//DTD SVG 1.1//EN" "http://www.w3.org/Graphics/SVG/1.1/DTD/svg11.dtd" [
	
		<!ENTITY st0 "opacity:0.4;fill:none;stroke:#63F0A3;stroke-width:3;stroke-linecap:round;stroke-linejoin:round;stroke-dasharray:7;enable-background:new    ;">
	<!ENTITY st1 "fill:none;stroke:#E0E0E0;stroke-width:2;stroke-linecap:round;stroke-linejoin:round;">
	<!ENTITY st2 "fill:none;stroke:#E0E0E0;stroke-width:2;stroke-miterlimit:10;">
	<!ENTITY st3 "fill:#FA7268;">
	<!ENTITY st4 "fill:none;stroke:#E0E0E0;stroke-miterlimit:10;stroke-dasharray:3;">
	<!ENTITY st5 "fill:none;stroke:#E0E0E0;stroke-width:2;">
	<!ENTITY st6 "opacity:0.999;">
	<!ENTITY st7 "fill:#F4C2BE;">
	<!ENTITY st8 "fill:url(#Path_458_1_);">
	<!ENTITY st9 "opacity:0.7;fill:url(#Path_459_1_);enable-background:new    ;">
	<!ENTITY st10 "opacity:0.998;fill:#63F1A4;enable-background:new    ;">
	<!ENTITY st11 "fill:none;stroke:#63F0A3;stroke-width:2;stroke-dasharray:7;">
	<!ENTITY st12 "fill:none;">
	<!ENTITY st13 "fill:#E0E0E0;">
	<!ENTITY st14 "fill:#63F0A3;">
	<!ENTITY st15 "fill:none;stroke:#E0E0E0;stroke-width:2;stroke-linejoin:bevel;">
	<!ENTITY st16 "fill:none;stroke:#E0E0E0;stroke-width:2;stroke-linejoin:round;">
	<!ENTITY st17 "fill:none;stroke:#2F8786;stroke-width:3;stroke-dasharray:7;">
	<!ENTITY st18 "fill:none;stroke:#E0E0E0;stroke-width:3;stroke-miterlimit:10;">
	<!ENTITY st19 "fill:#62F0A3;">
	<!ENTITY st20 "fill:none;stroke:#2F8786;stroke-width:3;stroke-linecap:round;stroke-linejoin:round;stroke-dasharray:7;">
	<!ENTITY st21 "fill:#0E4072;">
	<!ENTITY st22 "fill:none;stroke:#E0E0E0;stroke-width:4;">
]>
<svg version="1.1" id="Layer_1" xmlns="http://www.w3.org/2000/svg" xmlns:xlink="http://www.w3.org/1999/xlink" x="0px" y="0px"
	 viewBox="0 0 450 250" style="enable-background:new 0 0 450 250;" xml:space="preserve">
<g id="Group_1601_1_" transform="translate(-1323.411 -2867)">
	<g id="Group_1542_1_" transform="translate(82.591 49.44)">
		<g id="Group_1546_1_" transform="translate(1351.608 2881.737)">
			<g id="Group_1531_1_" transform="translate(29.48 33.37)">
				<g id="Group_1511_3_" transform="translate(0 0)">
					<g id="Group_1358_4_" transform="translate(0 0)">
						<path id="Path_450_4_" style="&st1;" d="M84.7,27.3v30.5L58.2,42.5V13L84.7,27.3z"/>
						<path id="Path_451_4_" style="&st1;" d="M111.2,13.2L84.8-2L58.2,13.2l26.4,14.2L111.2,13.2z"/>
						<path id="Path_452_4_" style="&st2;" d="M69.2,48.8l10-5.6V16.7"/>
						<ellipse id="Ellipse_57_4_" style="&st3;" cx="79.1" cy="14.1" rx="2.7" ry="2.7"/>
						<path id="Path_453_3_" style="&st2;" d="M99.9,6.8l-9.7,4.9v26.9"/>
						<path id="Path_596_3_" style="&st3;" d="M90.2,38.6c1.3,0,2.4,1.1,2.4,2.4s-1.1,2.4-2.4,2.4c-1.3,0-2.4-1.1-2.4-2.4
							c0,0,0,0,0,0C87.8,39.7,88.9,38.6,90.2,38.6z"/>
						<path id="Path_595_4_" style="&st5;" d="M84.7,57.8l26.8-16.6V13.4"/>
					</g>
				</g>
			</g>
			<g id="Group_1542-2_1_" transform="translate(57.055)">
				<line id="Line_143_1_" style="&st5;" x1="57.3" y1="26.6" x2="57.3" y2="12.1"/>
				<path id="Path_603_1_" style="&st13;" d="M54.5,4.2v3.3l3,1.7l3-1.7V4.2l-3-1.7L54.5,4.2z"/>
				<line id="Line_144_1_" style="&st5;" x1="57.6" y1="95.7" x2="57.6" y2="110.2"/>
				<path id="Path_604_1_" style="&st13;" d="M60.4,118v-3.3l-3-1.7l-3,1.7v3.3l3,1.7L60.4,118z"/>
			</g>
			<g id="Group_1543_1_" transform="translate(117.555 30.951) rotate(60)">
				<line id="Line_143-2_1_" style="&st5;" x1="24.5" y1="-16.8" x2="24.5" y2="-31.3"/>
				<path id="Path_603-2_1_" style="&st13;" d="M21.6-39.1v3.3l3,1.7l3-1.7v-3.3l-3-1.7L21.6-39.1z"/>
				<line id="Line_144-2_1_" style="&st5;" x1="24.7" y1="52.3" x2="24.7" y2="66.8"/>
				<path id="Path_604-2_1_" style="&st13;" d="M27.6,74.6l0-3.3l-3-1.7l-3,1.7l0,3.3l3,1.7L27.6,74.6z"/>
			</g>
			<g id="Group_1544_1_" transform="translate(121.002 98.821) rotate(120)">
				<line id="Line_143-3_1_" style="&st5;" x1="-29.5" y1="-10.1" x2="-29.5" y2="-24.6"/>
				<path id="Path_603-3_1_" style="&st14;" d="M-32.4-32.4v3.3l3,1.7l3-1.7l0-3.3l-3-1.7L-32.4-32.4z"/>
				<line id="Line_144-3_1_" style="&st5;" x1="-29.3" y1="59" x2="-29.3" y2="73.5"/>
				<path id="Path_604-3_1_" style="&st14;" d="M-26.4,81.3l0-3.3l-3-1.7l-3,1.7v3.3l3,1.7L-26.4,81.3z"/>
			</g>
		</g>
		<g id="Group_1547_1_" transform="translate(1240.82 2817.561)">
			<g id="Group_1531-2_1_" transform="translate(29.48 33.37)">
				<g id="Group_1511-2_1_" transform="translate(0 0)">
					<g id="Group_1358-2_1_" transform="translate(0 0)">
						<path id="Path_450-2_1_" style="&st1;" d="M99.8,36v30.5L73.4,51.3V21.8L99.8,36z"/>
						<path id="Path_451-2_1_" style="&st1;" d="M126.4,21.9L99.9,6.7L73.4,21.9l26.4,14.2L126.4,21.9z"/>
						<path id="Path_452-2_1_" style="&st2;" d="M84.3,57.6l10-5.6V25.4"/>
						<ellipse id="Ellipse_57-2_1_" style="&st3;" cx="94.2" cy="22.9" rx="2.7" ry="2.7"/>
						<path id="Path_453-2_1_" style="&st2;" d="M115.1,15.6l-9.7,4.9v26.9"/>
						<path id="Path_596-2_1_" style="&st3;" d="M105.3,47.4c1.3,0,2.4,1.1,2.4,2.4s-1.1,2.4-2.4,2.4c-1.3,0-2.4-1.1-2.4-2.4
							c0,0,0,0,0,0C102.9,48.5,104,47.4,105.3,47.4z"/>
						<path id="Path_595-2_1_" style="&st5;" d="M99.9,66.5l26.8-16.6V22.2"/>
					</g>
				</g>
			</g>
			<g id="Group_1542-3_1_" transform="translate(57.055)">
				<line id="Line_143-4_1_" style="&st5;" x1="72.5" y1="35.3" x2="72.5" y2="20.8"/>
				<path id="Path_603-4_1_" style="&st13;" d="M69.6,13v3.3l3,1.7l3-1.7V13l-3-1.7L69.6,13z"/>
				<line id="Line_144-4_1_" style="&st5;" x1="72.7" y1="104.4" x2="72.7" y2="118.9"/>
				<path id="Path_604-4_1_" style="&st13;" d="M75.6,126.8v-3.3l-3-1.7l-3,1.7v3.3l3,1.7L75.6,126.8z"/>
			</g>
			<g id="Group_1543-2_1_" transform="translate(117.555 30.951) rotate(60)">
				<line id="Line_143-5_1_" style="&st5;" x1="39.6" y1="-25.6" x2="39.6" y2="-40.1"/>
				<path id="Path_603-5_1_" style="&st13;" d="M36.8-47.9l0,3.3l3,1.7l3-1.7v-3.3l-3-1.7L36.8-47.9z"/>
				<line id="Line_144-5_1_" style="&st5;" x1="39.9" y1="43.6" x2="39.9" y2="58"/>
				<path id="Path_604-5_1_" style="&st13;" d="M42.7,65.9v-3.3l-3-1.7l-3,1.7v3.3l3,1.7L42.7,65.9z"/>
			</g>
			<g id="Group_1544-2_1_" transform="translate(121.002 98.821) rotate(120)">
				<line id="Line_143-6_1_" style="&st5;" x1="-29.5" y1="-27.6" x2="-29.5" y2="-42.1"/>
				<line id="Line_144-6_1_" style="&st5;" x1="-29.3" y1="41.5" x2="-29.3" y2="56"/>
				<path id="Path_604-6_1_" style="&st13;" d="M-26.4,63.8v-3.3l-3-1.7l-3,1.7v3.3l3,1.7L-26.4,63.8z"/>
			</g>
		</g>
		<g id="Group_1548_1_" transform="translate(1461.72 2945.237)">
			<g id="Group_1531-3_1_" transform="translate(29.48 33.37)">
				<g id="Group_1511-3_1_" transform="translate(0 0)">
					<g id="Group_1358-3_1_" transform="translate(0 0)">
						<path id="Path_450-3_1_" style="&st1;" d="M69.6,18.6v30.5L43.2,33.8V4.4L69.6,18.6z"/>
						<path id="Path_451-3_1_" style="&st1;" d="M96.2,4.5L69.7-10.7L43.2,4.5l26.4,14.2L96.2,4.5z"/>
						<path id="Path_452-3_1_" style="&st2;" d="M54.1,40.2l10-5.6V8"/>
						<ellipse id="Ellipse_57-3_1_" style="&st3;" cx="64" cy="5.4" rx="2.7" ry="2.7"/>
						<path id="Path_453-3_1_" style="&st2;" d="M84.9-1.9L75.2,3v26.9"/>
						<path id="Path_596-3_1_" style="&st3;" d="M75.2,29.9c1.3,0,2.4,1.1,2.4,2.4s-1.1,2.4-2.4,2.4c-1.3,0-2.4-1.1-2.4-2.4
							c0,0,0,0,0,0C72.7,31,73.8,29.9,75.2,29.9z"/>
						<path id="Path_595-3_1_" style="&st5;" d="M69.7,49.1l26.8-16.6V4.7"/>
					</g>
				</g>
			</g>
			<g id="Group_1542-4_1_" transform="translate(57.055)">
				<line id="Line_143-7_1_" style="&st5;" x1="42.3" y1="17.9" x2="42.3" y2="3.4"/>
				<path id="Path_603-6_1_" style="&st13;" d="M39.4-4.4v3.3l3,1.7l3-1.7v-3.3l-3-1.7L39.4-4.4z"/>
				<line id="Line_144-7_1_" style="&st5;" x1="42.5" y1="87" x2="42.5" y2="101.5"/>
				<path id="Path_604-7_1_" style="&st13;" d="M45.4,109.3V106l-3-1.7l-3,1.7v3.3l3,1.7L45.4,109.3z"/>
			</g>
			<g id="Group_1543-3_1_" transform="translate(117.555 30.951) rotate(60)">
				<line id="Line_143-8_1_" style="&st5;" x1="9.4" y1="-8.1" x2="9.4" y2="-22.6"/>
				<path id="Path_603-7_1_" style="&st13;" d="M6.6-30.4l0,3.3l3,1.7l3-1.7v-3.3l-3-1.7L6.6-30.4z"/>
				<line id="Line_144-8_1_" style="&st5;" x1="9.7" y1="61" x2="9.7" y2="75.5"/>
				<path id="Path_604-8_1_" style="&st13;" d="M12.5,83.3l0-3.3l-3-1.7l-3,1.7l0,3.3l3,1.7L12.5,83.3z"/>
			</g>
			<g id="Group_1544-3_1_" transform="translate(121.002 98.821) rotate(120)">
				<line id="Line_143-9_1_" style="&st5;" x1="-29.5" y1="7.3" x2="-29.5" y2="-7.2"/>
				<path id="Path_603-8_1_" style="&st13;" d="M-32.4-15v3.3l3,1.7l3-1.7l0-3.3l-3-1.7L-32.4-15z"/>
				<line id="Line_144-9_1_" style="&st5;" x1="-29.3" y1="76.4" x2="-29.3" y2="90.9"/>
			</g>
		</g>
	</g>
</g>
</svg>
