<?xml version="1.0" encoding="utf-8"?>
<!-- Generator: Adobe Illustrator 24.2.0, SVG Export Plug-In . SVG Version: 6.00 Build 0)  -->
<!DOCTYPE svg PUBLIC "-//W3C//DTD SVG 1.1//EN" "http://www.w3.org/Graphics/SVG/1.1/DTD/svg11.dtd" [
	
		<!ENTITY st0 "opacity:0.4;fill:none;stroke:#63F0A3;stroke-width:3;stroke-linecap:round;stroke-linejoin:round;stroke-dasharray:7;enable-background:new    ;">
	<!ENTITY st1 "fill:none;stroke:#E0E0E0;stroke-width:2;stroke-linecap:round;stroke-linejoin:round;">
	<!ENTITY st2 "fill:none;stroke:#E0E0E0;stroke-width:2;stroke-miterlimit:10;">
	<!ENTITY st3 "fill:#FA7268;">
	<!ENTITY st4 "fill:none;stroke:#E0E0E0;stroke-miterlimit:10;stroke-dasharray:3;">
	<!ENTITY st5 "fill:none;stroke:#E0E0E0;stroke-width:2;">
	<!ENTITY st6 "opacity:0.999;">
	<!ENTITY st7 "fill:#F4C2BE;">
	<!ENTITY st8 "fill:url(#Path_458_1_);">
	<!ENTITY st9 "opacity:0.7;fill:url(#Path_459_1_);enable-background:new    ;">
	<!ENTITY st10 "opacity:0.998;fill:#63F1A4;enable-background:new    ;">
	<!ENTITY st11 "fill:none;stroke:#63F0A3;stroke-width:2;stroke-dasharray:7;">
	<!ENTITY st12 "fill:none;">
	<!ENTITY st13 "fill:#E0E0E0;">
	<!ENTITY st14 "fill:#63F0A3;">
	<!ENTITY st15 "fill:none;stroke:#E0E0E0;stroke-width:2;stroke-linejoin:bevel;">
	<!ENTITY st16 "fill:none;stroke:#E0E0E0;stroke-width:2;stroke-linejoin:round;">
	<!ENTITY st17 "fill:none;stroke:#2F8786;stroke-width:3;stroke-dasharray:7;">
	<!ENTITY st18 "fill:none;stroke:#E0E0E0;stroke-width:3;stroke-miterlimit:10;">
	<!ENTITY st19 "fill:#62F0A3;">
	<!ENTITY st20 "fill:none;stroke:#2F8786;stroke-width:3;stroke-linecap:round;stroke-linejoin:round;stroke-dasharray:7;">
	<!ENTITY st21 "fill:#0E4072;">
	<!ENTITY st22 "fill:none;stroke:#E0E0E0;stroke-width:4;">
]>
<svg version="1.1" id="Layer_1" xmlns="http://www.w3.org/2000/svg" xmlns:xlink="http://www.w3.org/1999/xlink" x="0px" y="0px"
	 viewBox="0 0 450 250" style="enable-background:new 0 0 450 250;" xml:space="preserve">
<g id="Group_1603_1_" transform="translate(-320.066 -3544.125)">
	<g id="Group_1602_1_">
		<g id="Group_1564_1_" transform="translate(0 -4.56)">
			<g id="Group_1558_1_" transform="translate(10 -5)">
				<g id="Group_1554_1_" transform="translate(-11)">
					<g id="Group_1551_1_" transform="translate(363.593 3614.69)">
						<path id="Path_607_1_" style="&st15;" d="M143.7,98.3c2.1,21,19.8,37.4,41.4,37.4"/>
						<path id="Path_606_2_" style="&st15;" d="M185.1,164.4h-12.4v-15.1c-0.6-0.1-1.1-0.3-1.7-0.4c-0.2-0.1-0.4-0.1-0.6-0.2
							s-0.4-0.1-0.6-0.2c-0.6-0.2-1.1-0.3-1.7-0.5l-7.6,13l-21.4-12.4l7.6-13l-0.2-0.2l-0.2-0.2c-0.2-0.2-0.4-0.4-0.7-0.6
							c-0.1-0.1-0.3-0.3-0.4-0.4s-0.3-0.3-0.4-0.4c-0.2-0.2-0.4-0.4-0.6-0.7l-0.2-0.2l-0.2-0.2l-13,7.6L118.2,119l13-7.6
							c-0.3-0.8-0.5-1.6-0.7-2.5s-0.4-1.7-0.6-2.5h-15V82.8"/>
					</g>
					<g id="Group_1553_1_">
						<g id="Group_1550_1_" transform="translate(434.155 3614.691)">
							<path id="Path_606-2_1_" style="&st16;" d="M114.8,164.4h12.4v-15.1c0.6-0.1,1.1-0.3,1.7-0.4c0.2-0.1,0.4-0.1,0.6-0.2
								s0.4-0.1,0.6-0.2c0.6-0.2,1.1-0.3,1.7-0.5l7.6,13l21.4-12.4l-7.6-13l0.2-0.2l0.2-0.2c0.2-0.2,0.4-0.4,0.7-0.6
								c0.1-0.1,0.3-0.3,0.4-0.4s0.3-0.3,0.4-0.4c0.2-0.2,0.4-0.4,0.6-0.7l0.2-0.2l0.2-0.2l13,7.6l12.5-21.3l-13-7.6
								c0.3-0.8,0.5-1.6,0.7-2.5s0.4-1.7,0.6-2.5h15.1V81.7H170c-0.1-0.6-0.3-1.1-0.4-1.7c-0.1-0.2-0.1-0.4-0.2-0.6
								s-0.1-0.4-0.2-0.6c-0.2-0.6-0.3-1.1-0.5-1.7l13-7.6l-12.4-21.4l-13,7.6l-0.2-0.2l-0.2-0.2c-0.2-0.2-0.4-0.4-0.6-0.7
								c-0.1-0.1-0.3-0.3-0.4-0.4c-0.1-0.1-0.3-0.3-0.4-0.4c-0.2-0.2-0.4-0.4-0.7-0.6l-0.2-0.2l-0.2-0.2l7.6-13l-21.3-12.5l-7.6,13
								c-0.8-0.3-1.6-0.5-2.5-0.7c-0.8-0.2-1.7-0.4-2.5-0.6V23.8h-6.3"/>
							<path id="Path_607-2_1_" style="&st15;" d="M120.9,52.9c20.1,3,35.5,20.3,35.5,41.2c0,23-18.6,41.6-41.6,41.6"/>
						</g>
						<path id="Path_605_1_" style="&st5;" d="M541.7,3578.3l60.5,33.4v33.6"/>
						<g id="Group_1552_1_" transform="translate(364.886 3555.078)">
							<g id="Group_1511_2_" transform="translate(0 0)">
								<g id="Group_1358_3_" transform="translate(0 0)">
									<path id="Path_450_3_" style="&st1;" d="M176.9,92.7v71.7l-62.1-35.8V59.2L176.9,92.7z"/>
									<path id="Path_451_3_" style="&st1;" d="M177.2,23.8l-62.4,35.7L176.9,93L177.2,23.8z"/>
									<path id="Path_452_3_" style="&st2;" d="M140.5,143.4l23.5-13.2V67.7"/>
									<ellipse id="Ellipse_57_3_" style="&st3;" cx="163.8" cy="61.7" rx="6.4" ry="6.4"/>
								</g>
							</g>
						</g>
					</g>
				</g>
				<g id="Group_1560_1_" transform="translate(8)">
					<g id="Group_1556_1_" transform="translate(-4 -10)">
						<g id="Group_1555_1_">
							<line id="Line_145_1_" style="&st17;" x1="633.3" y1="3745.3" x2="633.3" y2="3663.3"/>
						</g>
					</g>
					<path id="Path_608_1_" style="&st10;" d="M629.1,3638.5l-8.2,14.3h16.5L629.1,3638.5z"/>
				</g>
				<g id="Group_1559_1_">
					<g id="Group_1557_1_" transform="translate(836.588 7336.271) rotate(180)">
						<g id="Group_1555-2_1_">
							<line id="Line_145-2_1_" style="&st17;" x1="403.7" y1="3697.7" x2="403.7" y2="3615.7"/>
						</g>
					</g>
					<path id="Path_609_1_" style="&st10;" d="M433.1,3735.3l8.2-14.3h-16.5L433.1,3735.3z"/>
				</g>
			</g>
		</g>
	</g>
</g>
</svg>
