<?xml version="1.0" encoding="utf-8"?>
<!-- Generator: Adobe Illustrator 24.2.0, SVG Export Plug-In . SVG Version: 6.00 Build 0)  -->
<!DOCTYPE svg PUBLIC "-//W3C//DTD SVG 1.1//EN" "http://www.w3.org/Graphics/SVG/1.1/DTD/svg11.dtd" [
	<!ENTITY st0 "fill:#E0E0E0;">
	<!ENTITY st1 "fill:#FA7268;">
]>
<svg version="1.1" id="Layer_1" xmlns="http://www.w3.org/2000/svg" xmlns:xlink="http://www.w3.org/1999/xlink" x="0px" y="0px"
	 viewBox="0 0 450 250" style="enable-background:new 0 0 450 250;" xml:space="preserve">
<g id="Group_1565" transform="translate(1401.34 3545)">
	<g id="Group_1558" transform="translate(0 0)">
		<g id="Group_1554">
			<g id="Group_1551">
				<g id="Path_606_2_">
					<path style="&st0;" d="M-1231.4-3385h-17.3c-0.5,0-0.8-0.3-0.8-0.8v-28.5c0-0.5,0.3-0.8,0.8-0.8h16.7c0.1-0.4,0.2-0.9,0.3-1.4
						v-0.1c0.1-0.2,0.1-0.3,0.1-0.5s0.1-0.5,0.2-0.6c0-0.1,0-0.1,0.1-0.2c0-0.1,0-0.1,0-0.2c0.1-0.3,0.2-0.6,0.3-1
						c0-0.1,0.1-0.2,0.1-0.3l-14.4-8.4c-0.4-0.2-0.5-0.7-0.3-1.1l14.3-24.6c0.1-0.2,0.3-0.3,0.5-0.4c0.2-0.1,0.4,0,0.6,0.1l14.4,8.4
						l0.1-0.1c0.2-0.2,0.4-0.4,0.6-0.7l0.1-0.1l1.8-1.8l-8.5-14.3c-0.1-0.2-0.2-0.4-0.1-0.6c0.1-0.2,0.2-0.4,0.4-0.5l24.5-14.4
						c0.4-0.2,0.9-0.1,1.1,0.3l8.5,14.3c0.8-0.2,1.6-0.5,2.3-0.6l2.3-0.6v-16.6c0-0.5,0.3-0.8,0.8-0.8h14.2c0.5,0,0.8,0.3,0.8,0.8
						s-0.3,0.8-0.8,0.8h-13.4v16.4c0,0.4-0.2,0.7-0.6,0.8l-2.9,0.7c-1.1,0.2-1.9,0.5-2.7,0.8c-0.3,0.1-0.7,0-1-0.3l-8.4-14.2
						l-23.1,13.6l8.4,14.2c0.2,0.3,0.2,0.7-0.2,1l-2.2,2.2c-0.2,0.3-0.5,0.6-0.7,0.8l-0.5,0.5c-0.2,0.2-0.6,0.3-1,0.2l-14.3-8.3
						l-13.5,23.2l14.3,8.3c0.3,0.2,0.5,0.6,0.4,0.9c-0.1,0.3-0.2,0.6-0.3,1c-0.1,0.3-0.2,0.6-0.2,0.9c0,0.2-0.1,0.4-0.1,0.5
						s0,0.1-0.1,0.2c0,0.3-0.1,0.6-0.2,0.9c-0.2,0.7-0.3,1.4-0.5,2c-0.1,0.3-0.4,0.6-0.8,0.6h-16.5v26.8h16.5c0.5,0,0.8,0.3,0.8,0.8
						S-1230.9-3385-1231.4-3385z"/>
				</g>
				<g id="Path_606_3_">
					<path style="&st0;" d="M-1167.8-3318.3h-14.2c-0.5,0-0.8-0.3-0.8-0.8v-16.7c-0.5-0.1-0.9-0.2-1.4-0.3h-0.1
						c-0.2-0.1-0.3-0.1-0.5-0.1s-0.5-0.1-0.6-0.2c-0.1,0-0.1,0-0.2-0.1c-0.1,0-0.1,0-0.2,0c-0.3-0.1-0.6-0.2-1-0.3
						c-0.1,0-0.2-0.1-0.3-0.1l-8.4,14.3c-0.2,0.4-0.7,0.5-1.1,0.3l-24.6-14.3c-0.2-0.1-0.3-0.3-0.4-0.5s0-0.4,0.1-0.6l8.4-14.4
						l-1.8-1.8c-0.3-0.3-0.3-0.8,0-1.1s0.8-0.3,1.1,0l2.2,2.2c0.2,0.2,0.3,0.6,0.2,1l-8.3,14.3l23.2,13.5l8.3-14.2
						c0.2-0.3,0.6-0.5,0.9-0.4s0.6,0.2,1,0.3c0.3,0.1,0.6,0.2,0.9,0.2c0.2,0,0.4,0.1,0.5,0.1s0.1,0,0.2,0.1l0,0c0.3,0,0.6,0.1,1,0.2
						c0.6,0.2,1.3,0.3,1.9,0.5c0.3,0.1,0.6,0.4,0.6,0.8v16.5h13.4c0.5,0,0.8,0.3,0.8,0.8
						C-1167.1-3318.6-1167.3-3318.3-1167.8-3318.3z"/>
				</g>
				<g id="Path_607_2_">
					<path style="&st0;" d="M-1167.8-3351.3L-1167.8-3351.3c-10.5-0.1-20.5-3.5-28.8-9.8c-0.3-0.2-0.4-0.8-0.2-1.1s0.8-0.4,1.1-0.2
						c8.1,6,17.7,9.3,27.8,9.4c0.5,0,0.8,0.4,0.8,0.8C-1167-3351.7-1167.3-3351.3-1167.8-3351.3z"/>
				</g>
				<g id="Path_607_1_">
					<path style="&st0;" d="M-1215.2-3396.3c-0.4,0-0.8-0.3-0.8-0.7c-0.1-0.8-0.1-1.7-0.1-2.6c-0.2-26.8,21.4-48.8,48.3-49.1l0,0
						c0.4,0,0.8,0.3,0.8,0.8s-0.3,0.8-0.8,0.8c-26,0.2-46.9,21.5-46.7,47.5c0,0.8,0,1.6,0.1,2.5
						C-1214.4-3396.7-1214.7-3396.3-1215.2-3396.3C-1215.1-3396.3-1215.2-3396.3-1215.2-3396.3z"/>
				</g>
			</g>
			<g id="Group_1553" transform="translate(100.742 0.001)">
				<g id="Group_1550">
					<g id="Path_606-2">
						<path style="&st0;" d="M-1254-3318.3h-14.2c-0.5,0-0.8-0.3-0.8-0.8s0.3-0.8,0.8-0.8h13.4v-16.5c0-0.4,0.2-0.7,0.6-0.8
							c0.7-0.2,1.3-0.3,2-0.5c0.2-0.1,0.6-0.2,1-0.2h0.1c0.2-0.1,0.3-0.1,0.5-0.1c0.3-0.1,0.6-0.2,0.9-0.2c0.3-0.1,0.6-0.2,1-0.3
							c0.3-0.1,0.7,0.1,0.9,0.4l8.3,14.3l23.2-13.5l-8.3-14.3c-0.2-0.3-0.2-0.7,0.2-1l3.4-3.4c0.2-0.2,0.6-0.3,1-0.2l14.2,8.4
							l13.6-23.1l-14.2-8.4c-0.3-0.2-0.5-0.6-0.3-1c0.2-0.8,0.5-1.7,0.8-2.7l0.7-2.9c0.1-0.3,0.4-0.6,0.8-0.6h16.5v-26.8h-16.5
							c-0.4,0-0.7-0.2-0.8-0.6v-0.1c-0.2-0.6-0.3-1.2-0.5-1.9c-0.1-0.2-0.2-0.6-0.2-1v-0.1c-0.1-0.2-0.1-0.3-0.1-0.5
							c-0.1-0.3-0.2-0.6-0.2-0.9c-0.1-0.3-0.2-0.6-0.3-1c-0.1-0.3,0.1-0.7,0.4-0.9l14.3-8.3l-13.5-23.2l-14.3,8.3
							c-0.3,0.2-0.7,0.2-1-0.2l-0.5-0.5c-0.2-0.2-0.5-0.5-0.7-0.8l-2.2-2.2c-0.2-0.2-0.3-0.6-0.2-1l8.4-14.2l-23.1-13.6l-8.4,14.2
							c-0.2,0.3-0.6,0.5-1,0.3c-1-0.3-2-0.6-2.7-0.8l-2.9-0.7c-0.3-0.1-0.6-0.4-0.6-0.8v-16.6h-13.4c-0.5,0-0.8-0.3-0.8-0.8
							s0.3-0.8,0.8-0.8h14.2c0.5,0,0.8,0.3,0.8,0.8v16.8l2.3,0.6c0.6,0.2,1.5,0.3,2.3,0.6l8.5-14.3c0.2-0.4,0.7-0.5,1.1-0.3
							l24.5,14.4c0.2,0.1,0.3,0.3,0.4,0.5s0,0.4-0.1,0.6l-8.5,14.3l1.8,1.8l0.1,0.1c0.2,0.2,0.4,0.5,0.6,0.7l0.1,0.1l14.4-8.4
							c0.2-0.1,0.4-0.2,0.6-0.1s0.4,0.2,0.5,0.4l14.3,24.6c0.2,0.4,0.1,0.9-0.3,1.1l-14.4,8.4c0,0.1,0.1,0.2,0.1,0.3
							c0.1,0.3,0.2,0.6,0.3,1c0,0.1,0,0.2,0,0.2v0.1c0.1,0.2,0.2,0.4,0.2,0.6c0,0.1,0.1,0.3,0.1,0.5v0.1c0.1,0.5,0.2,1,0.3,1.4h16.7
							c0.5,0,0.8,0.3,0.8,0.8v28.5c0,0.5-0.3,0.8-0.8,0.8h-16.7l-0.6,2.3c-0.2,0.9-0.4,1.6-0.6,2.3l14.3,8.5
							c0.4,0.2,0.5,0.7,0.3,1.1l-14.4,24.5c-0.1,0.2-0.3,0.3-0.5,0.4c-0.2,0.1-0.4,0-0.6-0.1l-14.3-8.5l-2.5,2.5l8.4,14.4
							c0.1,0.2,0.2,0.4,0.1,0.6c-0.1,0.2-0.2,0.4-0.4,0.5l-24.6,14.3c-0.4,0.2-0.9,0.1-1.1-0.3l-8.4-14.4c-0.1,0-0.2,0.1-0.3,0.1
							c-0.3,0.1-0.6,0.2-1,0.3c-0.1,0-0.2,0-0.2,0h-0.1c-0.2,0.1-0.4,0.2-0.6,0.2c-0.1,0-0.3,0.1-0.5,0.1h-0.1
							c-0.5,0.1-1,0.2-1.4,0.3v16.7C-1253.2-3318.6-1253.5-3318.3-1254-3318.3z"/>
					</g>
					<g id="Path_607-2">
						<path style="&st0;" d="M-1268.2-3351.3c-0.5,0-0.8-0.3-0.8-0.8s0.3-0.8,0.8-0.8c26,0,47.1-21.1,47.1-47.1
							s-21.1-47.1-47.1-47.1c-0.5,0-0.8-0.3-0.8-0.8s0.3-0.8,0.8-0.8c26.8,0,48.7,21.8,48.7,48.7S-1241.4-3351.3-1268.2-3351.3z"/>
					</g>
				</g>
			</g>
		</g>
	</g>
</g>
<path style="&st1;" d="M254.3,155.5l-18.8-32.2c-0.2-0.4-0.6-0.6-0.9-0.9c-1.1-0.6-2.7-0.2-3.3,0.9l-18.8,32.2
	c-0.2,0.4-0.3,0.8-0.3,1.2c0,1.4,1,2.4,2.4,2.4h37.6c0.4,0,0.8-0.1,1.2-0.3C254.5,158.2,254.9,156.7,254.3,155.5z M235.8,133.7
	l-0.6,13.4H232l-0.6-13.4H235.8z M233.6,153.8c-1.3,0-2.4-1.1-2.4-2.4s1-2.4,2.4-2.4s2.4,1.1,2.4,2.4S234.9,153.8,233.6,153.8z"/>
<g>
	<path style="&st0;" d="M232.6,107.6c-20.7,0-37.5,16.8-37.5,37.5c0,5.2,1,10.1,3,14.6l-12.3,7.7l-3-4.8l-38.4,23.9l10.4,16.7
		l38.4-23.9l-2.8-4.4l12-7.5c6.9,9.3,17.8,15.2,30.1,15.2c20.7,0,37.5-16.8,37.5-37.5C270.1,124.3,253.3,107.6,232.6,107.6z
		 M232.6,179.3c-18.9,0-34.3-15.4-34.3-34.3s15.4-34.3,34.3-34.3s34.3,15.4,34.3,34.3S251.5,179.3,232.6,179.3z"/>
	
		<rect x="140.1" y="188.9" transform="matrix(0.848 -0.53 0.53 0.848 -83.5594 106.2009)" style="&st0;" width="6.5" height="19.7"/>
</g>
</svg>
