<svg id="Layer_1" data-name="Layer 1" xmlns="http://www.w3.org/2000/svg" viewBox="0 0 450 250"><defs><style>.cls-1,.cls-3{fill:#e0e0e0;}.cls-2{fill:#fa7268;}.cls-3,.cls-5{stroke:#e0e0e0;stroke-miterlimit:10;}.cls-3{stroke-width:0.5px;}.cls-4{fill:#63f0a3;}.cls-5{fill:none;stroke-width:2px;stroke-dasharray:7;}</style></defs><g id="Group_1565" data-name="Group 1565"><g id="Group_1558" data-name="Group 1558"><g id="Group_1554" data-name="Group 1554"><g id="Group_1551" data-name="Group 1551"><g id="Path_607" data-name="Path 607"><path class="cls-1" d="M157.55,171.4a.73.73,0,0,1,.73.73.69.69,0,0,1-.73.72h0"/></g></g><g id="Group_1553" data-name="Group 1553"><g id="Group_1550" data-name="Group 1550"><g id="Path_606-2" data-name="Path 606-2"><path class="cls-1" d="M170.68,202.68h-12.8a.73.73,0,0,1,0-1.46H170V186.31a.72.72,0,0,1,.58-.73c.66-.14,1.17-.29,1.82-.43a2.79,2.79,0,0,1,.87-.15h.08a.93.93,0,0,1,.43-.07l.8-.22c.29-.07.59-.22.95-.29a.74.74,0,0,1,.8.36l7.49,12.88,20.95-12.15-7.49-12.87a.67.67,0,0,1,.15-.88l3.05-3a.78.78,0,0,1,.87-.15l12.81,7.57,12.29-20.88-12.8-7.56a.68.68,0,0,1-.29-.88c.21-.72.43-1.52.72-2.47l.66-2.62a.78.78,0,0,1,.73-.58h14.91V116.92H215.42a.71.71,0,0,1-.73-.59v-.07c-.15-.58-.29-1.09-.44-1.74a2.83,2.83,0,0,1-.14-.88v-.07a.86.86,0,0,1-.08-.44c-.07-.29-.14-.51-.22-.8s-.21-.58-.29-.94a.74.74,0,0,1,.37-.8l12.87-7.5-12.15-21-12.87,7.5a.68.68,0,0,1-.87-.15l-.44-.43a5.9,5.9,0,0,1-.65-.73l-2-2a.76.76,0,0,1-.14-.87l7.56-12.8-20.88-12.3L176.79,73.2a.68.68,0,0,1-.87.29c-.95-.29-1.82-.51-2.48-.73l-2.62-.65a.8.8,0,0,1-.58-.73v-15H158.17a.73.73,0,1,1,0-1.45H171a.69.69,0,0,1,.73.73V70.8l2,.51a14.11,14.11,0,0,1,2,.58l7.64-13a.8.8,0,0,1,1-.29l22.11,13a1,1,0,0,1,.36.44c.08.14,0,.36-.07.58l-7.64,13,1.6,1.6.08.07c.22.22.36.44.58.65l.07.08,13-7.57a.8.8,0,0,1,.58-.07c.22.07.37.14.44.36L228.44,103a.75.75,0,0,1-.29,1l-13,7.56c0,.08.08.22.08.29.07.29.22.59.29,1V113a1.38,1.38,0,0,1,.14.58c0,.07.08.29.08.44v.07c.07.44.21.87.29,1.24h15.05a.69.69,0,0,1,.73.72v25.68a.69.69,0,0,1-.73.73H216l-.51,2c-.22.8-.37,1.45-.58,2l12.94,7.64a.81.81,0,0,1,.3,1l-13,22.11a1.11,1.11,0,0,1-.43.37.79.79,0,0,1-.58-.08l-13-7.63-2.26,2.25,7.57,13a.8.8,0,0,1,.07.58c-.07.22-.14.37-.36.44L184,199.11a.73.73,0,0,1-1-.29l-7.56-13c-.08,0-.22.08-.29.08-.3.07-.59.21-1,.29H174a1.38,1.38,0,0,1-.58.14c-.07,0-.29.08-.44.08h-.07c-.44.07-.87.21-1.24.29v15C171.41,202.39,171.12,202.68,170.68,202.68Z"/></g><g id="Path_607-2" data-name="Path 607-2"><path class="cls-1" d="M157.88,172.85a.73.73,0,1,1,0-1.45,42.48,42.48,0,1,0,0-85,.73.73,0,0,1,0-1.46,43.94,43.94,0,0,1,0,87.87Z"/></g></g></g></g></g></g><g id="Group_1565-2" data-name="Group 1565"><g id="Group_1558-2" data-name="Group 1558"><g id="Group_1554-2" data-name="Group 1554"><g id="Group_1551-2" data-name="Group 1551"><g id="Path_607-2-2" data-name="Path 607"><path class="cls-1" d="M157.72,86.22a.73.73,0,0,1-.73-.73.69.69,0,0,1,.73-.73h0"/></g></g><g id="Group_1553-2" data-name="Group 1553"><g id="Group_1550-2" data-name="Group 1550"><g id="Path_606-2-2" data-name="Path 606-2"><path class="cls-1" d="M144.6,54.94h12.8a.73.73,0,1,1,0,1.45H145.32V71.31a.7.7,0,0,1-.58.72l-1.82.44a2.79,2.79,0,0,1-.87.15H142a1,1,0,0,1-.44.07l-.8.22c-.29.07-.58.21-1,.29a.74.74,0,0,1-.8-.37L131.5,60l-21,12.15L118,85a.66.66,0,0,1-.14.87l-3.06,3.06a.77.77,0,0,1-.87.15l-12.8-7.57L88.88,102.37l12.8,7.56a.69.69,0,0,1,.29.88c-.22.72-.44,1.52-.73,2.47l-.65,2.62a.8.8,0,0,1-.73.58H85V140.7H99.86a.72.72,0,0,1,.73.58v.08c.14.58.29,1.09.43,1.74a2.54,2.54,0,0,1,.15.88v.07a1,1,0,0,1,.07.44c.07.29.15.5.22.8s.22.58.29.94a.73.73,0,0,1-.36.8l-12.88,7.49,12.15,20.95L113.53,168a.69.69,0,0,1,.88.15l.43.43a6.87,6.87,0,0,1,.66.73l2,2a.79.79,0,0,1,.15.88L110,184.93l20.88,12.29,7.57-12.8a.66.66,0,0,1,.87-.29c.94.29,1.82.51,2.47.73l2.62.65a.79.79,0,0,1,.58.73v15h12.08a.73.73,0,0,1,0,1.46H144.3a.69.69,0,0,1-.72-.73V186.82l-2-.51a14.48,14.48,0,0,1-2-.58l-7.63,13a.82.82,0,0,1-1,.29l-22.12-13a1,1,0,0,1-.36-.44.89.89,0,0,1,.07-.58l7.64-13-1.6-1.6-.07-.07c-.22-.22-.37-.44-.58-.66l-.08-.07-13,7.57a.79.79,0,0,1-.58.07.58.58,0,0,1-.44-.36L86.84,154.67a.74.74,0,0,1,.29-1l13-7.56c0-.08-.07-.22-.07-.3-.08-.29-.22-.58-.29-.94v-.22a1.24,1.24,0,0,1-.15-.58c0-.07-.07-.29-.07-.44v-.07c-.07-.44-.22-.87-.29-1.24H84.22a.69.69,0,0,1-.73-.72V115.9a.69.69,0,0,1,.73-.73H99.28l.51-2a21.11,21.11,0,0,1,.58-2l-13-7.64a.81.81,0,0,1-.29-1l13-22.11a1.07,1.07,0,0,1,.44-.37.8.8,0,0,1,.58.08l13,7.63,2.25-2.25-7.56-13a.76.76,0,0,1-.08-.58c.08-.22.15-.37.37-.44L131.28,58.5a.75.75,0,0,1,1,.29l7.57,13c.07,0,.22-.08.29-.08.29-.07.58-.22.94-.29h.22a1.46,1.46,0,0,1,.58-.14c.08,0,.3-.08.44-.08h.07c.44-.07.88-.21,1.24-.29V55.88C143.87,55.23,144.16,54.94,144.6,54.94Z"/></g><g id="Path_607-2-3" data-name="Path 607-2"><path class="cls-1" d="M157.4,84.76a.73.73,0,0,1,0,1.46,42.48,42.48,0,1,0,0,85,.73.73,0,0,1,0,1.46,43.94,43.94,0,0,1,0-87.88Z"/></g></g></g></g></g></g><circle class="cls-2" cx="158.01" cy="128.43" r="21.84"/><g id="Group_1565-3" data-name="Group 1565"><g id="Group_1558-3" data-name="Group 1558"><g id="Group_1554-3" data-name="Group 1554"><g id="Group_1551-3" data-name="Group 1551"><g id="Path_607-3" data-name="Path 607"><path class="cls-3" d="M288.87,130.63a.54.54,0,0,1,.55.52.5.5,0,0,1-.53.55h0"/></g></g><g id="Group_1553-3" data-name="Group 1553"><g id="Group_1550-3" data-name="Group 1550"><g id="Path_606-2-3" data-name="Path 606-2"><path class="cls-3" d="M299.08,153.59l-9.48.2a.5.5,0,0,1-.55-.53.51.51,0,0,1,.52-.55l8.95-.18-.23-11.05a.52.52,0,0,1,.42-.55l1.34-.35a1.78,1.78,0,0,1,.64-.12h.05a.65.65,0,0,1,.33-.06l.59-.18c.21-.06.42-.17.69-.23a.54.54,0,0,1,.6.26l5.75,9.42L324,140.34l-5.75-9.42a.51.51,0,0,1,.09-.65l2.22-2.31a.58.58,0,0,1,.64-.12l9.61,5.41,8.78-15.66-9.61-5.4a.5.5,0,0,1-.22-.65c.15-.54.3-1.13.5-1.84l.44-2a.57.57,0,0,1,.53-.44l11.05-.23-.38-18-11.05.23a.52.52,0,0,1-.55-.42v0c-.11-.43-.23-.8-.35-1.29a2.35,2.35,0,0,1-.12-.64v0a.65.65,0,0,1-.06-.33c-.06-.21-.12-.37-.17-.59a6.18,6.18,0,0,1-.23-.69.54.54,0,0,1,.25-.6L339.07,79l-9.32-15.33-9.42,5.75a.5.5,0,0,1-.65-.09l-.33-.32a5.16,5.16,0,0,1-.5-.53L317.37,67a.58.58,0,0,1-.13-.65l5.41-9.6L307,48l-5.4,9.6a.5.5,0,0,1-.64.23c-.71-.2-1.36-.35-1.85-.5l-2-.44a.59.59,0,0,1-.44-.53l-.23-11.1-9,.18a.54.54,0,1,1,0-1.07l9.48-.2a.5.5,0,0,1,.55.52l.24,11.21,1.52.35a10.38,10.38,0,0,1,1.51.4l5.46-9.71a.58.58,0,0,1,.75-.23L323.6,56a.84.84,0,0,1,.28.31.64.64,0,0,1,0,.44l-5.46,9.71,1.21,1.16.05,0c.17.16.28.32.45.48l.05,0,9.53-5.81a.6.6,0,0,1,.43-.06.42.42,0,0,1,.33.26l9.88,16.24a.53.53,0,0,1-.2.75l-9.53,5.81c0,.06.06.16.06.22.06.21.17.42.23.69v.16a1.09,1.09,0,0,1,.11.43c0,.06.06.22.06.32v.06c.06.32.18.64.24.91l11.15-.23a.5.5,0,0,1,.55.52l.4,19a.5.5,0,0,1-.52.55l-11.16.24-.34,1.52c-.15.59-.25,1.08-.4,1.51l9.71,5.46a.6.6,0,0,1,.23.75l-9.3,16.58a.8.8,0,0,1-.32.28.55.55,0,0,1-.43-.05l-9.71-5.45-1.64,1.7,5.81,9.53a.56.56,0,0,1,.06.43.42.42,0,0,1-.26.33l-16.24,9.88a.53.53,0,0,1-.75-.2L302.32,141c-.05,0-.16,0-.22.06-.21,0-.42.17-.69.23h-.16a1.09,1.09,0,0,1-.43.12c-.06,0-.22,0-.32.06h-.06c-.32.06-.64.17-.91.23l.24,11.16C299.61,153.36,299.4,153.58,299.08,153.59Z"/></g><g id="Path_607-2-4" data-name="Path 607-2"><path class="cls-3" d="M289.13,131.7a.54.54,0,1,1,0-1.08,31.48,31.48,0,1,0-1.33-62.94.54.54,0,1,1,0-1.07,32.55,32.55,0,1,1,1.37,65.09Z"/></g></g></g></g></g></g><g id="Group_1565-4" data-name="Group 1565"><g id="Group_1558-4" data-name="Group 1558"><g id="Group_1554-4" data-name="Group 1554"><g id="Group_1551-4" data-name="Group 1551"><g id="Path_607-4" data-name="Path 607"><path class="cls-3" d="M287.67,67.52a.52.52,0,0,1-.55-.52.5.5,0,0,1,.52-.55h0"/></g></g><g id="Group_1553-4" data-name="Group 1553"><g id="Group_1550-4" data-name="Group 1550"><g id="Path_606-2-4" data-name="Path 606-2"><path class="cls-3" d="M277.46,44.56l9.48-.2a.54.54,0,1,1,0,1.08l-8.94.18.23,11.05a.52.52,0,0,1-.42.55l-1.34.35a1.78,1.78,0,0,1-.64.12h-.06a.59.59,0,0,1-.32.06l-.59.18c-.21.06-.43.17-.7.23a.54.54,0,0,1-.59-.26l-5.75-9.42L252.51,57.8l5.75,9.43a.49.49,0,0,1-.1.64L256,70.19a.6.6,0,0,1-.65.12l-9.6-5.41-8.78,15.66,9.6,5.4a.51.51,0,0,1,.23.65c-.15.54-.3,1.13-.5,1.84l-.44,2a.57.57,0,0,1-.53.44l-11.05.23.38,18,11-.24a.54.54,0,0,1,.55.42v.06c.12.43.23.8.35,1.29a1.78,1.78,0,0,1,.12.64v0a1,1,0,0,1,.06.33c0,.21.11.37.17.58s.17.43.23.7a.53.53,0,0,1-.26.6l-9.42,5.75,9.33,15.33,9.42-5.75a.51.51,0,0,1,.65.09l.33.32a5.12,5.12,0,0,1,.49.53l1.49,1.42a.6.6,0,0,1,.12.65l-5.4,9.6,15.65,8.78,5.41-9.6a.5.5,0,0,1,.64-.23c.7.2,1.35.35,1.84.5l1.95.44a.59.59,0,0,1,.45.53l.23,11.1,8.94-.18a.54.54,0,0,1,0,1.07l-9.49.2a.51.51,0,0,1-.55-.52l-.23-11.21-1.52-.35a10.82,10.82,0,0,1-1.52-.4l-5.45,9.71a.58.58,0,0,1-.75.23l-16.59-9.3a.74.74,0,0,1-.27-.31.64.64,0,0,1,0-.44l5.46-9.71L257,130.54l-.06,0c-.16-.16-.27-.32-.44-.48l-.05,0-9.53,5.81a.61.61,0,0,1-.43.06c-.17-.05-.27-.1-.33-.26l-9.88-16.24a.55.55,0,0,1,.19-.76l9.53-5.8a1.8,1.8,0,0,0-.06-.22c0-.21-.17-.42-.23-.69v-.16a1.09,1.09,0,0,1-.12-.43c0-.06,0-.22-.06-.32v-.06c-.06-.32-.17-.64-.23-.91l-11.16.23a.51.51,0,0,1-.55-.52l-.4-19a.51.51,0,0,1,.53-.55l11.15-.24.35-1.52c.15-.59.25-1.08.4-1.51l-9.71-5.46a.59.59,0,0,1-.23-.75l9.3-16.58a.8.8,0,0,1,.32-.28.59.59,0,0,1,.43,0l9.71,5.46,1.63-1.7-5.8-9.53a.56.56,0,0,1-.07-.43.42.42,0,0,1,.27-.33l16.23-9.88a.54.54,0,0,1,.76.2l5.81,9.52a1.66,1.66,0,0,0,.21-.06c.22,0,.43-.17.7-.23h.16a1.09,1.09,0,0,1,.43-.12s.21,0,.32-.06h0c.33-.06.65-.17.91-.23l-.23-11.16C276.92,44.78,277.13,44.56,277.46,44.56Z"/></g><g id="Path_607-2-5" data-name="Path 607-2"><path class="cls-3" d="M287.4,66.45a.54.54,0,0,1,0,1.08,31.48,31.48,0,1,0,1.32,62.94.51.51,0,0,1,.55.52.5.5,0,0,1-.53.55,32.55,32.55,0,0,1-1.37-65.09Z"/></g></g></g></g></g></g><circle class="cls-4" cx="288.27" cy="99.07" r="16.18"/><path class="cls-5" d="M312.62,167.2a72.18,72.18,0,0,0-21-139.95,44.33,44.33,0,0,0-7.19.24L132.24,44.27a71,71,0,0,0-46.12,23.9,94.16,94.16,0,0,0,50.73,153.25,59,59,0,0,0,33-2.24Z"/></svg>