<svg id="Layer_1" data-name="Layer 1" xmlns="http://www.w3.org/2000/svg" viewBox="0 0 450 280"><defs><style>.cls-1{fill:none;stroke-width:3px;}.cls-1,.cls-3{stroke:#e0e0e0;stroke-miterlimit:10;}.cls-2{fill:#62f0a3;}.cls-3{fill:#e0e0e0;}.cls-4{fill:#63f0a3;}</style></defs><g id="Group_1606" data-name="Group 1606"><g id="Group_1604" data-name="Group 1604"><g id="Group_1563" data-name="Group 1563"><g id="Group_1562" data-name="Group 1562"><g id="Group_1561" data-name="Group 1561"><path id="Path_1319" data-name="Path 1319" class="cls-1" d="M130.85,186.2V112.5s4-47.9,55.8-47.2,55.2,50.6,55.2,50.6l13,32.6s3.7,7.8-4.7,7.8-8.4-.4-8.4,2.6v23"/><path id="Path_1320" data-name="Path 1320" class="cls-1" d="M318,143.9V70.2S314,22.3,262.2,23,207,73.6,207,73.6l-13.1,32.6s-3.7,7.8,4.7,7.8,8.4-.4,8.4,2.6v23s.3,17.2,19.1,16.9"/><path id="Path_1320-2" data-name="Path 1320-2" class="cls-1" d="M88,156.51V130.6s2.5-29.9,34.9-29.5,34.5,31.6,34.5,31.6l8.2,20.4s2.3,4.9-2.9,4.8-5.3-.3-5.2,1.6,0,14.4,0,14.4-.2,10.8-11.9,10.6"/></g><path id="Path_1320-3" data-name="Path 1320-3" class="cls-1" d="M362.4,132.68V88.5S359.9,58.6,327.5,59,293,90.6,293,90.6L284.8,111s-2.3,4.9,2.9,4.8,5.3-.3,5.2,1.6v14.4s.2,10.8,11.9,10.6"/></g><circle id="Ellipse_79" data-name="Ellipse 79" class="cls-2" cx="87.5" cy="176" r="6.4"/><circle id="Ellipse_81" data-name="Ellipse 81" class="cls-2" cx="225.1" cy="156" r="6.4"/><circle id="Ellipse_82" data-name="Ellipse 82" class="cls-2" cx="145.5" cy="184.4" r="4.4"/><circle id="Ellipse_85" data-name="Ellipse 85" class="cls-2" cx="304.5" cy="142.4" r="4.4"/></g></g></g><path class="cls-3" d="M390.65,144.45h-5.8a3.15,3.15,0,0,0-.11-.47h0v-.17a.41.41,0,0,0,0-.22v-.09c0-.14-.09-.25-.11-.36s0-.09,0-.11l5-2.91a.29.29,0,0,0,.11-.4l-4.95-8.53c0-.09-.09-.11-.17-.14a.31.31,0,0,0-.23,0l-5,2.91h0c-.09-.09-.14-.17-.23-.25h0l-.62-.62,2.94-5a.41.41,0,0,0,0-.22.39.39,0,0,0-.14-.17l-8.51-5a.3.3,0,0,0-.39.11l-2.94,5a7.1,7.1,0,0,0-.79-.22l-.78-.2V121.5a.27.27,0,0,0-.24-.28H362.6a.2.2,0,0,0-.14.06.28.28,0,0,0-.15-.06h-4.93c-.17,0-.28.11-.36.37v5.79l-.48.11h-.16a.46.46,0,0,0-.23.06H356l-.37.11h-.11l-2.91-5a.3.3,0,0,0-.39-.12l-8.54,5a.22.22,0,0,0-.14.17.28.28,0,0,0,0,.22l2.91,5-.86.87-5-2.94a.28.28,0,0,0-.22,0,.39.39,0,0,0-.17.14l-5,8.51a.3.3,0,0,0,.11.39l5,2.94c-.09.22-.14.47-.23.78l-.19.79h-5.8a.27.27,0,0,0-.28.24v9.92a.27.27,0,0,0,.26.28H340a3.46,3.46,0,0,0,.11.47h0v.17a.54.54,0,0,0,.05.22v.09c0,.14.09.25.11.36s0,.08,0,.11l-5,2.91a.28.28,0,0,0-.11.39l4.95,8.54a.24.24,0,0,0,.17.14.31.31,0,0,0,.23,0l5-2.91h0c.09.08.14.17.23.25h0l.62.62-2.94,5a.41.41,0,0,0,0,.22.39.39,0,0,0,.14.17l8.51,5a.3.3,0,0,0,.39-.11l2.94-5a7.1,7.1,0,0,0,.79.22l.78.19v5.83a.27.27,0,0,0,.26.28h4.95a.2.2,0,0,0,.14-.06.28.28,0,0,0,.15.06h4.93c.17,0,.28-.12.36-.37v-5.79l.48-.11h.16a.46.46,0,0,0,.23-.06h.08l.37-.11h.11l2.91,5a.28.28,0,0,0,.36.13l0,0,8.54-5a.22.22,0,0,0,.14-.17.28.28,0,0,0,0-.22l-2.91-5,.87-.87,5,2.94a.28.28,0,0,0,.22,0,.39.39,0,0,0,.17-.14l5-8.51a.3.3,0,0,0-.11-.39l-5-2.94c.09-.22.14-.48.23-.78l.19-.79h5.8a.27.27,0,0,0,.28-.24V144.7A.26.26,0,0,0,390.65,144.45Zm-28.16,22.14h-.12v-.05h-.08a16.91,16.91,0,0,1,0-33.81h.2a16.91,16.91,0,0,1,0,33.81Z"/><circle class="cls-4" cx="362.4" cy="149.64" r="8.4"/><path class="cls-3" d="M115.75,170.81H110a3.15,3.15,0,0,0-.11-.47h0v-.17a.41.41,0,0,0,0-.22v-.09c0-.14-.09-.25-.11-.36s0-.09,0-.11l5-2.91a.29.29,0,0,0,.11-.4l-5-8.53c0-.09-.09-.11-.17-.14a.31.31,0,0,0-.23,0l-5,2.91h0c-.09-.09-.14-.17-.23-.25h0l-.62-.62,2.94-5a.41.41,0,0,0,0-.22.39.39,0,0,0-.14-.17l-8.51-5a.3.3,0,0,0-.39.11l-2.94,5a5.45,5.45,0,0,0-.79-.22l-.78-.2v-5.82a.27.27,0,0,0-.24-.28H87.7a.2.2,0,0,0-.14.06.28.28,0,0,0-.15-.06H82.48c-.17,0-.28.11-.36.37v5.79l-.48.11h-.16a.59.59,0,0,0-.23.05h-.08a1.46,1.46,0,0,0-.37.12h-.11l-2.91-5a.3.3,0,0,0-.39-.12l-8.54,5a.25.25,0,0,0-.14.16.31.31,0,0,0,0,.23l2.91,5-.86.87-5-2.94a.28.28,0,0,0-.22,0,.39.39,0,0,0-.17.14l-5,8.51a.3.3,0,0,0,.11.39l5,2.94c-.09.22-.14.47-.23.78l-.19.79h-5.8A.26.26,0,0,0,59,171v9.88a.27.27,0,0,0,.26.28h5.82a3.46,3.46,0,0,0,.11.47h0v.17a.41.41,0,0,0,0,.22v.09c0,.14.09.25.11.36s0,.08,0,.11l-5,2.91a.28.28,0,0,0-.11.39l5,8.54a.24.24,0,0,0,.17.14.31.31,0,0,0,.23,0l5-2.91h0c.09.08.14.17.23.25h0l.62.61-2.94,5a.41.41,0,0,0,0,.22.39.39,0,0,0,.14.17l8.51,5a.3.3,0,0,0,.39-.11l2.94-5a5.48,5.48,0,0,0,.79.23l.78.19V204a.27.27,0,0,0,.26.28h5a.2.2,0,0,0,.14-.06.28.28,0,0,0,.15.06h4.93c.17,0,.28-.12.36-.37v-5.79l.48-.11h.16a.46.46,0,0,0,.23-.06h.08a1.45,1.45,0,0,0,.37-.11h.11l2.91,5a.28.28,0,0,0,.36.13l0,0,8.54-5a.22.22,0,0,0,.14-.17.28.28,0,0,0,0-.22l-2.91-5,.86-.87,5,2.94a.28.28,0,0,0,.22,0,.39.39,0,0,0,.17-.14l5-8.51a.3.3,0,0,0-.11-.39l-5-2.94c.09-.22.14-.48.23-.78l.19-.79h5.8A.25.25,0,0,0,116,181v-9.88a.26.26,0,0,0-.21-.31ZM87.59,193h-.2a16.91,16.91,0,0,1,0-33.81h.2a16.91,16.91,0,0,1,0,33.81Z"/><circle class="cls-4" cx="87.5" cy="176" r="8.4"/><path class="cls-3" d="M270.2,193.81h-5.79a3.25,3.25,0,0,0-.12-.47h0v-.17a.43.43,0,0,0-.06-.22v-.09a1.27,1.27,0,0,0-.11-.36c0-.11,0-.09,0-.11l5-2.91a.28.28,0,0,0,.11-.39h0l-5-8.53c0-.09-.09-.11-.17-.14a.28.28,0,0,0-.22,0l-5,2.91h0c-.09-.09-.14-.17-.23-.25h0l-.62-.62,2.94-5c0-.08.06-.17,0-.22a.39.39,0,0,0-.14-.17l-8.51-5a.3.3,0,0,0-.39.11l-2.94,5a5.45,5.45,0,0,0-.79-.22l-.78-.2v-5.82a.27.27,0,0,0-.24-.28h-5a.2.2,0,0,0-.14.06.28.28,0,0,0-.15-.06H237c-.16,0-.28.11-.36.37v5.79l-.48.11H236a.59.59,0,0,0-.23.05h-.08a1.27,1.27,0,0,0-.36.12h-.12l-2.91-5a.3.3,0,0,0-.39-.12l-8.54,5a.25.25,0,0,0-.14.16.31.31,0,0,0,0,.23l2.91,5-.86.87-5-2.94a.28.28,0,0,0-.22,0,.39.39,0,0,0-.17.14l-5,8.51a.3.3,0,0,0,.11.39l5,2.94c-.09.22-.14.47-.23.78l-.19.79h-5.8a.27.27,0,0,0-.28.26V204a.27.27,0,0,0,.26.28h5.82a3.46,3.46,0,0,0,.11.47h0v.17a.54.54,0,0,0,0,.22v.09c0,.14.09.25.11.36s0,.08,0,.11l-5,2.91a.28.28,0,0,0-.11.39l5,8.54a.24.24,0,0,0,.17.14.31.31,0,0,0,.23,0l5-2.91h0c.09.08.14.17.23.25h0l.61.61-2.94,5c0,.08,0,.16,0,.22a.37.37,0,0,0,.13.17l8.51,5a.33.33,0,0,0,.4-.11l2.93-5a5.48,5.48,0,0,0,.79.23l.78.19v5.83a.27.27,0,0,0,.26.28h4.95a.28.28,0,0,0,.15-.06.2.2,0,0,0,.14.06h5c.17,0,.28-.12.36-.37v-5.79l.48-.11H248a.46.46,0,0,0,.23-.06h.08a1.45,1.45,0,0,0,.37-.11h.11l2.91,5a.28.28,0,0,0,.36.13l0,0,8.54-5a.22.22,0,0,0,.14-.17.28.28,0,0,0,0-.22l-2.91-5,.87-.87,5,2.94a.28.28,0,0,0,.22,0,.39.39,0,0,0,.17-.14l5-8.51a.3.3,0,0,0-.11-.39l-5-2.94c.08-.22.14-.48.22-.78l.2-.79h5.79a.27.27,0,0,0,.28-.24v-9.92a.25.25,0,0,0-.25-.27ZM242,216h-.2a16.91,16.91,0,0,1,0-33.81H242A16.91,16.91,0,0,1,242,216Z"/><circle class="cls-4" cx="241.95" cy="199" r="8.4"/></svg>