<svg id="Layer_1" data-name="Layer 1" xmlns="http://www.w3.org/2000/svg" viewBox="0 0 450 250"><defs><style>.cls-1,.cls-3,.cls-5{fill:none;stroke:#e0e0e0;}.cls-1,.cls-5{stroke-miterlimit:10;}.cls-1,.cls-3{stroke-width:2px;}.cls-2{fill:#63f0a3;}.cls-3{stroke-linecap:round;stroke-linejoin:round;}.cls-4{opacity:0.5;}</style></defs><polygon class="cls-1" points="317.77 178.56 317.77 71.44 225 17.88 132.23 71.44 132.23 178.56 225 232.13 317.77 178.56"/><polyline class="cls-1" points="261.55 146 297.87 166.51 297.29 125.68 190.32 63.47 225.97 42.89 243.96 53.42"/><polyline class="cls-1" points="190.32 104.42 154.07 83.49 153.49 125 204.76 153.97 261.45 187.27 225.97 208.03 208.9 198.17"/><circle class="cls-2" cx="192.05" cy="188.2" r="4.7"/><circle class="cls-2" cx="174.14" cy="177.78" r="4.7"/><circle class="cls-2" cx="156.23" cy="167.36" r="4.7"/><circle class="cls-2" cx="293.79" cy="82.34" r="4.7"/><circle class="cls-2" cx="275.88" cy="71.92" r="4.7"/><circle class="cls-2" cx="257.97" cy="61.5" r="4.7"/><polygon class="cls-3" points="247.74 138.13 247.74 111.87 225 98.74 202.26 111.87 202.26 138.13 225 151.26 247.74 138.13"/><line class="cls-3" x1="225" y1="125" x2="247.74" y2="111.87"/><line class="cls-3" x1="225" y1="125" x2="202.26" y2="111.87"/><line class="cls-3" x1="225" y1="151.26" x2="225" y2="125"/><polygon class="cls-1" points="412.43 111.54 412.43 65.3 372.39 42.18 332.34 65.3 332.34 111.54 372.39 134.66 412.43 111.54"/><g class="cls-4"><line class="cls-5" x1="372.39" y1="11.21" x2="372.39" y2="35.21"/><line class="cls-5" x1="362.37" y1="16.68" x2="362.37" y2="40.68"/><line class="cls-5" x1="352.36" y1="22.15" x2="352.36" y2="46.15"/><line class="cls-5" x1="342.35" y1="27.61" x2="342.35" y2="51.61"/><line class="cls-5" x1="332.34" y1="33.08" x2="332.34" y2="57.08"/><line class="cls-5" x1="382.4" y1="16.68" x2="382.4" y2="40.68"/><line class="cls-5" x1="392.41" y1="22.15" x2="392.41" y2="46.15"/><line class="cls-5" x1="402.42" y1="27.61" x2="402.42" y2="51.61"/><line class="cls-5" x1="412.43" y1="33.08" x2="412.43" y2="57.08"/></g><polygon class="cls-1" points="37.57 138.46 37.57 184.7 77.61 207.82 117.66 184.7 117.66 138.46 77.61 115.34 37.57 138.46"/><g class="cls-4"><line class="cls-5" x1="77.61" y1="238.79" x2="77.61" y2="214.79"/><line class="cls-5" x1="87.63" y1="233.32" x2="87.63" y2="209.32"/><line class="cls-5" x1="97.64" y1="227.85" x2="97.64" y2="203.85"/><line class="cls-5" x1="107.65" y1="222.39" x2="107.65" y2="198.39"/><line class="cls-5" x1="117.66" y1="216.92" x2="117.66" y2="192.92"/><line class="cls-5" x1="67.6" y1="233.32" x2="67.6" y2="209.32"/><line class="cls-5" x1="57.59" y1="227.85" x2="57.59" y2="203.85"/><line class="cls-5" x1="47.58" y1="222.39" x2="47.58" y2="198.39"/><line class="cls-5" x1="37.57" y1="216.92" x2="37.57" y2="192.92"/></g></svg>