<?xml version="1.0" encoding="utf-8"?>
<!-- Generator: Adobe Illustrator 24.2.0, SVG Export Plug-In . SVG Version: 6.00 Build 0)  -->
<svg version="1.1" id="Layer_1" xmlns="http://www.w3.org/2000/svg" xmlns:xlink="http://www.w3.org/1999/xlink" x="0px" y="0px"
	 viewBox="0 0 450 250" style="enable-background:new 0 0 450 250;" xml:space="preserve">
<style type="text/css">
	.st0{fill:#E0E0E0;}
	.st1{fill:none;stroke:#E0E0E0;stroke-width:2;stroke-miterlimit:10;}
	.st2{fill:none;stroke:#E0E0E0;stroke-miterlimit:10;}
	.st3{opacity:0.3;fill:none;stroke:#E0E0E0;stroke-width:2;stroke-miterlimit:10;enable-background:new    ;}
	.st4{fill:#63F0A3;}
</style>
<polygon class="st0" points="225.3,145.8 269.3,119.7 224.8,94 180.8,119.4 "/>
<polygon class="st0" points="271.3,120.8 225.3,148.1 178.9,120.5 133.2,146.9 225.3,197.6 316.5,146.9 "/>
<polyline class="st1" points="212,154.1 137.1,197.3 229.1,248 320.3,197.3 246,154.4 "/>
<polygon class="st0" points="181,119 137.9,94.4 224.8,42.3 311.8,94.4 269.4,119.4 271.4,120.5 315.7,94.4 225.4,40.3 224.8,40 
	133.9,94.4 179,120.2 "/>
<line class="st2" x1="148" y1="203.4" x2="240.2" y2="151"/>
<line class="st2" x1="161.5" y1="210.8" x2="253.7" y2="158.8"/>
<line class="st2" x1="175.1" y1="218.2" x2="267.1" y2="166.6"/>
<line class="st2" x1="188.6" y1="225.7" x2="280.5" y2="174.3"/>
<line class="st2" x1="202.1" y1="233.1" x2="294" y2="182.1"/>
<line class="st2" x1="215.6" y1="240.6" x2="307.4" y2="189.9"/>
<line class="st3" x1="83.5" y1="228.5" x2="137.1" y2="197.3"/>
<circle class="st4" cx="83.5" cy="228.5" r="4.6"/>
<line class="st3" x1="366.5" y1="63.4" x2="312.9" y2="94.7"/>
<circle class="st4" cx="366.5" cy="63.4" r="4.6"/>
</svg>
