<svg id="Layer_1" data-name="Layer 1" xmlns="http://www.w3.org/2000/svg" viewBox="0 0 450 250"><defs><style>.cls-1{fill:#e0e0e0;}.cls-2,.cls-3,.cls-4{fill:none;stroke:#e0e0e0;stroke-miterlimit:10;}.cls-2,.cls-4{stroke-width:2px;}.cls-4{opacity:0.3;}.cls-5{fill:#63f0a3;}</style></defs><polygon class="cls-1" points="225.34 126.81 269.3 100.66 224.83 74.99 180.84 100.39 225.34 126.81"/><polygon class="cls-1" points="271.28 101.81 225.34 129.14 178.86 101.53 133.21 127.89 225.26 178.56 316.45 127.89 271.28 101.81"/><polyline class="cls-2" points="212.04 135.05 137.09 178.33 229.14 229 320.33 178.33 246.02 135.42"/><polygon class="cls-1" points="180.97 99.99 137.9 75.4 224.84 23.33 311.81 75.41 269.41 100.39 271.4 101.53 315.73 75.43 225.36 21.31 224.84 21 133.94 75.44 178.96 101.15 180.97 99.99"/><line class="cls-3" x1="148.03" y1="184.35" x2="240.22" y2="132.01"/><line class="cls-3" x1="161.54" y1="191.79" x2="253.66" y2="139.78"/><line class="cls-3" x1="175.06" y1="199.23" x2="267.09" y2="147.55"/><line class="cls-3" x1="188.57" y1="206.67" x2="280.53" y2="155.32"/><line class="cls-3" x1="202.09" y1="214.11" x2="293.97" y2="163.1"/><line class="cls-3" x1="215.6" y1="221.55" x2="307.41" y2="170.87"/><line class="cls-4" x1="83.51" y1="209.54" x2="137.09" y2="178.26"/><circle class="cls-5" cx="83.51" cy="209.54" r="4.63"/><line class="cls-4" x1="366.49" y1="44.39" x2="312.91" y2="75.67"/><circle class="cls-5" cx="366.49" cy="44.39" r="4.63"/></svg>