<?xml version="1.0" encoding="utf-8"?>
<!-- Generator: Adobe Illustrator 24.2.0, SVG Export Plug-In . SVG Version: 6.00 Build 0)  -->
<svg version="1.1" id="Layer_1" xmlns="http://www.w3.org/2000/svg" xmlns:xlink="http://www.w3.org/1999/xlink" x="0px" y="0px"
	 viewBox="0 0 450 280" style="enable-background:new 0 0 450 280;" xml:space="preserve">
<style type="text/css">
	.st0{fill:#E0E0E0;}
	.st1{fill:#63F0A3;}
	.st2{opacity:0.5;}
</style>
<g>
	<g>
		<g id="Group_1606_4_" transform="translate(-815.448 -3541.5)">
			<g id="Group_1604_4_">
				<g id="Group_1563_4_" transform="translate(0 -16)">
					<g id="Group_1562_4_" transform="translate(8 9)">
						<g id="Group_1561_4_" transform="translate(814.246 3550)">
							<g id="Path_1320-2_1_">
								<path class="st0" d="M59.3,225.2h-3l0-100.2c0-0.4,4-42,48.9-41.4c43.1,0.5,47.9,40.5,48.3,44l11.1,27.5
									c0.1,0.3,1.7,3.8,0,6.3c-1,1.5-2.8,2.3-5.4,2.2l-1.8,0c-1.6,0-3.1-0.1-3.7,0c0,0.2,0,0.5,0,0.6c0.1,2.6,0,18.9,0,19.6
									c0,0.2-0.5,15.9-17.2,15.9c-0.2,0-0.3,0-0.5,0l0.1-3c0.1,0,0.3,0,0.4,0c13.8,0,14.2-12.4,14.2-12.9c0-0.2,0.1-16.9,0-19.4
									c-0.1-1-0.1-2.1,0.7-2.9c1-1,2.2-1,6.1-0.9l1.8,0c1,0,2.3-0.1,2.8-0.9c0.7-1,0-3-0.3-3.5l-11.3-28l0-0.2
									c0-0.1-0.8-10.5-6.8-20.7c-8-13.6-20.9-20.6-38.6-20.8c-0.3,0-0.6,0-0.9,0c-40.8,0-44.8,36.3-45,38.6V225.2z"/>
							</g>
						</g>
					</g>
				</g>
			</g>
		</g>
		<g id="Group_1606_1_" transform="translate(-815.448 -3541.5)">
			<g id="Group_1604_1_">
				<g id="Group_1563_1_" transform="translate(0 -16)">
					<g id="Group_1562_1_" transform="translate(8 9)">
						<g id="Group_1561_1_" transform="translate(814.246 3550)">
							<g id="Path_1320-2_17_">
								<path class="st0" d="M188.8,162.7c-0.2,0-0.3,0-0.5,0l0.1-3c0.1,0,0.3,0,0.4,0c13.6,0,14.1-12.3,14.1-12.8
									c0-0.1,0.1-16.8,0-19.3c-0.1-1-0.1-2.1,0.7-2.9c0.9-1,2.2-0.9,6-0.9l1.8,0c1,0,2.3-0.1,2.8-0.9c0.6-1,0-2.9-0.3-3.5
									l-11.2-27.8l0-0.2c0-0.1-0.8-10.4-6.7-20.5c-7.9-13.5-20.8-20.4-38.2-20.6c-41.2-0.5-45.3,36-45.5,38.3v34.8h-3l0-35
									c0-0.4,4-41.6,48.5-41.1c42.7,0.5,47.6,40.1,47.9,43.7l11,27.3c0.1,0.3,1.7,3.8,0,6.3c-1,1.5-2.8,2.3-5.4,2.2l-1.8,0
									c-1.6,0-3-0.1-3.7,0c0,0.2,0,0.4,0,0.6c0.1,2.6,0,18.8,0,19.5C205.9,147.1,205.4,162.7,188.8,162.7z"/>
							</g>
						</g>
					</g>
				</g>
			</g>
		</g>
		<g id="Group_1606_3_" transform="translate(-815.448 -3541.5)">
			<g id="Group_1604_3_">
				<g id="Group_1563_3_" transform="translate(0 -16)">
					<g id="Group_1562_3_" transform="translate(8 9)">
						<g id="Group_1561_3_" transform="translate(814.246 3550)">
							<g id="Path_1320-2_19_">
								<path class="st0" d="M380,219.6h-3V101.2c-0.2-2.3-4.2-38.6-45-38.6c-0.3,0-0.6,0-0.9,0c-17.6,0.2-30.6,7.2-38.6,20.8
									c-6,10.2-6.8,20.6-6.8,20.7l0,0.2l-11.2,27.9c-0.3,0.7-1,2.6-0.3,3.6c0.5,0.8,1.8,0.9,2.8,0.9l1.8,0
									c3.8-0.1,5.1-0.1,6.1,0.9c0.8,0.8,0.7,1.9,0.7,2.9c-0.1,2.5,0,19.3,0,19.5c0,0.5,0.5,12.9,14.2,12.9c0.1,0,0.3,0,0.4,0
									l0.1,3c-0.2,0-0.3,0-0.5,0c-16.7,0-17.2-15.7-17.2-15.9c0-0.7-0.1-17.1,0-19.7c0-0.2,0-0.4,0-0.6c-0.7-0.1-2.1,0-3.7,0
									l-1.8,0c-2.6,0.1-4.4-0.7-5.4-2.2c-1.7-2.6-0.1-6,0.1-6.4l11-27.4c0.3-3.6,5.2-43.5,48.3-44c0.3,0,0.6,0,0.9,0
									c44,0,48,41,48,41.4l0,0.1V219.6z"/>
							</g>
						</g>
					</g>
				</g>
			</g>
		</g>
		<g id="Group_1606_2_" transform="translate(-815.448 -3541.5)">
			<g id="Group_1604_2_">
				<g id="Group_1563_2_" transform="translate(0 -16)">
					<g id="Group_1562_2_" transform="translate(8 9)">
						<g id="Group_1561_2_" transform="translate(814.246 3550)">
							<g id="Path_1320-2_18_">
								<path class="st0" d="M247.5,138.6c-16.6,0-17.1-15.6-17.1-15.7c0-0.7-0.1-16.9,0-19.5c0-0.2,0-0.4,0-0.6
									c-0.7-0.1-2.1,0-3.7,0l-1.8,0c-2.5,0.1-4.4-0.7-5.4-2.2c-1.6-2.5-0.1-6,0.1-6.4L230.6,67c0.3-3.6,5.2-43.2,47.9-43.7
									c0.3,0,0.6,0,0.9,0c43.7,0,47.6,40.7,47.6,41.1l0,0.1v34.9h-3V64.6c-0.2-2.3-4.2-38.3-44.6-38.3c-0.3,0-0.6,0-0.9,0
									c-17.5,0.2-30.3,7.2-38.2,20.6c-5.9,10.1-6.7,20.4-6.7,20.5l0,0.2l-11.1,27.7c-0.3,0.7-0.9,2.6-0.3,3.5
									c0.5,0.7,1.8,0.9,2.8,0.9l1.8,0c3.8-0.1,5.1-0.1,6,0.9c0.8,0.8,0.7,1.9,0.7,2.9c-0.1,2.5,0,19.1,0,19.3
									c0,0.5,0.4,13,14.5,12.8l0.1,3C247.8,138.6,247.7,138.6,247.5,138.6z"/>
							</g>
						</g>
					</g>
				</g>
			</g>
		</g>
	</g>
	<g>
		<g id="Group_1565_14_" transform="translate(1401.34 3545)">
			<g id="Group_1558_14_" transform="translate(0 0)">
				<g id="Group_1554_14_">
					<g id="Group_1551_14_">
						<g id="Path_607_14_">
							<g>
								<path class="st0" d="M-1176.1-3302.4c0.2,0,0.3,0.1,0.3,0.2c0,0.2-0.1,0.3-0.2,0.3l0,0"/>
								<path class="st0" d="M-1176.1-3301.6l0-1c0,0,0,0,0,0c0.3,0,0.5,0.2,0.5,0.5c0,0.1,0,0.3-0.1,0.4
									C-1175.8-3301.7-1176-3301.6-1176.1-3301.6z"/>
							</g>
						</g>
					</g>
					<g id="Group_1553_14_" transform="translate(100.742 0.001)">
						<g id="Group_1550_14_">
							<g id="Path_606-2_14_">
								<g>
									<path class="st0" d="M-1272-3291.5l-4.5,0.1c-0.2,0-0.3-0.1-0.3-0.2s0.1-0.3,0.2-0.3l4.2-0.1l-0.1-5.2
										c0-0.1,0.1-0.2,0.2-0.3c0.2-0.1,0.4-0.1,0.6-0.2c0.1,0,0.2-0.1,0.3-0.1l0,0c0.1,0,0.1,0,0.2,0c0.1,0,0.2-0.1,0.3-0.1
										c0.1,0,0.2-0.1,0.3-0.1c0.1,0,0.2,0,0.3,0.1l2.7,4.5l7.3-4.4l-2.7-4.5c-0.1-0.1-0.1-0.2,0-0.3l1-1.1
										c0.1-0.1,0.2-0.1,0.3-0.1l4.5,2.6l4.2-7.4l-4.5-2.6c-0.1,0-0.2-0.2-0.1-0.3c0.1-0.3,0.1-0.5,0.2-0.9l0.2-0.9
										c0-0.1,0.1-0.2,0.3-0.2l5.2-0.1l-0.2-8.5l-5.2,0.1c-0.1,0-0.2-0.1-0.3-0.2l0,0c-0.1-0.2-0.1-0.4-0.2-0.6
										c0-0.1-0.1-0.2-0.1-0.3l0,0c0-0.1,0-0.1,0-0.2c0-0.1-0.1-0.2-0.1-0.3c0-0.1-0.1-0.2-0.1-0.3c0-0.1,0-0.2,0.1-0.3l4.5-2.7
										l-4.4-7.3l-4.5,2.7c-0.1,0.1-0.2,0.1-0.3,0l-0.2-0.1c-0.1-0.1-0.2-0.1-0.2-0.3l-0.7-0.7c-0.1-0.1-0.1-0.2-0.1-0.3l2.6-4.5
										l-7.4-4.2l-2.6,4.5c0,0.1-0.2,0.2-0.3,0.1c-0.3-0.1-0.6-0.2-0.9-0.2l-0.9-0.2c-0.1,0-0.2-0.1-0.2-0.3l-0.1-5.3l-4.2,0.1
										c-0.2,0-0.3-0.1-0.3-0.2s0.1-0.3,0.2-0.3l4.5-0.1c0.2,0,0.3,0.1,0.3,0.2l0.1,5.3l0.7,0.2c0.2,0,0.5,0.1,0.7,0.2l2.6-4.6
										c0.1-0.1,0.2-0.2,0.4-0.1l7.8,4.4c0.1,0,0.1,0.1,0.1,0.2c0,0.1,0,0.1,0,0.2l-2.6,4.6l0.6,0.5l0,0c0.1,0.1,0.1,0.2,0.2,0.2
										l0,0l4.5-2.7c0.1,0,0.1-0.1,0.2,0s0.1,0,0.2,0.1l4.7,7.7c0.1,0.1,0,0.3-0.1,0.4l-4.5,2.7c0,0,0,0.1,0,0.1
										c0,0.1,0.1,0.2,0.1,0.3c0,0,0,0.1,0,0.1l0,0c0,0.1,0.1,0.1,0.1,0.2c0,0,0,0.1,0,0.2l0,0c0,0.2,0.1,0.3,0.1,0.4l5.3-0.1
										c0.2,0,0.3,0.1,0.3,0.2l0.2,9c0,0.2-0.1,0.3-0.2,0.3l-5.3,0.1l-0.2,0.7c-0.1,0.3-0.1,0.5-0.2,0.7l4.6,2.6
										c0.1,0.1,0.2,0.2,0.1,0.4l-4.4,7.8c0,0.1-0.1,0.1-0.2,0.1c-0.1,0-0.1,0-0.2,0l-4.6-2.6l-0.8,0.8l2.7,4.5
										c0,0.1,0.1,0.1,0,0.2s0,0.1-0.1,0.2l-7.7,4.7c-0.1,0.1-0.3,0-0.4-0.1l-2.7-4.5c0,0-0.1,0-0.1,0c-0.1,0-0.2,0.1-0.3,0.1
										c0,0-0.1,0-0.1,0l0,0c-0.1,0-0.1,0.1-0.2,0.1c0,0-0.1,0-0.2,0l0,0c-0.2,0-0.3,0.1-0.4,0.1l0.1,5.3
										C-1271.8-3291.6-1271.9-3291.5-1272-3291.5z"/>
									<path class="st0" d="M-1276.5-3291.2c-0.1,0-0.3,0-0.4-0.1c-0.1-0.1-0.1-0.2-0.2-0.4c0-0.1,0-0.3,0.1-0.4
										c0.1-0.1,0.2-0.1,0.4-0.2l4-0.1l-0.1-5c0-0.2,0.2-0.5,0.4-0.5c0.1,0,0.2-0.1,0.3-0.1c0.1,0,0.2-0.1,0.3-0.1
										c0.1,0,0.2-0.1,0.3-0.1c0.1,0,0.2,0,0.2,0l0.2-0.1c0,0,0.1,0,0.1,0c0.1,0,0.1-0.1,0.2-0.1c0.2-0.1,0.5,0,0.6,0.3l2.6,4.2
										l6.8-4.2l-2.6-4.2c-0.1-0.2-0.1-0.5,0.1-0.6l1-1.1c0.2-0.2,0.4-0.2,0.6-0.1l4.3,2.4l3.9-7l-4.3-2.4
										c-0.2-0.1-0.3-0.4-0.2-0.6l0.1-0.3c0-0.2,0.1-0.3,0.1-0.5l0.2-0.9c0-0.2,0.2-0.4,0.5-0.4l5-0.1l-0.2-8l-5,0.1
										c-0.2,0-0.5-0.2-0.5-0.4l-0.1-0.2c0-0.1-0.1-0.3-0.1-0.4c0-0.1-0.1-0.2-0.1-0.3c0-0.1,0-0.2,0-0.2l-0.1-0.2
										c0,0,0-0.1,0-0.1c0-0.1-0.1-0.1-0.1-0.2c-0.1-0.2,0-0.5,0.3-0.6l4.2-2.6l-4.2-6.8l-4.2,2.6c-0.2,0.1-0.5,0.1-0.6-0.1
										l-0.1-0.1c-0.1-0.1-0.2-0.2-0.3-0.3l-0.7-0.6c-0.2-0.2-0.2-0.4-0.1-0.6l2.4-4.3l-7-3.9l-2.4,4.3c-0.1,0.2-0.4,0.3-0.6,0.2
										c-0.1,0-0.3-0.1-0.4-0.1c-0.2,0-0.3-0.1-0.5-0.1l-0.9-0.2c-0.2,0-0.4-0.2-0.4-0.5l-0.1-5l-4,0.1c-0.3,0-0.5-0.2-0.5-0.5
										c0-0.3,0.2-0.5,0.5-0.5l4.5-0.1c0,0,0,0,0,0c0.3,0,0.5,0.2,0.5,0.5l0.1,5.1l0.7,0.1c0.1,0,0.3,0.1,0.4,0.1l2.5-4.4
										c0.1-0.2,0.4-0.3,0.7-0.2l7.9,4.4c0.1,0.1,0.2,0.2,0.2,0.3c0.1,0.1,0,0.3,0,0.4l-2.5,4.5l0.4,0.4c0.1,0.1,0.1,0.1,0.1,0.1
										l4.3-2.6c0.2-0.1,0.3-0.1,0.4-0.1c0.1,0,0.2,0.1,0.3,0.3l4.7,7.6c0.1,0.1,0.1,0.3,0.1,0.4c0,0.1-0.1,0.2-0.2,0.3l-4.3,2.6
										c0,0,0,0,0,0c0,0.1,0.1,0.1,0.1,0.2l0,0.1c0,0.1,0.1,0.2,0.1,0.3c0,0,0,0.1,0,0.2c0,0.1,0,0.1,0.1,0.2l5.1-0.1
										c0.1,0,0.3,0,0.4,0.1c0.1,0.1,0.1,0.2,0.2,0.4l0.2,9c0,0.1,0,0.3-0.1,0.4c-0.1,0.1-0.2,0.1-0.4,0.2l-5.1,0.1l-0.2,0.8
										c0,0.1-0.1,0.2-0.1,0.3l4.4,2.5c0.2,0.1,0.3,0.4,0.2,0.7l-4.4,7.9c-0.1,0.1-0.2,0.2-0.3,0.2c-0.2,0.1-0.3,0-0.4,0l-0.1,0
										l-4.4-2.5l-0.5,0.5l2.6,4.3c0.1,0.1,0.1,0.3,0.1,0.4c0,0.1-0.1,0.2-0.3,0.3l-7.6,4.7c-0.1,0.1-0.2,0.1-0.4,0.1
										c-0.1,0-0.3-0.1-0.3-0.2l-2.6-4.3c0,0,0,0,0,0c-0.1,0-0.1,0.1-0.2,0.1l-0.1,0c-0.1,0-0.2,0.1-0.3,0.1c0,0-0.1,0-0.2,0
										c-0.1,0-0.1,0-0.2,0.1l0.1,5.1l0,0c-0.1,0.3-0.3,0.5-0.6,0.5L-1276.5-3291.2C-1276.5-3291.2-1276.5-3291.2-1276.5-3291.2z
										 M-1272.1-3297.3C-1272.1-3297.3-1272.1-3297.3-1272.1-3297.3l0,5.5l-4.5,0.1l4.5-0.1c0,0,0,0,0,0c0,0,0,0,0.1-0.1
										L-1272.1-3297.3z M-1262.7-3302.4L-1262.7-3302.4l2.8,4.7l0.1,0L-1262.7-3302.4z M-1256.9-3300.9L-1256.9-3300.9
										C-1256.9-3300.9-1256.8-3300.9-1256.9-3300.9l4.4-7.9l-4.8-2.7l0,0.1l4.8,2.7L-1256.9-3300.9z M-1256.8-3313l-0.2,0.7
										c-0.1,0.2-0.1,0.4-0.2,0.5l-0.1,0.2l0-0.1c0-0.1,0.1-0.3,0.1-0.5L-1256.8-3313z M-1251.5-3322.3l0.2,9L-1251.5-3322.3
										l-5.5,0.1l0-0.2c0,0,0-0.1,0-0.2c0-0.1-0.1-0.2-0.1-0.3l0-0.2c0,0,0-0.1,0-0.1l0-0.1v-0.1c0-0.1,0-0.1,0-0.2
										c0-0.1,0-0.1-0.1-0.2l0-0.1l0,0c0,0,0,0,0-0.1l0-0.1l4.6-2.8l-4.7-7.7l-4.7,2.8l-0.1-0.1c-0.1-0.1-0.1-0.1-0.1-0.2
										c0,0-0.1-0.1-0.1-0.1l-0.7-0.7l0,0l0.7,0.7c0.1,0.1,0.2,0.2,0.2,0.2l0.2,0.2l4.7-2.8l4.7,7.7l-4.7,2.9c0,0.1,0,0.1,0,0.2
										c0,0.1,0,0.1,0.1,0.2l0.1,0.5c0,0.1,0,0.2,0,0.3c0,0.2,0.1,0.3,0.1,0.4l0.1,0.3L-1251.5-3322.3z M-1273-3343.1l0.1,5.5
										l0.9,0.2c0.1,0,0.3,0.1,0.5,0.1c0.1,0,0.3,0.1,0.4,0.1l2.7-4.8l7.8,4.4l0,0c0,0,0,0,0,0c0,0,0,0,0,0l-7.8-4.4l-2.7,4.8
										l-0.2-0.1c-0.2-0.1-0.4-0.1-0.6-0.2l-1-0.2L-1273-3343.1l-4.5,0.1L-1273-3343.1z"/>
								</g>
							</g>
							<g id="Path_607-2_14_">
								<g>
									<path class="st0" d="M-1276.7-3301.9c-0.2,0-0.3-0.1-0.3-0.2s0.1-0.3,0.2-0.3c8.2-0.2,14.8-7,14.6-15.2
										c-0.2-8.2-7-14.8-15.2-14.6c-0.2,0-0.3-0.1-0.3-0.2s0.1-0.3,0.2-0.3c8.5-0.2,15.5,6.6,15.7,15.1
										C-1261.5-3309.1-1268.2-3302.1-1276.7-3301.9z"/>
									<path class="st0" d="M-1276.7-3301.6c-0.1,0-0.3,0-0.4-0.1c-0.1-0.1-0.1-0.2-0.2-0.4s0-0.3,0.1-0.4
										c0.1-0.1,0.2-0.1,0.4-0.2c8.1-0.2,14.5-6.9,14.3-15c-0.1-3.9-1.7-7.6-4.5-10.3s-6.5-4.1-10.4-4.1c-0.2,0-0.3,0-0.4-0.1
										s-0.1-0.2-0.2-0.4c0-0.3,0.2-0.5,0.5-0.5c0.1,0,0.2,0,0.3,0c8.5,0,15.5,6.8,15.7,15.3c0.1,4.2-1.5,8.1-4.4,11.2
										S-1272.6-3301.7-1276.7-3301.6L-1276.7-3301.6C-1276.7-3301.6-1276.7-3301.6-1276.7-3301.6z M-1277.1-3332.5
										c3.9,0,7.7,1.5,10.5,4.2c2.9,2.8,4.6,6.6,4.7,10.6c0.2,8.4-6.5,15.3-14.8,15.5l0,0.3l0-0.2c4-0.1,7.8-1.7,10.6-4.7
										c2.8-2.9,4.3-6.8,4.2-10.8c-0.1-4-1.7-7.8-4.7-10.6c-2.9-2.8-6.8-4.3-10.8-4.2C-1277.3-3332.5-1277.2-3332.5-1277.1-3332.5
										z"/>
								</g>
							</g>
						</g>
					</g>
				</g>
			</g>
		</g>
		<g id="Group_1565_13_" transform="translate(1401.34 3545)">
			<g id="Group_1558_13_" transform="translate(0 0)">
				<g id="Group_1554_13_">
					<g id="Group_1551_13_">
						<g id="Path_607_13_">
							<g>
								<path class="st0" d="M-1176.7-3332.3c-0.2,0-0.3-0.1-0.3-0.2c0-0.2,0.1-0.3,0.2-0.3l0,0"/>
								<path class="st0" d="M-1176.7-3332c-0.3,0-0.5-0.2-0.5-0.5c0-0.3,0.2-0.5,0.5-0.5L-1176.7-3332
									C-1176.7-3332-1176.7-3332-1176.7-3332z"/>
							</g>
						</g>
					</g>
					<g id="Group_1553_13_" transform="translate(100.742 0.001)">
						<g id="Group_1550_13_">
							<g id="Path_606-2_13_">
								<g>
									<path class="st0" d="M-1282.3-3343.1l4.5-0.1c0.2,0,0.3,0.1,0.3,0.2s-0.1,0.3-0.2,0.3l-4.2,0.1l0.1,5.2
										c0,0.1-0.1,0.2-0.2,0.3c-0.2,0.1-0.4,0.1-0.6,0.2c-0.1,0-0.2,0.1-0.3,0.1l0,0c-0.1,0-0.1,0-0.2,0c-0.1,0-0.2,0.1-0.3,0.1
										c-0.1,0-0.2,0.1-0.3,0.1c-0.1,0-0.2,0-0.3-0.1l-2.7-4.5l-7.3,4.4l2.7,4.5c0.1,0.1,0.1,0.2,0,0.3l-1,1.1
										c-0.1,0.1-0.2,0.1-0.3,0.1l-4.5-2.6l-4.2,7.4l4.5,2.6c0.1,0,0.2,0.2,0.1,0.3c-0.1,0.3-0.1,0.5-0.2,0.9l-0.2,0.9
										c0,0.1-0.1,0.2-0.3,0.2l-5.2,0.1l0.2,8.5l5.2-0.1c0.1,0,0.2,0.1,0.3,0.2l0,0c0.1,0.2,0.1,0.4,0.2,0.6
										c0,0.1,0.1,0.2,0.1,0.3l0,0c0,0.1,0,0.1,0,0.2c0,0.1,0.1,0.2,0.1,0.3s0.1,0.2,0.1,0.3c0,0.1,0,0.2-0.1,0.3l-4.5,2.7
										l4.4,7.3l4.5-2.7c0.1-0.1,0.2-0.1,0.3,0l0.2,0.1c0.1,0.1,0.2,0.1,0.2,0.3l0.7,0.7c0.1,0.1,0.1,0.2,0.1,0.3l-2.6,4.5
										l7.4,4.2l2.6-4.5c0-0.1,0.2-0.2,0.3-0.1c0.3,0.1,0.6,0.2,0.9,0.2l0.9,0.2c0.1,0,0.2,0.1,0.2,0.3l0.1,5.3l4.2-0.1
										c0.2,0,0.3,0.1,0.3,0.2s-0.1,0.3-0.2,0.3l-4.5,0.1c-0.2,0-0.3-0.1-0.3-0.2l-0.1-5.3l-0.7-0.2c-0.2,0-0.5-0.1-0.7-0.2
										l-2.6,4.6c-0.1,0.1-0.2,0.2-0.4,0.1l-7.8-4.4c-0.1,0-0.1-0.1-0.1-0.2c0-0.1,0-0.1,0-0.2l2.6-4.6l-0.6-0.5l0,0
										c-0.1-0.1-0.1-0.2-0.2-0.2l0,0l-4.5,2.7c-0.1,0-0.1,0.1-0.2,0c-0.1,0-0.1,0-0.2-0.1l-4.7-7.7c-0.1-0.1,0-0.3,0.1-0.4
										l4.5-2.7c0,0,0-0.1,0-0.1c0-0.1-0.1-0.2-0.1-0.3c0,0,0-0.1,0-0.1l0,0c0-0.1-0.1-0.1-0.1-0.2c0,0,0-0.1,0-0.2l0,0
										c0-0.2-0.1-0.3-0.1-0.4l-5.3,0.1c-0.2,0-0.3-0.1-0.3-0.2l-0.2-9c0-0.2,0.1-0.3,0.2-0.3l5.3-0.1l0.2-0.7
										c0.1-0.3,0.1-0.5,0.2-0.7l-4.6-2.6c-0.1-0.1-0.2-0.2-0.1-0.4l4.4-7.8c0-0.1,0.1-0.1,0.2-0.1c0.1,0,0.1,0,0.2,0l4.6,2.6
										l0.8-0.8l-2.7-4.5c0-0.1-0.1-0.1,0-0.2c0-0.1,0-0.1,0.1-0.2l7.7-4.7c0.1-0.1,0.3,0,0.4,0.1l2.7,4.5c0,0,0.1,0,0.1,0
										c0.1,0,0.2-0.1,0.3-0.1c0,0,0.1,0,0.1,0l0,0c0.1,0,0.1-0.1,0.2-0.1c0,0,0.1,0,0.2,0l0,0c0.2,0,0.3-0.1,0.4-0.1l-0.1-5.3
										C-1282.5-3343-1282.4-3343.1-1282.3-3343.1z"/>
									<path class="st0" d="M-1281.3-3291.1c-0.3,0-0.5-0.2-0.5-0.5l-0.1-5.1l-0.6-0.1c-0.1,0-0.3-0.1-0.4-0.1l-2.5,4.4
										c-0.1,0.2-0.4,0.3-0.7,0.2l-7.9-4.4c-0.1-0.1-0.2-0.2-0.2-0.3c-0.1-0.1,0-0.3,0-0.4l2.5-4.5l-0.4-0.4
										c-0.1-0.1-0.1-0.1-0.1-0.1l-4.3,2.6c-0.1,0.1-0.3,0.1-0.4,0.1c-0.1,0-0.2-0.1-0.3-0.3l-4.7-7.6c-0.1-0.1-0.1-0.3-0.1-0.4
										c0-0.1,0.1-0.2,0.2-0.3l4.3-2.6c0,0,0,0,0,0c0-0.1-0.1-0.1-0.1-0.2l0-0.1c0-0.1-0.1-0.2-0.1-0.3c0,0,0-0.1,0-0.2
										c0-0.1,0-0.1-0.1-0.2l-5.1,0.1c0,0,0,0,0,0c-0.1,0-0.3,0-0.4-0.1c-0.1-0.1-0.1-0.2-0.2-0.4l-0.2-9c0-0.1,0-0.3,0.1-0.4
										c0.1-0.1,0.2-0.1,0.4-0.2l5.1-0.1l0.2-0.8c0-0.1,0.1-0.2,0.1-0.3l-4.4-2.5c-0.2-0.1-0.3-0.4-0.2-0.7l4.4-7.9
										c0-0.1,0.2-0.2,0.2-0.2c0.2-0.1,0.3,0,0.4,0l0.1,0l4.4,2.5l0.5-0.5l-2.6-4.3c-0.1-0.1-0.1-0.3-0.1-0.4
										c0-0.1,0.1-0.2,0.3-0.3l7.6-4.7c0.1-0.1,0.2-0.1,0.4-0.1c0.1,0,0.3,0.1,0.3,0.2l2.6,4.4c0,0,0,0,0,0c0.1,0,0.1-0.1,0.2-0.1
										l0.1,0c0.1,0,0.2-0.1,0.3-0.1c0,0,0.1,0,0.2,0c0.1,0,0.1,0,0.2-0.1l-0.1-5.1l0,0c0.1-0.3,0.3-0.5,0.6-0.5l4.5-0.1
										c0.2,0,0.3,0,0.4,0.1c0.1,0.1,0.1,0.2,0.2,0.4c0,0.3-0.2,0.5-0.5,0.5l-4,0.1l0.1,5c0,0.3-0.2,0.5-0.4,0.5
										c-0.1,0-0.2,0.1-0.3,0.1c-0.1,0-0.2,0.1-0.3,0.1c-0.1,0-0.2,0.1-0.3,0.1c-0.1,0-0.2,0-0.2,0l-0.2,0.1c0,0-0.1,0-0.1,0
										c-0.1,0-0.1,0.1-0.2,0.1c-0.2,0.1-0.5,0-0.6-0.2l-2.6-4.2l-6.8,4.2l2.6,4.2c0.1,0.2,0.1,0.5-0.1,0.6l-1,1.1
										c-0.2,0.2-0.4,0.2-0.6,0.1l-4.3-2.4l-3.9,7l4.3,2.4c0.2,0.1,0.3,0.4,0.2,0.6l-0.1,0.3c0,0.2-0.1,0.4-0.2,0.6l-0.2,0.9
										c0,0.2-0.2,0.4-0.5,0.4l-5,0.1l0.2,8l5-0.1c0.2,0,0.5,0.2,0.5,0.4l0.1,0.2c0,0.1,0.1,0.3,0.1,0.4c0,0.1,0.1,0.2,0.1,0.3
										c0,0.1,0,0.1,0,0.2l0.1,0.2c0,0,0,0.1,0,0.1c0,0.1,0.1,0.1,0.1,0.2c0.1,0.2,0,0.5-0.2,0.6l-4.2,2.6l4.2,6.8l4.2-2.6
										c0.2-0.1,0.5-0.1,0.6,0.1l0.1,0.1c0.1,0.1,0.2,0.2,0.3,0.3l0.7,0.6c0.2,0.2,0.2,0.4,0.1,0.6l-2.4,4.3l7,3.9l2.4-4.3
										c0.1-0.2,0.4-0.3,0.6-0.2c0.1,0,0.3,0.1,0.4,0.1c0.2,0,0.3,0.1,0.4,0.1l0.9,0.2c0.2,0,0.4,0.2,0.4,0.5l0.1,5l4-0.1
										c0.3,0,0.5,0.2,0.5,0.5c0,0.1,0,0.3-0.1,0.4c-0.1,0.1-0.2,0.1-0.4,0.2L-1281.3-3291.1
										C-1281.3-3291.1-1281.3-3291.1-1281.3-3291.1z M-1283.2-3297.5l0.2,0.1c0.2,0.1,0.4,0.1,0.6,0.2l1,0.2l0.1,5.5l4.5-0.1
										l-4.5,0.1l-0.1-5.5l-0.9-0.2c-0.1,0-0.3-0.1-0.4-0.1C-1282.9-3297.5-1283.1-3297.5-1283.2-3297.5l-2.7,4.7l-7.8-4.4l0,0
										l0,0c0,0,0,0,0,0c0,0,0,0,0,0l7.8,4.4L-1283.2-3297.5z M-1293.8-3297.1L-1293.8-3297.1L-1293.8-3297.1z M-1293.8-3297.2
										C-1293.8-3297.2-1293.8-3297.2-1293.8-3297.2C-1293.8-3297.2-1293.8-3297.2-1293.8-3297.2z M-1297.3-3312.4l0,0.2
										c0,0,0,0.1,0,0.2c0,0.1,0.1,0.2,0.1,0.3l0,0.2c0,0,0,0.1,0,0.1l0,0.1c0,0.1,0,0.1,0,0.2c0,0.1,0,0.1,0.1,0.2
										c0,0.1,0,0.1,0,0.2l0,0.1l-4.6,2.8l4.7,7.7l4.7-2.8l0.1,0.1c0.1,0.1,0.1,0.1,0.1,0.2c0,0,0.1,0.1,0.1,0.1l0.7,0.7l0,0
										l-0.7-0.7c-0.1-0.1-0.2-0.2-0.2-0.3l-0.2-0.1l-4.7,2.8l-4.7-7.7l4.7-2.9c0-0.1,0-0.1,0-0.2c0-0.1,0-0.1-0.1-0.2l-0.1-0.4
										l0-0.1c0-0.1,0-0.2,0-0.3c0-0.2-0.1-0.3-0.1-0.4l-0.1-0.3l-5.5,0.2l-0.2-9l0.2,9L-1297.3-3312.4z M-1297.1-3323.2l0,0.1
										c0,0.1-0.1,0.3-0.1,0.5l-0.2,0.9l0.2-0.8c0.1-0.2,0.1-0.4,0.2-0.6L-1297.1-3323.2z M-1297.4-3333.8
										C-1297.4-3333.8-1297.4-3333.8-1297.4-3333.8l-4.4,7.9l4.8,2.7l0-0.1l-4.8-2.7L-1297.4-3333.8L-1297.4-3333.8z
										 M-1294.4-3336.9L-1294.4-3336.9l2.8,4.7l0.1-0.1L-1294.4-3336.9z M-1282.3-3342.8l0.1,5.4c0,0,0.1,0,0.1,0l-0.1-5.5
										l4.5-0.1l-4.5,0.1c0,0,0,0,0,0S-1282.3-3342.9-1282.3-3342.8z"/>
								</g>
							</g>
							<g id="Path_607-2_13_">
								<g>
									<path class="st0" d="M-1277.5-3332.8c0.2,0,0.3,0.1,0.3,0.2s-0.1,0.3-0.2,0.3c-8.2,0.2-14.8,7-14.6,15.2
										c0.2,8.2,7,14.8,15.2,14.6c0.2,0,0.3,0.1,0.3,0.2s-0.1,0.3-0.2,0.3c-8.5,0.2-15.5-6.6-15.7-15.1
										C-1292.8-3325.5-1286-3332.6-1277.5-3332.8z"/>
									<path class="st0" d="M-1277.2-3301.7c-8.5,0-15.5-6.8-15.7-15.3c-0.2-8.6,6.7-15.8,15.3-16h0c0.1,0,0.3,0,0.4,0.1
										c0.1,0.1,0.1,0.2,0.2,0.4c0,0.1,0,0.3-0.1,0.4c-0.1,0.1-0.2,0.1-0.4,0.2c-3.9,0.1-7.5,1.7-10.3,4.5
										c-2.7,2.8-4.2,6.5-4.1,10.4c0.2,8.1,6.9,14.5,14.9,14.3c0.1,0,0.3,0,0.4,0.1c0.1,0.1,0.1,0.2,0.2,0.4s0,0.3-0.1,0.4
										c-0.1,0.1-0.2,0.1-0.4,0.2C-1277-3301.7-1277.1-3301.7-1277.2-3301.7z M-1277.5-3332.5c-8.4,0.2-15,7.1-14.8,15.5
										c0.2,8.4,7.1,15,15.5,14.8c-0.1,0-0.2,0-0.3,0c-8.2,0-15-6.6-15.2-14.8c-0.1-4,1.4-7.9,4.2-10.8
										C-1285.3-3330.8-1281.6-3332.4-1277.5-3332.5L-1277.5-3332.5z"/>
								</g>
							</g>
						</g>
					</g>
				</g>
			</g>
		</g>
	</g>
	<g>
		<circle class="st1" cx="224.9" cy="227.7" r="7.7"/>
	</g>
	<g class="st2">
		<g>
			<path class="st0" d="M384.1,227.8h-2.9v-2h2.9V227.8z M374.2,227.8h-7v-2h7V227.8z M360.2,227.8h-7v-2h7V227.8z M346.2,227.8h-7
				v-2h7V227.8z M332.2,227.8h-7v-2h7V227.8z M318.2,227.8h-7v-2h7V227.8z M304.2,227.8h-7v-2h7V227.8z M290.2,227.8h-7v-2h7V227.8z
				 M276.2,227.8h-7v-2h7V227.8z M262.2,227.8h-7v-2h7V227.8z"/>
		</g>
	</g>
	<g class="st2">
		<g>
			<path class="st0" d="M202.6,227.8h-2.9v-2h2.9V227.8z M192.6,227.8h-7v-2h7V227.8z M178.6,227.8h-7v-2h7V227.8z M164.6,227.8h-7
				v-2h7V227.8z M150.6,227.8h-7v-2h7V227.8z M136.6,227.8h-7v-2h7V227.8z M122.6,227.8h-7v-2h7V227.8z M108.6,227.8h-7v-2h7V227.8z
				 M94.6,227.8h-7v-2h7V227.8z M80.6,227.8h-7v-2h7V227.8z"/>
		</g>
	</g>
	<g>
		<circle class="st1" cx="64.7" cy="226.9" r="5.6"/>
	</g>
	<g>
		<circle class="st1" cx="385.3" cy="226.7" r="5.6"/>
	</g>
</g>
</svg>
