<?xml version="1.0" encoding="utf-8"?>
<!-- Generator: Adobe Illustrator 23.1.1, SVG Export Plug-In . SVG Version: 6.00 Build 0)  -->
<svg version="1.1" id="Layer_1" xmlns="http://www.w3.org/2000/svg" xmlns:xlink="http://www.w3.org/1999/xlink" x="0px" y="0px"
	 viewBox="0 0 492 492" style="enable-background:new 0 0 492 492;" xml:space="preserve">
<style type="text/css">
	.st0{fill:none;stroke:#777777;stroke-width:9;stroke-linecap:round;stroke-linejoin:round;}
	.st1{fill:url(#SVGID_1_);}
	.st2{fill:url(#SVGID_2_);}
</style>
<path class="st0" d="M0,0"/>
<g>
	<linearGradient id="SVGID_1_" gradientUnits="userSpaceOnUse" x1="294.3223" y1="274.5729" x2="362.1729" y2="206.7223">
		<stop  offset="0" style="stop-color:#D60D47"/>
		<stop  offset="1" style="stop-color:#EF7726"/>
	</linearGradient>
	<path class="st1" d="M310,290.2c1.6,1.7,3.8,2.7,6.1,2.7c0,0,0,0,0,0c2.3,0,4.5-0.9,6.1-2.6l54.8-56.9c3.3-3.4,3.2-8.8-0.2-12
		c-3.4-3.3-8.8-3.2-12,0.2l-48.6,50.4L291.6,246c-3.2-3.4-8.6-3.6-12-0.4c-3.4,3.2-3.6,8.6-0.4,12L310,290.2z"/>
	<linearGradient id="SVGID_2_" gradientUnits="userSpaceOnUse" x1="148.8333" y1="358.0672" x2="356.2055" y2="150.695">
		<stop  offset="0" style="stop-color:#D60D47"/>
		<stop  offset="1" style="stop-color:#EF7726"/>
	</linearGradient>
	<path class="st2" d="M417.9,258.3c0-48.3-39.3-87.5-87.5-87.5c-3.8,0-7.5,0.2-11.1,0.7v-54.2c0-0.1,0-0.3,0-0.4
		c0.1-0.3,0.1-0.7,0.1-1.1c0-1.9-1.2-3.6-3-4.3L198.6,70.8c-1-0.3-2-0.3-2.9,0L77,111.8c-1.1,0.4-2.1,1.2-2.6,2.3
		c-0.8,0.8-1.3,2-1.3,3.1v163.3c0,2,1.3,3.7,3.1,4.3l118.6,38.2c0.1,0,0.3,0.1,0.4,0.1c0.1,0,0.2,0.1,0.3,0.1c0.2,0,0.5,0.1,0.7,0.1
		c0,0,0,0,0,0s0,0,0,0c0.2,0,0.5,0,0.7-0.1c0.1,0,0.2,0,0.3-0.1c0.1,0,0.3-0.1,0.4-0.1l54.1-17.4c1.6-0.5,2.7-1.9,3-3.4
		c4.6,7.9,10.5,15.1,17.3,21.2c-0.3,0.6-0.4,1.2-0.5,1.8l-3.5,107.4c-0.1,1.7,0.9,3.3,2.4,4.1c0.7,0.3,1.4,0.5,2.1,0.5
		c0.9,0,1.9-0.3,2.7-0.9l54.3-40.2l54.3,40.2c1.4,1,3.2,1.2,4.8,0.4s2.5-2.4,2.4-4.1l-3.5-107.4c0-0.2,0-0.4-0.1-0.6
		C406.1,308.5,417.9,284.7,417.9,258.3z M197.1,79.8l104.1,36l-51.5,17.8l-53.4,17.3l-50.8-16.5l-53.2-18.4L197.1,79.8z M82.1,123.4
		l60.4,19.6l49.2,17v152.5L82.1,277.2V123.4z M248.9,297l-48.2,15.5V160.1l51.8-17.9l57.8-18.8v49.6c-38.6,9.1-67.4,43.8-67.4,85.2
		c0,14,3.3,27.2,9.1,38.9C251.1,296.7,250,296.6,248.9,297z M251.9,258.3c0-43.3,35.2-78.5,78.5-78.5s78.5,35.2,78.5,78.5
		s-35.2,78.5-78.5,78.5S251.9,301.6,251.9,258.3z M381.7,423.6L332.3,387c-0.3-0.2-0.5-0.4-0.8-0.5c-0.6-0.3-1.3-0.4-1.9-0.4
		c0,0,0,0,0,0c-0.7,0-1.3,0.1-1.9,0.4c-0.3,0.1-0.6,0.3-0.8,0.5l-49.4,36.6l3-93.6c14.2,9.9,31.5,15.8,50.1,15.8
		c17.9,0,34.5-5.4,48.3-14.6L381.7,423.6z"/>
</g>
</svg>
