<svg xmlns="http://www.w3.org/2000/svg" xmlns:xlink="http://www.w3.org/1999/xlink" viewBox="0 0 178.47 178.47"><defs><style>.cls-1{fill:url(#linear-gradient);}.cls-2{fill:url(#linear-gradient-2);}.cls-3{fill:url(#linear-gradient-3);}.cls-4{fill:url(#linear-gradient-4);}.cls-5{fill:url(#linear-gradient-5);}</style><linearGradient id="linear-gradient" x1="-37.31" y1="-528.84" x2="12.01" y2="-528.84" gradientTransform="translate(-235.14 431.49) rotate(45)" gradientUnits="userSpaceOnUse"><stop offset="0" stop-color="#d60d47"/><stop offset="1" stop-color="#ef7726"/></linearGradient><linearGradient id="linear-gradient-2" x1="-16.44" y1="-383.86" x2="-8.86" y2="-383.86" xlink:href="#linear-gradient"/><linearGradient id="linear-gradient-3" x1="-39.14" y1="-394.85" x2="-31.56" y2="-394.85" xlink:href="#linear-gradient"/><linearGradient id="linear-gradient-4" x1="6.26" y1="-394.85" x2="13.84" y2="-394.85" xlink:href="#linear-gradient"/><linearGradient id="linear-gradient-5" x1="-86.88" y1="-502.25" x2="61.58" y2="-502.25" xlink:href="#linear-gradient"/></defs><title>Asset 7</title><g id="Layer_2" data-name="Layer 2"><g id="Layer_1-2" data-name="Layer 1"><path class="cls-1" d="M112.43,66a24.66,24.66,0,1,0,0-34.88A24.69,24.69,0,0,0,112.43,66Zm29.51-29.52a17.08,17.08,0,1,1-24.15,0A17.1,17.1,0,0,1,141.94,36.52Z"/><path class="cls-2" d="M48.08,130.38a3.78,3.78,0,0,0-5.35,0L6.61,166.5A3.79,3.79,0,1,0,12,171.85l36.11-36.11A3.79,3.79,0,0,0,48.08,130.38Z"/><path class="cls-3" d="M32,114.33a3.79,3.79,0,0,0-5.36,0L6.1,134.9a3.79,3.79,0,0,0,5.36,5.36L32,119.69A3.79,3.79,0,0,0,32,114.33Z"/><path class="cls-4" d="M64.14,146.44a3.8,3.8,0,0,0-5.36,0L38.21,167a3.79,3.79,0,0,0,5.36,5.36l20.57-20.57A3.78,3.78,0,0,0,64.14,146.44Z"/><path class="cls-5" d="M131.7,150.47l2.57-32.39a93.58,93.58,0,0,0,7.35-7.17C186.37,65,178,7.45,177.61,5A3.81,3.81,0,0,0,176,2.47,3.81,3.81,0,0,0,173.45.86c-2.43-.38-60-8.76-105.89,36a92.54,92.54,0,0,0-7.17,7.34L28,46.76a3.82,3.82,0,0,0-2.78,1.57L.71,82.52A3.79,3.79,0,0,0,.3,86.2a3.73,3.73,0,0,0,.81,1.21,3.77,3.77,0,0,0,2.11,1.06l33,5a66,66,0,0,0-.54,10.87,3.78,3.78,0,0,0,1.11,2.55L71.6,141.72a3.78,3.78,0,0,0,2.55,1.11A67.16,67.16,0,0,0,85,142.28l5,33a3.75,3.75,0,0,0,1.07,2.12,4,4,0,0,0,1.2.81,3.81,3.81,0,0,0,3.68-.41l34.19-24.52A3.77,3.77,0,0,0,131.7,150.47Zm-59-108,.14-.13C111.34,4.67,160.1,7.12,170.35,8.12c1,10.24,3.54,58.92-34.22,97.56l-.13.14a107,107,0,0,1-27.34,20.8c-.06-.07-.11-.15-.17-.21L51.88,69.8A107.5,107.5,0,0,1,72.65,42.46ZM10.47,81.91,30.35,54.18l23.48-1.86C47.54,60.85,40.8,72.46,37.57,86Zm65.4,53.38-32.69-32.7a66,66,0,0,1,5.28-25.5L101.38,130A66,66,0,0,1,75.87,135.29ZM96.56,168,92.47,140.9c13.54-3.24,25.14-10,33.68-16.27l-1.86,23.48Z"/></g></g></svg>