<svg id="Layer_5" data-name="Layer 5" xmlns="http://www.w3.org/2000/svg" xmlns:xlink="http://www.w3.org/1999/xlink" viewBox="0 0 327.97 267.38"><defs><style>.cls-1{fill:none;}.cls-2{fill:url(#linear-gradient);}.cls-3{fill:url(#linear-gradient-2);}.cls-4{fill:url(#linear-gradient-3);}.cls-5{fill:url(#linear-gradient-4);}.cls-6{fill:url(#linear-gradient-5);}.cls-7{fill:url(#linear-gradient-6);}.cls-8{fill:url(#linear-gradient-7);}.cls-9{fill:url(#linear-gradient-8);}.cls-10{fill:url(#linear-gradient-9);}.cls-11{fill:url(#linear-gradient-10);}.cls-12{fill:url(#linear-gradient-11);}.cls-13{fill:url(#linear-gradient-12);}.cls-14{fill:url(#linear-gradient-13);}.cls-15{fill:url(#linear-gradient-14);}.cls-16{fill:url(#linear-gradient-15);}.cls-17{fill:url(#linear-gradient-16);}.cls-18{fill:url(#linear-gradient-17);}.cls-19{fill:url(#linear-gradient-18);}.cls-20{fill:url(#linear-gradient-19);}.cls-21{fill:url(#linear-gradient-20);}.cls-22{fill:url(#linear-gradient-21);}.cls-23{fill:url(#linear-gradient-22);}</style><linearGradient id="linear-gradient" x1="81.89" y1="20.53" x2="409.86" y2="20.53" gradientTransform="matrix(1, 0, 0, -1, -41.17, 261.4)" gradientUnits="userSpaceOnUse"><stop offset="0" stop-color="#d60d47"/><stop offset="1" stop-color="#ef7726"/></linearGradient><linearGradient id="linear-gradient-2" x1="176.67" y1="160.75" x2="230.14" y2="160.75" xlink:href="#linear-gradient"/><linearGradient id="linear-gradient-3" x1="272.55" y1="160.7" x2="325.95" y2="160.7" xlink:href="#linear-gradient"/><linearGradient id="linear-gradient-4" x1="228.96" y1="160.48" x2="273.72" y2="160.48" xlink:href="#linear-gradient"/><linearGradient id="linear-gradient-5" x1="75.17" y1="134.31" x2="84.05" y2="134.31" gradientTransform="matrix(1, 0, 0, -1, -40.72, 301.05)" xlink:href="#linear-gradient"/><linearGradient id="linear-gradient-6" x1="75.17" y1="118.43" x2="84.05" y2="118.43" gradientTransform="matrix(1, 0, 0, -1, -40.72, 301.05)" xlink:href="#linear-gradient"/><linearGradient id="linear-gradient-7" x1="75.17" y1="102.55" x2="84.05" y2="102.55" gradientTransform="matrix(1, 0, 0, -1, -40.72, 301.05)" xlink:href="#linear-gradient"/><linearGradient id="linear-gradient-8" x1="75.17" y1="86.66" x2="84.05" y2="86.66" gradientTransform="matrix(1, 0, 0, -1, -40.72, 301.05)" xlink:href="#linear-gradient"/><linearGradient id="linear-gradient-9" x1="75.17" y1="70.78" x2="84.05" y2="70.78" gradientTransform="matrix(1, 0, 0, -1, -40.72, 301.05)" xlink:href="#linear-gradient"/><linearGradient id="linear-gradient-10" x1="75.17" y1="54.9" x2="84.05" y2="54.9" gradientTransform="matrix(1, 0, 0, -1, -40.72, 301.05)" xlink:href="#linear-gradient"/><linearGradient id="linear-gradient-11" x1="60.07" y1="134.11" x2="68.95" y2="134.11" gradientTransform="matrix(1, 0, 0, -1, -40.72, 301.05)" xlink:href="#linear-gradient"/><linearGradient id="linear-gradient-12" x1="60.07" y1="118.22" x2="68.95" y2="118.22" gradientTransform="matrix(1, 0, 0, -1, -40.72, 301.05)" xlink:href="#linear-gradient"/><linearGradient id="linear-gradient-13" x1="60.07" y1="102.34" x2="68.95" y2="102.34" gradientTransform="matrix(1, 0, 0, -1, -40.72, 301.05)" xlink:href="#linear-gradient"/><linearGradient id="linear-gradient-14" x1="60.07" y1="86.46" x2="68.95" y2="86.46" gradientTransform="matrix(1, 0, 0, -1, -40.72, 301.05)" xlink:href="#linear-gradient"/><linearGradient id="linear-gradient-15" x1="60.07" y1="70.57" x2="68.95" y2="70.57" gradientTransform="matrix(1, 0, 0, -1, -40.72, 301.05)" xlink:href="#linear-gradient"/><linearGradient id="linear-gradient-16" x1="60.07" y1="54.69" x2="68.95" y2="54.69" gradientTransform="matrix(1, 0, 0, -1, -40.72, 301.05)" xlink:href="#linear-gradient"/><linearGradient id="linear-gradient-17" x1="44.88" y1="134.11" x2="53.76" y2="134.11" gradientTransform="matrix(1, 0, 0, -1, -40.72, 301.05)" xlink:href="#linear-gradient"/><linearGradient id="linear-gradient-18" x1="44.88" y1="118.22" x2="53.76" y2="118.22" gradientTransform="matrix(1, 0, 0, -1, -40.72, 301.05)" xlink:href="#linear-gradient"/><linearGradient id="linear-gradient-19" x1="44.88" y1="102.34" x2="53.76" y2="102.34" gradientTransform="matrix(1, 0, 0, -1, -40.72, 301.05)" xlink:href="#linear-gradient"/><linearGradient id="linear-gradient-20" x1="44.88" y1="86.46" x2="53.76" y2="86.46" gradientTransform="matrix(1, 0.01, 0.01, -1, -0.88, 334.77)" xlink:href="#linear-gradient"/><linearGradient id="linear-gradient-21" x1="44.88" y1="70.57" x2="53.76" y2="70.57" gradientTransform="matrix(1, 0.01, 0.01, -1, -0.72, 334.77)" xlink:href="#linear-gradient"/><linearGradient id="linear-gradient-22" x1="44.88" y1="54.69" x2="53.76" y2="54.69" gradientTransform="matrix(1, 0.01, 0.01, -1, -0.56, 334.77)" xlink:href="#linear-gradient"/></defs><title>icon-software-craftsmanship</title><path class="cls-1" d="M8-24.88" transform="translate(-40.72 -34.22)"/><path class="cls-2" d="M363.09,198.55c-9.08-11.69-18-8.6-28.42-5-1.65.57-3.45,1.19-5.81,1.92a12.3,12.3,0,0,0-2.4.8L278.88,218.9c-16.8-22.72-62.66-20.74-66.47-20.52h-.15c-.23,0-22.48-1-39.07-9.19-28.85-14.17-56.59-3.73-71.69,4.65V186a5.91,5.91,0,0,0-5.91-5.91H46.85a5.91,5.91,0,1,0-.44,11.81H89.67v97.85H46.85a5.91,5.91,0,1,0-.44,11.81H95.58a5.92,5.92,0,0,0,5.91-5.91h0v-8.52c8.16-7.73,22.83-18.45,31.62-17.5l74.14,24.65a50.89,50.89,0,0,0,20.05,3.87c10,0,22.92-2.64,36.92-12.07l99-66.16a11.43,11.43,0,0,0,5.36-7.7C369.36,207.12,366.15,202.5,363.09,198.55Zm-6.48,11.59-99,66.16c-23.91,16.09-43.43,8.17-45.6,7.2a10.06,10.06,0,0,0-1.38-.53l-74.11-24.65A10.45,10.45,0,0,0,135,258c-11.35-1.6-24.71,6.74-33.55,13.64v-64c10.29-6.83,38.05-21.8,66.48-7.83,18.06,8.87,40.75,10.25,43.53,10.4a8.89,8.89,0,0,0,1.93,0c7.76-.69,49,0,57.85,19a.67.67,0,0,1-.07.72,1,1,0,0,1-.8.46H204.94a5.91,5.91,0,0,0-.43,11.82H270.4a12.73,12.73,0,0,0,10.79-5.93,12.53,12.53,0,0,0,2-6.31c.22-.06.43-.14.64-.22l47.95-22.77c.39-.1.8-.19,1.15-.32,2-.65,3.92-1.3,5.65-1.9,10.22-3.51,11.46-3.74,15.2,1.11a24.09,24.09,0,0,1,2.9,4.31Z" transform="translate(-40.72 -34.22)"/><path class="cls-3" d="M186.51,125.9l-35-25.23,35-25.23a5.91,5.91,0,1,0-6.91-9.6h0L138,95.92h0l-.24.19-.23.19c-.06,0-.1.11-.16.16l-.26.27-.1.12c-.1.11-.19.23-.28.35h0l-.06.1-.24.36-.1.19a3.18,3.18,0,0,0-.16.32l-.11.25-.11.27-.09.3a1.09,1.09,0,0,1-.07.24l-.07.32v2.2l.07.33a.73.73,0,0,0,.07.24l.09.3.11.27a.62.62,0,0,0,.11.25c0,.09.1.21.16.32s.06.12.1.19l.24.36.06.1h0a5.66,5.66,0,0,0,.43.54l.06,0a3.78,3.78,0,0,0,.41.39l.23.18.18.15,41.65,30a5.91,5.91,0,1,0,6.91-9.6Z" transform="translate(-40.72 -34.22)"/><path class="cls-4" d="M284.15,103.45l.15-.29.11-.26c0-.09.07-.17.09-.26s.08-.21.11-.31l.06-.23a2.55,2.55,0,0,0,.07-.32l0-.24V99.81l0-.24a1.14,1.14,0,0,0-.07-.32L284.6,99c0-.1-.06-.21-.1-.31a1,1,0,0,0-.09-.25c0-.09-.07-.18-.11-.27l-.15-.28a1.71,1.71,0,0,0-.13-.23l-.18-.29-.1-.16,0,0-.21-.27-.17-.2-.19-.19-.23-.24-.16-.12a2.78,2.78,0,0,0-.32-.26h0l-41.64-30a5.91,5.91,0,0,0-6.91,9.6l34.93,25.19-35,25.23a5.91,5.91,0,0,0,6.91,9.6l41.65-30,.2-.15.22-.17c.14-.13.27-.25.4-.39l.07-.07a5.3,5.3,0,0,0,.42-.52h0a.91.91,0,0,1,.11-.16c.06-.1.12-.19.18-.3Z" transform="translate(-40.72 -34.22)"/><path class="cls-5" d="M228.18,34.43a5.9,5.9,0,0,0-7.24,4.14v0L188,160.14a5.91,5.91,0,0,0,4.16,7.25,5.89,5.89,0,0,0,7.25-4.16L232.34,41.68a5.91,5.91,0,0,0-4.15-7.25Z" transform="translate(-40.72 -34.22)"/><circle class="cls-6" cx="38.89" cy="166.75" r="4.44"/><circle class="cls-7" cx="38.89" cy="182.63" r="4.44"/><circle class="cls-8" cx="38.89" cy="198.51" r="4.44"/><circle class="cls-9" cx="38.89" cy="214.39" r="4.44"/><circle class="cls-10" cx="38.89" cy="230.27" r="4.44"/><circle class="cls-11" cx="38.89" cy="246.15" r="4.44"/><circle class="cls-12" cx="23.79" cy="166.95" r="4.44"/><circle class="cls-13" cx="23.79" cy="182.83" r="4.44"/><circle class="cls-14" cx="23.79" cy="198.71" r="4.44"/><circle class="cls-15" cx="23.79" cy="214.59" r="4.44"/><circle class="cls-16" cx="23.79" cy="230.48" r="4.44"/><circle class="cls-17" cx="23.79" cy="246.36" r="4.44"/><circle class="cls-18" cx="8.6" cy="166.95" r="4.44"/><circle class="cls-19" cx="8.6" cy="182.83" r="4.44"/><circle class="cls-20" cx="8.6" cy="198.71" r="4.44"/><circle class="cls-21" cx="49.32" cy="248.82" r="4.44" transform="translate(-43.25 -33.71) rotate(-0.58)"/><circle class="cls-22" cx="49.32" cy="264.7" r="4.44" transform="translate(-43.42 -33.71) rotate(-0.58)"/><circle class="cls-23" cx="49.32" cy="280.59" r="4.44" transform="translate(-43.58 -33.7) rotate(-0.58)"/></svg>