<svg xmlns="http://www.w3.org/2000/svg" xmlns:xlink="http://www.w3.org/1999/xlink" viewBox="0 0 153.94 137.95"><defs><style>.cls-1{fill:url(#linear-gradient);}</style><linearGradient id="linear-gradient" y1="68.97" x2="153.94" y2="68.97" gradientUnits="userSpaceOnUse"><stop offset="0" stop-color="#d60d47"/><stop offset="1" stop-color="#ef7726"/></linearGradient></defs><title>Asset 10</title><g id="Layer_2" data-name="Layer 2"><g id="Layer_1-2" data-name="Layer 1"><path class="cls-1" d="M149,83.28v-28l.91-.52a8.1,8.1,0,0,0,0-14L81,1.08a8.1,8.1,0,0,0-8.08,0L4.06,40.75a8.1,8.1,0,0,0,0,14l17.12,9.86V82.16a55.79,55.79,0,0,0,111.58,0V64.65l8.16-4.7v23.2a9.13,9.13,0,1,0,8.05.13Zm-24.26-1.12a47.74,47.74,0,0,1-95.48,0V69.82L72.93,95A8.15,8.15,0,0,0,81,95l43.7-25.17ZM76.94,87.48,8.08,47.72,76.94,8.05H77l68.86,39.76Z"/></g></g></svg>