<svg xmlns="http://www.w3.org/2000/svg" xmlns:xlink="http://www.w3.org/1999/xlink" viewBox="0 0 156.58 149.26"><defs><style>.cls-1{fill:url(#linear-gradient);}</style><linearGradient id="linear-gradient" y1="74.63" x2="156.58" y2="74.63" gradientUnits="userSpaceOnUse"><stop offset="0" stop-color="#d60d47"/><stop offset="1" stop-color="#ef7726"/></linearGradient></defs><title>Asset 4</title><g id="Layer_2" data-name="Layer 2"><g id="Layer_1-2" data-name="Layer 1"><path class="cls-1" d="M124.48,149.26a3.6,3.6,0,0,1-1.65-.41L78.29,125.43,33.74,148.85a3.54,3.54,0,0,1-5.14-3.73l8.51-49.61-36-35.12a3.54,3.54,0,0,1,2-6L52.84,47.1,75.11,2a3.55,3.55,0,0,1,3.18-2h0a3.55,3.55,0,0,1,3.18,2L103.74,47.1l49.8,7.24a3.55,3.55,0,0,1,2,6l-36,35.12L128,145.12a3.55,3.55,0,0,1-3.5,4.14ZM11.16,60.32,43.39,91.74a3.55,3.55,0,0,1,1,3.14L36.8,139.24l39.84-21a3.56,3.56,0,0,1,3.3,0l39.84,21-7.61-44.36a3.53,3.53,0,0,1,1-3.14l32.23-31.42-44.54-6.47a3.52,3.52,0,0,1-2.67-1.94L78.29,11.55,58.37,51.91a3.56,3.56,0,0,1-2.67,1.94Z"/></g></g></svg>