<svg xmlns="http://www.w3.org/2000/svg" xmlns:xlink="http://www.w3.org/1999/xlink" viewBox="0 0 159.56 124.15"><defs><style>.cls-1{fill:none;}.cls-2{fill:url(#linear-gradient);}.cls-3{clip-path:url(#clip-path);}.cls-4{fill:url(#linear-gradient-2);}</style><linearGradient id="linear-gradient" y1="62.08" x2="159.56" y2="62.08" gradientUnits="userSpaceOnUse"><stop offset="0" stop-color="#d60d47"/><stop offset="1" stop-color="#ef7726"/></linearGradient><clipPath id="clip-path"><circle class="cls-1" cx="79.78" cy="74.45" r="31.76"/></clipPath><linearGradient id="linear-gradient-2" x1="50.56" y1="46.26" x2="115.42" y2="46.26" gradientTransform="translate(-5.3 32.16) rotate(-2.7)" xlink:href="#linear-gradient"/></defs><title>Asset 5</title><g id="Layer_2" data-name="Layer 2"><g id="Layer_1-2" data-name="Layer 1"><path class="cls-2" d="M44.79,117a33.1,33.1,0,0,1-3.85-.07,36.4,36.4,0,0,1-6.6-71.55l2.16-.56.43-2.19A44.18,44.18,0,0,1,85.61,7.41c22.18,2.69,38.62,22,38.72,44.31v2.17l2.83.57a31.62,31.62,0,0,1-4,62.52l-.85.09H110.6v7.08h12.87l3.54-.49a38.71,38.71,0,0,0,4.32-75.48,51.21,51.21,0,0,0-100.89-9A43.5,43.5,0,0,0,41.37,124.1v.05H49v-7.08h-.5"/><g class="cls-3"><path class="cls-4" d="M105.08,81c0-.18.08-.36.12-.54l.18-.8c.07-.38.14-.75.2-1.13s.08-.53.11-.8.09-.76.12-1.15c0-.16,0-.31,0-.46s0-.27,0-.41c0-.34,0-.69,0-1s0-.69,0-1c0-.14,0-.27,0-.41s0-.3,0-.46c0-.39-.06-.77-.1-1.15s-.06-.54-.1-.8-.11-.76-.18-1.13-.11-.54-.16-.81-.07-.36-.11-.54l6.61-3.28-1.61-3.24.37-.24-2.14-3.34-1.76-3.55-.4.2-2-3.05-6.22,4-.36-.33c-.24-.23-.49-.45-.74-.67s-.46-.4-.7-.59-.54-.44-.82-.65l-.72-.52c-.29-.2-.58-.4-.88-.59s-.5-.32-.76-.47l-.91-.52c-.27-.15-.55-.29-.82-.42l-.92-.44-.91-.38-.89-.35-1-.34c-.16,0-.31-.11-.47-.15L87.65,42,84,41.79l0-.44-4,.19-4-.25,0,.44-3.62.17.34,7.38c-.16,0-.31.1-.47.15l-1,.32c-.31.1-.61.22-.91.33l-.91.37c-.31.13-.62.27-.92.42l-.83.41-.92.5c-.26.15-.52.3-.77.46s-.6.38-.89.58-.49.33-.73.51-.56.41-.83.63-.48.38-.71.58-.5.43-.75.66l-.36.32-6.15-4.1-2,3-.39-.2-1.82,3.52-2.2,3.3.37.24-1.66,3.23,6.55,3.38c0,.18-.07.36-.11.54s-.13.53-.18.8S54,70,54,70.38l-.12.8c0,.38-.08.76-.11,1.15,0,.15,0,.3,0,.46s0,.27,0,.41c0,.34,0,.69,0,1s0,.69,0,1c0,.13,0,.27,0,.41s0,.3,0,.46c0,.38.05.77.09,1.15s.07.53.1.8.12.76.19,1.13.1.54.16.81.07.36.11.54l-6.61,3.27,1.61,3.25-.37.24,2.14,3.34,1.76,3.55.39-.2,2,3,6.22-4c.11.11.24.21.36.33l.73.67.71.59c.26.22.54.44.81.65l.72.52.89.59.75.47c.3.18.61.35.92.52l.82.42.92.44.9.38c.3.12.6.24.9.34s.67.24,1,.34c.15.05.31.12.47.16l-.47,7.37,3.62.24,0,.44,4-.19,3.95.25,0-.44,3.62-.17-.35-7.38c.16,0,.32-.1.48-.15l1-.32.9-.33.91-.37c.32-.13.62-.27.93-.42l.82-.41c.32-.16.62-.33.93-.51s.51-.29.76-.45.6-.38.89-.58.49-.33.73-.51.56-.41.83-.63l.72-.58c.25-.21.5-.43.74-.66l.37-.32,6.15,4.09,2-3,.39.2,1.82-3.52,2.19-3.3L110,87.6l1.66-3.22Zm-9-5.56c0,.19,0,.37,0,.55,0,.38-.07.75-.13,1.11,0,.19-.08.37-.12.56-.07.35-.13.69-.22,1s-.14.44-.21.67-.17.57-.28.85-.21.5-.32.76-.2.46-.31.69-.28.52-.42.78-.22.4-.34.6-.33.5-.5.74l-.39.56c-.18.23-.36.44-.55.66s-.3.37-.47.55-.37.38-.56.56-.37.38-.57.55-.37.31-.55.46-.44.37-.67.54l-.57.37c-.25.17-.49.34-.75.5l-.6.32c-.26.14-.52.29-.79.42l-.7.29c-.25.11-.51.22-.77.31s-.56.18-.85.26-.44.15-.67.2-.68.15-1,.21l-.56.11c-.37,0-.74.08-1.11.11-.19,0-.37,0-.55,0s-.57,0-.86,0-.56,0-.85,0-.37,0-.55-.06c-.37,0-.75-.07-1.11-.12l-.56-.12c-.34-.07-.69-.14-1-.23l-.67-.21c-.28-.08-.57-.17-.84-.27s-.51-.22-.76-.33-.47-.19-.69-.3-.53-.28-.79-.43-.4-.21-.6-.33-.5-.34-.74-.51-.38-.25-.56-.39-.44-.36-.66-.54l-.55-.47c-.19-.18-.37-.37-.56-.56s-.37-.37-.55-.57-.31-.37-.46-.56-.37-.44-.53-.67-.26-.37-.38-.56-.34-.5-.5-.75l-.32-.6c-.14-.27-.29-.53-.42-.8s-.19-.46-.29-.69-.22-.51-.31-.77-.18-.56-.26-.85-.14-.45-.2-.68-.14-.68-.21-1-.08-.38-.1-.57c-.06-.36-.08-.73-.11-1.11,0-.18,0-.36,0-.55s0-.57,0-.85,0-.57,0-.85,0-.37.06-.55c0-.38.07-.75.13-1.11,0-.19.08-.38.11-.56.07-.35.14-.69.23-1s.14-.45.21-.67.17-.57.27-.85.22-.5.33-.76.19-.46.3-.69.28-.52.43-.78.22-.41.33-.6.34-.5.51-.75.25-.37.39-.55.36-.44.55-.66.3-.38.46-.55.37-.38.56-.56.37-.38.57-.55.37-.31.56-.46.44-.37.67-.54l.56-.38c.25-.16.5-.34.76-.49s.4-.22.6-.32.52-.29.79-.42.46-.2.7-.29.5-.22.76-.31.57-.18.85-.26.45-.15.68-.2.68-.15,1-.21l.56-.11c.36,0,.74-.08,1.11-.11.18,0,.36,0,.55,0s.57,0,.85,0,.57,0,.86,0l.55.06c.37,0,.74.06,1.1.12.19,0,.38.08.56.12.35.07.69.13,1,.22l.67.21.85.28.76.32c.23.1.47.2.69.31s.53.28.79.43.4.21.59.33.5.33.75.51l.55.38.67.55c.18.16.37.31.54.47s.38.37.57.56.37.37.54.57.31.37.46.56.37.44.54.67.25.37.38.56.34.49.49.75.22.4.33.6.28.53.41.8.2.46.29.69.22.51.31.77.18.56.27.85.14.45.2.67.14.69.2,1c0,.19.08.38.11.57,0,.36.08.73.11,1.11,0,.18,0,.36,0,.55s0,.57,0,.85S96.13,75.16,96.11,75.44Z"/></g></g></g></svg>