<svg id="Layer_5" data-name="Layer 5" xmlns="http://www.w3.org/2000/svg" xmlns:xlink="http://www.w3.org/1999/xlink" viewBox="0 0 293.48 266.45"><defs><style>.cls-1{fill:url(#linear-gradient);}.cls-2{fill:url(#linear-gradient-2);}.cls-3{fill:url(#linear-gradient-3);}.cls-4{fill:url(#linear-gradient-4);}</style><linearGradient id="linear-gradient" x1="58.09" y1="167.12" x2="351.57" y2="167.12" gradientUnits="userSpaceOnUse"><stop offset="0" stop-color="#d60d47"/><stop offset="1" stop-color="#ef7726"/></linearGradient><linearGradient id="linear-gradient-2" x1="255.12" y1="29.73" x2="267.05" y2="29.73" xlink:href="#linear-gradient"/><linearGradient id="linear-gradient-3" x1="233.81" y1="29.73" x2="245.73" y2="29.73" xlink:href="#linear-gradient"/><linearGradient id="linear-gradient-4" x1="212.49" y1="29.73" x2="224.42" y2="29.73" xlink:href="#linear-gradient"/></defs><title>icon-technology</title><path class="cls-1" d="M324.22,33.89H85.44A27.38,27.38,0,0,0,58.09,61.24V212.1a27.38,27.38,0,0,0,27.35,27.35H198.58v48.4H149.15a6.25,6.25,0,0,0,0,12.49H260.51a6.25,6.25,0,0,0,0-12.49H211.08v-48.4H324.22a27.38,27.38,0,0,0,27.35-27.35V61.24A27.38,27.38,0,0,0,324.22,33.89ZM85.44,46.38H324.22a14.88,14.88,0,0,1,14.86,14.86V79.46H70.58V61.24A14.88,14.88,0,0,1,85.44,46.38ZM324.22,227H85.44A14.87,14.87,0,0,1,70.58,212.1V92h268.5V212.1A14.87,14.87,0,0,1,324.22,227Z" transform="translate(-58.09 -33.89)"/><circle class="cls-2" cx="261.08" cy="29.73" r="5.96"/><circle class="cls-3" cx="239.77" cy="29.73" r="5.96"/><circle class="cls-4" cx="218.46" cy="29.73" r="5.96"/></svg>