<svg id="Layer_5" data-name="Layer 5" xmlns="http://www.w3.org/2000/svg" xmlns:xlink="http://www.w3.org/1999/xlink" viewBox="0 0 266 266"><defs><style>.cls-1{fill:url(#linear-gradient);}</style><linearGradient id="linear-gradient" x1="71.83" y1="167.12" x2="337.83" y2="167.12" gradientUnits="userSpaceOnUse"><stop offset="0" stop-color="#d60d47"/><stop offset="1" stop-color="#ef7726"/></linearGradient></defs><title>icon-xp</title><path class="cls-1" d="M204.83,34.12a5.57,5.57,0,0,0,0,11.14,121.86,121.86,0,1,1-39.2,237.24c-3.09-34.25,2-57.88,15.68-72.21,12.78-13.44,33.85-19.78,65.74-19.76l-6.48,4.67a5.58,5.58,0,0,0,6.52,9.05l20.11-14.5.08-.07A5.28,5.28,0,0,0,268,189s0,0,.05,0a6,6,0,0,0,.38-.47,1.62,1.62,0,0,0,.1-.18,5.48,5.48,0,0,0,.31-.52c.07-.15.15-.3.22-.46a4.68,4.68,0,0,0,.17-.53c.05-.17.1-.33.14-.5a5.43,5.43,0,0,0,.06-.55,4.38,4.38,0,0,0,0-.51c0-.19,0-.38,0-.58s0-.32-.06-.47a5.29,5.29,0,0,0-.15-.57c-.05-.16-.1-.32-.16-.48a4.44,4.44,0,0,0-.24-.49,4.76,4.76,0,0,0-.28-.49,1.86,1.86,0,0,0-.11-.19,2.41,2.41,0,0,0-.21-.24,4,4,0,0,0-.39-.43,4.48,4.48,0,0,0-.4-.36l-.26-.23-20.11-14.49a5.57,5.57,0,0,0-6.52,9l5.73,4.13c-34.76.1-58.17,7.56-73.07,23.21-15.17,15.94-21.46,40.62-19.15,75.28a122.37,122.37,0,0,1-37.82-27.17c-6.15-57.93,22.43-91,89.61-103.28l-4.27,4.16a5.57,5.57,0,1,0,7.77,8l17.76-17.28.05-.05a6.6,6.6,0,0,0,.64-.76l.12-.2a3.58,3.58,0,0,0,.25-.42l.08-.18c.08-.19.16-.38.22-.57a4,4,0,0,0,.15-.49,4.32,4.32,0,0,0,.1-.54c0-.18,0-.35.06-.53a4.69,4.69,0,0,0,0-.53,4.93,4.93,0,0,0,0-.54c0-.17-.07-.34-.11-.52a4.84,4.84,0,0,0-.14-.51c-.06-.17-.14-.33-.21-.49s-.16-.33-.25-.5l-.28-.41a5.84,5.84,0,0,0-.39-.48,1.67,1.67,0,0,0-.12-.16c-.07-.07-.15-.12-.22-.18a4.63,4.63,0,0,0-.48-.4,5,5,0,0,0-.45-.3c-.1,0-.18-.13-.28-.18L203.8,122a5.58,5.58,0,0,0-5.13,9.9l8,4.12c-67.75,11.83-102.07,45.38-102.3,99.95a121.29,121.29,0,0,1-14.32-28c.44-58.61,35.5-80.41,71.16-96.22l-4.1,7.72a5.57,5.57,0,1,0,9.84,5.23l11-20.8a5.54,5.54,0,0,0,.89-5.73,3.94,3.94,0,0,0-.29-.54l-.06-.12a4.57,4.57,0,0,0-.29-.47l-.16-.21c-.11-.14-.24-.28-.37-.42a4.31,4.31,0,0,0-.37-.37,4.12,4.12,0,0,0-.41-.32,4.39,4.39,0,0,0-.5-.34l-.17-.11a2.33,2.33,0,0,0-.28-.11,3.76,3.76,0,0,0-.55-.23l-.54-.15c-.11,0-.21-.07-.32-.08L150.1,90.56a5.58,5.58,0,1,0-1.84,11l6.06,1c-29.62,13.38-60.06,32-71.11,71.93q-.22-3.66-.23-7.38A121.76,121.76,0,0,1,117.65,82l-.78,8.79a5.57,5.57,0,0,0,5.06,6l.5,0A5.58,5.58,0,0,0,128,91.76l2.17-24.68c0-.11,0-.21,0-.32s0-.38,0-.57a3.81,3.81,0,0,0-.08-.59c0-.1,0-.2,0-.3s-.05-.13-.06-.19a5.89,5.89,0,0,0-.21-.59c-.06-.15-.12-.3-.19-.45s-.2-.34-.3-.5-.18-.28-.28-.41a5.48,5.48,0,0,0-.4-.44c-.11-.11-.21-.22-.33-.32a6,6,0,0,0-.5-.38c-.12-.08-.24-.17-.36-.24a4.11,4.11,0,0,0-.56-.27l-.44-.19-.53-.14-.57-.11-.2,0h-.28a5,5,0,0,0-.67,0,2.57,2.57,0,0,0-.4.06,3.18,3.18,0,0,0-.43.06L99.2,66.9a5.58,5.58,0,0,0,1.29,11,5.74,5.74,0,0,0,1.29-.15l5.83-1.39A133,133,0,0,0,79,210.13a5.6,5.6,0,0,0,.49,1.39,133.25,133.25,0,0,0,26.6,44.57,5.49,5.49,0,0,0,1.8,1.94,132.61,132.61,0,0,0,97,42.09c73.34,0,133-59.67,133-133S278.17,34.12,204.83,34.12Z" transform="translate(-71.83 -34.12)"/></svg>