<?xml version="1.0" encoding="utf-8"?>
<!-- Generator: Adobe Illustrator 23.1.1, SVG Export Plug-In . SVG Version: 6.00 Build 0)  -->
<svg version="1.1" id="Layer_3" xmlns="http://www.w3.org/2000/svg" xmlns:xlink="http://www.w3.org/1999/xlink" x="0px" y="0px"
	 viewBox="0 0 492 492" style="enable-background:new 0 0 492 492;" xml:space="preserve">
<style type="text/css">
	.st0{fill:url(#SVGID_1_);}
	.st1{fill:url(#SVGID_2_);}
	.st2{fill:url(#SVGID_3_);}
	.st3{fill:url(#SVGID_4_);}
	.st4{fill:url(#SVGID_5_);}
</style>
<g>
	<linearGradient id="SVGID_1_" gradientUnits="userSpaceOnUse" x1="96.2408" y1="347.894" x2="392.2292" y2="51.9055">
		<stop  offset="0" style="stop-color:#D60D47"/>
		<stop  offset="1" style="stop-color:#EF7726"/>
	</linearGradient>
	<path class="st0" d="M406.4,72.9H82.1c-9.1,0-16.5,7.4-16.5,16.5v221.1c0,9.1,7.4,16.5,16.5,16.5h132.3l-49,72.3
		c-1.4,2.1-0.9,4.9,1.2,6.2c0.8,0.5,1.7,0.8,2.5,0.8c1.4,0,2.9-0.7,3.7-2l52.5-77.4h16.2v100.9c0,2.5,2,4.5,4.5,4.5s4.5-2,4.5-4.5
		V326.9h16.2l52.5,77.4c0.9,1.3,2.3,2,3.7,2c0.9,0,1.7-0.3,2.5-0.8c2.1-1.4,2.6-4.2,1.2-6.3l-49-72.3h128.8
		c9.1,0,16.5-7.4,16.5-16.5V89.4C422.9,80.3,415.5,72.9,406.4,72.9z M413.9,310.4c0,4.1-3.4,7.5-7.5,7.5H82.1
		c-4.1,0-7.5-3.4-7.5-7.5V89.4c0-4.1,3.4-7.5,7.5-7.5h324.3c4.1,0,7.5,3.4,7.5,7.5V310.4z"/>
	<linearGradient id="SVGID_2_" gradientUnits="userSpaceOnUse" x1="299.9752" y1="193.5694" x2="349.2943" y2="144.2503">
		<stop  offset="0" style="stop-color:#D60D47"/>
		<stop  offset="1" style="stop-color:#EF7726"/>
	</linearGradient>
	<path class="st1" d="M367.6,164.4h-85.9c-2.5,0-4.5,2-4.5,4.5s2,4.5,4.5,4.5h85.9c2.5,0,4.5-2,4.5-4.5S370.1,164.4,367.6,164.4z"/>
	<linearGradient id="SVGID_3_" gradientUnits="userSpaceOnUse" x1="129.8675" y1="250.2817" x2="229.8225" y2="150.3267">
		<stop  offset="0" style="stop-color:#D60D47"/>
		<stop  offset="1" style="stop-color:#EF7726"/>
	</linearGradient>
	<path class="st2" d="M239.7,161.3c0-0.2-0.1-0.3-0.1-0.5c0-0.1,0-0.1-0.1-0.2c-0.1-0.2-0.1-0.4-0.2-0.5c0,0,0,0,0-0.1
		c-0.1-0.2-0.2-0.4-0.3-0.5c0,0-0.1-0.1-0.1-0.1c-0.1-0.1-0.2-0.2-0.3-0.4c0,0-0.1-0.1-0.1-0.1c-0.1-0.1-0.2-0.2-0.4-0.3
		c0,0-0.1-0.1-0.1-0.1c0,0,0,0,0,0c-0.2-0.1-0.3-0.2-0.5-0.3c0,0-0.1,0-0.1-0.1c-0.2-0.1-0.3-0.1-0.5-0.2c0,0-0.1,0-0.1,0
		l-55.4-18.6c-0.9-0.3-1.9-0.3-2.9,0L123,157.9c0,0-0.1,0-0.1,0c-0.2,0.1-0.3,0.1-0.5,0.2c0,0-0.1,0-0.1,0.1
		c-0.2,0.1-0.3,0.2-0.5,0.3c0,0,0,0,0,0c0,0-0.1,0.1-0.1,0.1c-0.1,0.1-0.3,0.2-0.4,0.3c0,0-0.1,0.1-0.1,0.1
		c-0.1,0.1-0.2,0.2-0.3,0.4c0,0-0.1,0.1-0.1,0.1c-0.1,0.2-0.2,0.3-0.3,0.5c0,0,0,0,0,0.1c-0.1,0.2-0.2,0.3-0.2,0.5
		c0,0.1,0,0.1-0.1,0.2c0,0.1-0.1,0.3-0.1,0.5c0,0.1,0,0.1,0,0.2c0,0.2,0,0.4,0,0.6v76.3c0,2,1.3,3.7,3.1,4.3l55.4,17.8
		c0.1,0,0.1,0,0.2,0.1c0,0,0,0,0,0c0,0,0,0,0,0c0.4,0.1,0.8,0.2,1.2,0.2c0,0,0.1,0,0.1,0c0,0,0,0,0,0c0,0,0,0,0,0
		c0.3,0,0.7-0.1,1-0.1c0,0,0,0,0,0c0,0,0,0,0,0c0,0,0,0,0,0h0c0.1,0,0.2,0,0.2-0.1l55.4-17.8c1.9-0.6,3.1-2.3,3.1-4.3v-76.3
		c0-0.2,0-0.4,0-0.6C239.7,161.4,239.7,161.4,239.7,161.3z M179.8,148.3l41.1,13.8l-41.1,13.3l-41.1-13.3L179.8,148.3z M128.9,235.2
		v-66.9l46.4,15.1v66.7L128.9,235.2z M184.3,250.1v-66.7l5.2-1.7l41.2-13.4v66.9L184.3,250.1z"/>
	<linearGradient id="SVGID_4_" gradientUnits="userSpaceOnUse" x1="299.9752" y1="263.0294" x2="349.2943" y2="213.7103">
		<stop  offset="0" style="stop-color:#D60D47"/>
		<stop  offset="1" style="stop-color:#EF7726"/>
	</linearGradient>
	<path class="st3" d="M367.6,233.9h-85.9c-2.5,0-4.5,2-4.5,4.5s2,4.5,4.5,4.5h85.9c2.5,0,4.5-2,4.5-4.5S370.1,233.9,367.6,233.9z"/>
	<linearGradient id="SVGID_5_" gradientUnits="userSpaceOnUse" x1="299.9752" y1="228.2994" x2="349.2943" y2="178.9803">
		<stop  offset="0" style="stop-color:#D60D47"/>
		<stop  offset="1" style="stop-color:#EF7726"/>
	</linearGradient>
	<path class="st4" d="M367.6,199.1h-85.9c-2.5,0-4.5,2-4.5,4.5s2,4.5,4.5,4.5h85.9c2.5,0,4.5-2,4.5-4.5S370.1,199.1,367.6,199.1z"/>
</g>
</svg>
