<svg id="Layer_5" data-name="Layer 5" xmlns="http://www.w3.org/2000/svg" xmlns:xlink="http://www.w3.org/1999/xlink" viewBox="0 0 292 266.34"><defs><style>.cls-1{fill:url(#linear-gradient);}.cls-2{fill:url(#linear-gradient-2);}.cls-3{fill:url(#linear-gradient-3);}</style><linearGradient id="linear-gradient" x1="85.27" y1="159.52" x2="154.8" y2="159.52" gradientUnits="userSpaceOnUse"><stop offset="0" stop-color="#d60d47"/><stop offset="1" stop-color="#ef7726"/></linearGradient><linearGradient id="linear-gradient-2" x1="58" y1="153.36" x2="303.61" y2="153.36" xlink:href="#linear-gradient"/><linearGradient id="linear-gradient-3" x1="256.73" y1="268.03" x2="350" y2="268.03" xlink:href="#linear-gradient"/></defs><title>icon-agile</title><path class="cls-1" d="M130.05,252.53a5.4,5.4,0,0,0,7.56-1.17,5.4,5.4,0,0,0-1.17-7.56,98.37,98.37,0,0,1,15.3-168A5.41,5.41,0,0,0,147,66a109.19,109.19,0,0,0-17,186.53Z" transform="translate(-58 -33.19)"/><path class="cls-2" d="M303.61,164.37A109.3,109.3,0,0,0,206.83,56l26.34-12.46a5.41,5.41,0,1,0-4.63-9.78L188.21,52.79a4.45,4.45,0,0,0-.69.52,4.35,4.35,0,0,0-.74.46c-.05,0-.07.12-.12.18a5,5,0,0,0-.65.93,5.47,5.47,0,0,0-.5.84,5.23,5.23,0,0,0-.21,1,5.33,5.33,0,0,0-.16,1.05,4.93,4.93,0,0,0,.16.92,4.92,4.92,0,0,0,.28,1.13c0,.07,0,.14,0,.21a5.08,5.08,0,0,0,1,1.37l0,.05,30.85,32.24a5.41,5.41,0,0,0,7.82-7.48L206.82,66.89a98.3,98.3,0,0,1-12.38,195.83h-131a5.41,5.41,0,0,0,0,10.82H195.6c.13,0,.25-.07.38-.08A109.26,109.26,0,0,0,303.61,164.37Z" transform="translate(-58 -33.19)"/><path class="cls-3" d="M350,269.06a4.27,4.27,0,0,0-.33-2.95,5.6,5.6,0,0,0-.47-1.06c0-.06-.05-.13-.09-.19a5.77,5.77,0,0,0-.63-.58,5.17,5.17,0,0,0-.6-.64l-36.19-26.1a5.41,5.41,0,0,0-6.33,8.78l22.74,16.4H262.15a5.41,5.41,0,1,0,0,10.82h65.62l-22.45,16.19a5.41,5.41,0,0,0,6.33,8.78l36.19-26.09a5.41,5.41,0,0,0,.8-.86c.13-.15.31-.21.43-.37s.05-.13.09-.19a5.81,5.81,0,0,0,.47-1.05A5,5,0,0,0,350,269.06Z" transform="translate(-58 -33.19)"/></svg>