<svg xmlns="http://www.w3.org/2000/svg" xmlns:xlink="http://www.w3.org/1999/xlink" viewBox="0 0 121.98 128.84"><defs><style>.cls-1{fill:url(#linear-gradient);}.cls-2{fill:url(#linear-gradient-2);}.cls-3{fill:url(#linear-gradient-3);}.cls-4{fill:url(#linear-gradient-4);}.cls-5{fill:url(#linear-gradient-5);}</style><linearGradient id="linear-gradient" x1="14.74" y1="-7.12" x2="107.24" y2="85.37" gradientUnits="userSpaceOnUse"><stop offset="0" stop-color="#d60d47"/><stop offset="1" stop-color="#ef7726"/></linearGradient><linearGradient id="linear-gradient-2" x1="5.57" y1="88.79" x2="43.57" y2="126.79" xlink:href="#linear-gradient"/><linearGradient id="linear-gradient-3" x1="76.05" y1="78.07" x2="107.49" y2="109.51" xlink:href="#linear-gradient"/><linearGradient id="linear-gradient-4" x1="76.05" y1="107.33" x2="107.49" y2="138.77" xlink:href="#linear-gradient"/><linearGradient id="linear-gradient-5" x1="76.05" y1="93.08" x2="107.49" y2="124.51" xlink:href="#linear-gradient"/></defs><title>Asset 8</title><g id="Layer_2" data-name="Layer 2"><g id="Layer_1-2" data-name="Layer 1"><path class="cls-1" d="M109,0H13A13,13,0,0,0,0,13V65.26a13,13,0,0,0,13,13h96a13,13,0,0,0,13-13V13A13,13,0,0,0,109,0Zm7.07,65.26A7.07,7.07,0,0,1,109,72.32H13a7.07,7.07,0,0,1-7.07-7.06V13A7.08,7.08,0,0,1,13,5.92h96A7.08,7.08,0,0,1,116.06,13Z"/><path class="cls-2" d="M36.16,86.75H13a13,13,0,0,0-13,13v16.1a13,13,0,0,0,13,13H36.16a13,13,0,0,0,13-13V99.74A13,13,0,0,0,36.16,86.75Zm7.06,29.09a7.07,7.07,0,0,1-7.06,7.07H13a7.08,7.08,0,0,1-7.07-7.07V99.74A7.08,7.08,0,0,1,13,92.67H36.16a7.07,7.07,0,0,1,7.06,7.07Z"/><path class="cls-3" d="M119,90.83H64.52a3,3,0,1,0,0,5.92H119a3,3,0,1,0,0-5.92Z"/><path class="cls-4" d="M119,120.09H64.52a3,3,0,1,0,0,5.92H119a3,3,0,1,0,0-5.92Z"/><path class="cls-5" d="M119,105.83H64.52a3,3,0,0,0,0,5.93H119a3,3,0,0,0,0-5.93Z"/></g></g></svg>