<svg id="Layer_5" data-name="Layer 5" xmlns="http://www.w3.org/2000/svg" xmlns:xlink="http://www.w3.org/1999/xlink" viewBox="0 0 217.08 265.93"><defs><style>.cls-1{fill:url(#linear-gradient);}.cls-2{fill:url(#linear-gradient-2);}</style><linearGradient id="linear-gradient" x1="169.29" y1="144.04" x2="303.07" y2="144.04" gradientUnits="userSpaceOnUse"><stop offset="0" stop-color="#d60d47"/><stop offset="1" stop-color="#ef7726"/></linearGradient><linearGradient id="linear-gradient-2" x1="85.99" y1="188.58" x2="219.77" y2="188.58" xlink:href="#linear-gradient"/></defs><title>icon-continuous-delivery</title><path class="cls-1" d="M195.89,55.18l23.45-11.1a5.64,5.64,0,1,0-4.82-10.19l-42,19.88a3.81,3.81,0,0,0-.56.31l-.07,0a5.89,5.89,0,0,0-.84.65l0,0,0,0a5.59,5.59,0,0,0-.68.78l-.08.13a5.9,5.9,0,0,0-.45.82,1.22,1.22,0,0,0-.07.17,5.39,5.39,0,0,0-.28.86l0,.17a5.64,5.64,0,0,0-.11.92v.14a5,5,0,0,0,.07.94.51.51,0,0,0,0,.13,5.79,5.79,0,0,0,.25.93l.06.13a3.05,3.05,0,0,0,.13.32c.07.15.16.29.24.43l.12.21a6.26,6.26,0,0,0,.63.81l0,0L203,96.34a5.64,5.64,0,1,0,8.15-7.79l-21.24-22.2H191a100.81,100.81,0,0,1,64.35,178.42,5.64,5.64,0,1,0,7.2,8.68A112.09,112.09,0,0,0,195.89,55.18Z" transform="translate(-85.99 -33.35)"/><path class="cls-2" d="M218.82,276.89a5.68,5.68,0,0,0,.47-.84l.06-.15a5.41,5.41,0,0,0,.28-.89l0-.13a6.13,6.13,0,0,0,.11-1v-.09a4.72,4.72,0,0,0-.07-1,.29.29,0,0,0,0-.09,4.89,4.89,0,0,0-.26-1l0-.1c0-.12-.09-.23-.14-.34s-.2-.39-.31-.57l0-.06a5.57,5.57,0,0,0-.67-.85h0l-32.13-33.58a5.64,5.64,0,0,0-8.15,7.8l21.24,22.19h-1.1A100.81,100.81,0,0,1,133.73,87.86a5.64,5.64,0,0,0-7.21-8.67,112.08,112.08,0,0,0,66.65,198.25l-23.45,11.1a5.64,5.64,0,0,0,2.41,10.74,5.75,5.75,0,0,0,2.41-.54l42-19.88c.2-.1.39-.21.58-.32l.09-.07a5.55,5.55,0,0,0,.8-.63h0l0,0a4.78,4.78,0,0,0,.69-.8Z" transform="translate(-85.99 -33.35)"/></svg>