<?xml version="1.0" encoding="utf-8"?>
<!-- Generator: Adobe Illustrator 23.1.1, SVG Export Plug-In . SVG Version: 6.00 Build 0)  -->
<svg version="1.1" id="Layer_5" xmlns="http://www.w3.org/2000/svg" xmlns:xlink="http://www.w3.org/1999/xlink" x="0px" y="0px"
	 viewBox="0 0 492 492" style="enable-background:new 0 0 492 492;" xml:space="preserve">
<style type="text/css">
	.st0{fill:none;}
	.st1{fill:url(#SVGID_1_);}
	.st2{fill:url(#SVGID_2_);}
</style>
<path class="st0" d="M0,0"/>
<g>
	<g>
		<linearGradient id="SVGID_1_" gradientUnits="userSpaceOnUse" x1="186.9923" y1="305.4784" x2="305.0077" y2="187.4631">
			<stop  offset="0" style="stop-color:#D60D47"/>
			<stop  offset="1" style="stop-color:#EF7726"/>
		</linearGradient>
		<path class="st1" d="M246,317.9c-0.4,0-0.8-0.1-1.3-0.2h0c0,0,0,0,0,0c-0.1,0-0.2-0.1-0.3-0.1l-65.6-21.1
			c-2.1-0.7-3.5-2.6-3.5-4.8v-90.4c0-1.6,0.8-3.2,2.1-4.1c1.3-1,3-1.2,4.5-0.7l64.1,20.8l64.1-20.8c1.5-0.5,3.2-0.2,4.5,0.7
			c1.3,1,2.1,2.5,2.1,4.1v90.4c0,2.2-1.4,4.2-3.5,4.8l-65.6,21.1c-0.1,0-0.2,0.1-0.3,0.1c0,0,0,0,0,0c0,0,0,0,0,0c0,0,0,0,0,0
			C246.9,317.8,246.4,317.9,246,317.9C246,317.9,246,317.9,246,317.9z M185.4,288l55.5,17.9v-79.6l-55.5-18V288z M251.1,226.3v79.6
			l55.5-17.9v-79.7L251.1,226.3z"/>
	</g>
	<g>
		<linearGradient id="SVGID_2_" gradientUnits="userSpaceOnUse" x1="111.8235" y1="380.1839" x2="380.1917" y2="111.8158">
			<stop  offset="0" style="stop-color:#D60D47"/>
			<stop  offset="1" style="stop-color:#EF7726"/>
		</linearGradient>
		<path class="st2" d="M246,435.8C246,435.8,246,435.8,246,435.8C246,435.8,246,435.8,246,435.8L246,435.8c-0.7,0-1.3-0.1-1.9-0.4
			c0,0,0,0,0,0c0,0,0,0-0.1,0c0,0,0,0,0,0c0,0,0,0,0,0c-0.6-0.2-1.1-0.6-1.5-1l-28.8-27.9c-2-1.9-2.1-5.2-0.1-7.2
			c1.9-2,5.2-2.1,7.2-0.1l20.2,19.6v-56.6c0-2.8,2.3-5.1,5.1-5.1c2.8,0,5.1,2.3,5.1,5.1v56.6l20.2-19.6c2-2,5.2-1.9,7.2,0.1
			c2,2,1.9,5.2-0.1,7.2l-28.8,27.9c-0.4,0.4-0.9,0.7-1.4,1l0,0c0,0,0,0,0,0c0,0,0,0,0,0c0,0,0,0,0,0c-0.1,0-0.1,0-0.2,0.1
			c-0.6,0.2-1.2,0.4-1.8,0.4l0,0c0,0,0,0,0,0C246.1,435.8,246,435.8,246,435.8z M336.5,382.3c-2.8,0-5-2.2-5.1-5
			c0-2.8,2.2-5.1,5-5.2l28.1-0.4l-40-40c-2-2-2-5.2,0-7.2c2-2,5.2-2,7.2,0l40,40l0.4-28.1c0-2.8,2.3-5,5.2-5c2.8,0,5,2.4,5,5.2
			l-0.6,40.1c0,0.6-0.1,1.3-0.4,1.8c0,0,0,0,0,0c0,0,0,0,0,0l0,0c0,0,0,0,0,0c0,0,0,0,0,0c-0.2,0.6-0.6,1.2-1.1,1.7
			c-0.5,0.5-1,0.8-1.6,1.1c-0.2,0.1-0.3,0.1-0.5,0.2c0,0,0,0,0,0c-0.4,0.1-0.9,0.2-1.4,0.2c0,0,0,0,0,0h0c0,0,0,0,0,0L336.5,382.3
			C336.5,382.3,336.5,382.3,336.5,382.3z M155.5,382.3C155.5,382.3,155.5,382.3,155.5,382.3l-40.2-0.6c-0.6,0-1.2-0.1-1.7-0.3
			c0,0,0,0,0,0c0,0,0,0,0,0l0,0c-0.1,0-0.1,0-0.2-0.1c-0.5-0.2-1-0.5-1.5-1c-0.1-0.1-0.2-0.2-0.3-0.3c-0.4-0.4-0.7-0.9-0.9-1.4
			c0,0,0,0,0,0v0c-0.1-0.1-0.1-0.2-0.1-0.4c0,0,0,0,0,0c0,0,0,0,0,0c-0.2-0.5-0.3-1-0.3-1.6l-0.6-40.1c0-2.8,2.2-5.1,5-5.2
			c0,0,0.1,0,0.1,0c2.8,0,5,2.2,5.1,5l0.4,28.1l40-40c2-2,5.2-2,7.2,0c2,2,2,5.2,0,7.2l-40,40l28.1,0.4c2.8,0,5,2.4,5,5.2
			C160.6,380.1,158.3,382.3,155.5,382.3z M402.8,279.9c-1.3,0-2.5-0.5-3.5-1.4c-2-1.9-2.1-5.2-0.1-7.2l19.6-20.2h-56.6
			c-2.8,0-5.1-2.3-5.1-5.1s2.3-5.1,5.1-5.1h56.6l-19.6-20.2c-2-2-1.9-5.2,0.1-7.2c2-2,5.2-1.9,7.2,0.1l27.9,28.8
			c0.4,0.4,0.7,0.9,1,1.4c0,0,0,0,0,0c0,0,0,0,0,0c0,0.1,0.1,0.1,0.1,0.2c0.2,0.6,0.4,1.2,0.4,1.9c0,0.7-0.1,1.3-0.4,1.9
			c-0.1,0.1-0.1,0.3-0.2,0.4c-0.2,0.4-0.5,0.9-0.9,1.2l-27.9,28.8C405.4,279.4,404.1,279.9,402.8,279.9z M89.2,279.9
			c-1.3,0-2.6-0.5-3.6-1.5l-27.9-28.8c-0.4-0.4-0.7-0.8-0.9-1.3c0,0,0,0,0,0c0,0,0,0,0,0c0-0.1-0.1-0.2-0.1-0.3
			c-0.2-0.6-0.4-1.2-0.4-1.8c0,0,0,0,0,0c0,0,0,0,0,0c0,0,0,0,0,0c0,0,0,0,0,0c0-0.1,0-0.1,0-0.2c0,0,0,0,0,0c0,0,0,0,0,0
			c0,0,0,0,0,0l0,0c0-0.7,0.1-1.3,0.4-1.9c0-0.1,0.1-0.1,0.1-0.2c0,0,0,0,0,0c0,0,0,0,0,0c0.2-0.5,0.6-1,1-1.4l27.9-28.8
			c2-2,5.2-2.1,7.2-0.1c2,2,2.1,5.2,0.1,7.2l-19.6,20.2h56.6c2.8,0,5.1,2.3,5.1,5.1s-2.3,5.1-5.1,5.1H73.3l19.6,20.2
			c2,2,1.9,5.2-0.1,7.2C91.8,279.4,90.5,279.9,89.2,279.9z M246,227.6c-0.5,0-1.1-0.1-1.6-0.2l-65.6-21.3c-2.1-0.7-3.5-2.6-3.5-4.8
			c0-2.2,1.4-4.1,3.5-4.8l65.6-22.1c1-0.4,2.2-0.4,3.2,0l65.6,22.1c2.1,0.7,3.5,2.6,3.5,4.8c0,2.2-1.4,4.1-3.5,4.8l-65.6,21.3
			C247.1,227.6,246.5,227.6,246,227.6z M196.6,201.2l49.5,16l49.5-16L246,184.6L196.6,201.2z M163.9,169c-1.3,0-2.6-0.5-3.6-1.5
			l-40-40l-0.4,28.1c0,2.8-2.3,5-5.1,5c0,0-0.1,0-0.1,0c-2.8,0-5-2.4-5-5.2l0.6-40.1c0-0.6,0.1-1.2,0.3-1.7v0c0,0,0,0,0,0
			c0,0,0,0,0,0c0,0,0,0,0,0c0,0,0-0.1,0-0.1c0.2-0.6,0.6-1.1,1-1.6c0,0,0,0,0,0c0,0,0,0,0,0c0.1-0.1,0.1-0.1,0.2-0.2c0,0,0,0,0,0
			c0,0,0,0,0,0c0.4-0.4,0.9-0.7,1.5-1c0,0,0,0,0,0c0,0,0,0,0,0c0.1-0.1,0.3-0.1,0.4-0.1c0,0,0,0,0,0c0.5-0.2,1-0.3,1.5-0.3l40.1-0.6
			c2.8,0,5.1,2.2,5.2,5c0,2.8-2.2,5.1-5,5.2l-28.1,0.4l40,40c2,2,2,5.2,0,7.2C166.5,168.5,165.2,169,163.9,169z M328.1,169
			c-1.3,0-2.6-0.5-3.6-1.5c-2-2-2-5.2,0-7.2l40-40l-28.1-0.4c-2.8,0-5-2.4-5-5.2c0-2.8,2.4-5.1,5.2-5l40.1,0.6
			c0.6,0,1.1,0.1,1.7,0.3c0,0,0,0,0,0c0.1,0,0.1,0,0.2,0.1c0.6,0.2,1.1,0.6,1.6,1c0,0,0,0,0,0c0,0,0,0,0,0c0,0,0,0,0,0c0,0,0,0,0,0
			c0,0,0.1,0.1,0.1,0.1c0,0,0,0,0,0c0,0,0,0,0,0c0,0,0,0,0,0c0.4,0.5,0.7,1,1,1.5c0,0.1,0.1,0.2,0.1,0.3c0,0,0,0,0,0c0,0,0,0,0,0
			c0,0,0,0,0,0l0,0c0.2,0.5,0.3,1,0.3,1.6l0.6,40.1c0,2.8-2.2,5.1-5,5.2c0,0-0.1,0-0.1,0c-2.8,0-5-2.2-5.1-5l-0.4-28.1l-40,40
			C330.7,168.5,329.4,169,328.1,169z M246,135c-2.8,0-5.1-2.3-5.1-5.1V73.3l-20.2,19.6c-2,2-5.2,1.9-7.2-0.1c-2-2-1.9-5.2,0.1-7.2
			l28.8-27.9c0.4-0.4,0.9-0.7,1.4-1c0,0,0,0,0,0c0,0,0,0,0,0c0,0,0,0,0,0c0,0,0,0,0,0c0,0,0.1,0,0.1-0.1c0,0,0,0,0,0l0,0
			c0.6-0.2,1.2-0.4,1.8-0.4c0,0,0,0,0,0c0,0,0.1,0,0.1,0c0,0,0.1,0,0.1,0c0,0,0,0,0,0c0,0,0,0,0,0c0.6,0,1.2,0.1,1.8,0.4
			c0,0,0.1,0,0.1,0.1c0,0,0,0,0,0c0,0,0,0,0,0c0.5,0.2,1,0.6,1.5,1l28.8,27.9c2,2,2.1,5.2,0.1,7.2c-1.9,2-5.2,2.1-7.2,0.1
			l-20.2-19.6v56.6C251.1,132.7,248.8,135,246,135z"/>
	</g>
</g>
</svg>
