<svg id="Layer_5" data-name="Layer 5" xmlns="http://www.w3.org/2000/svg" xmlns:xlink="http://www.w3.org/1999/xlink" viewBox="0 0 256.58 262.48"><defs><style>.cls-1{fill:url(#linear-gradient);}</style><linearGradient id="linear-gradient" x1="76.54" y1="167.35" x2="333.12" y2="167.35" gradientUnits="userSpaceOnUse"><stop offset="0" stop-color="#d60d47"/><stop offset="1" stop-color="#ef7726"/></linearGradient></defs><title>icon-devops</title><path class="cls-1" d="M317.4,186.11a68.68,68.68,0,0,0-39.71-23.68,32.7,32.7,0,0,0-6.31-.6l-65.2,0a5.25,5.25,0,0,0-1.73.31,5.18,5.18,0,0,0-1-.09l-65.19,0a21.89,21.89,0,0,1-4.25-.39,58.22,58.22,0,0,1-33.49-20A58,58,0,0,1,109,59.58c23.37-18.7,58.23-16,78.55,5.68.38.41.76.82,1.12,1.24a57.43,57.43,0,0,1,14.46,40.15,5.22,5.22,0,0,0-.1,1.13v.55c0,.68-.08,1.35-.14,2a5.52,5.52,0,0,0,.24,2.19l.39,16.35-17.46-22.12a5.3,5.3,0,0,0-7.55-.89,5.37,5.37,0,0,0-.88,7.54l27.44,34.76a2.22,2.22,0,0,0,.28.33h0a4.77,4.77,0,0,0,.52.48l.2.15.24.18.1.05a5.41,5.41,0,0,0,.86.45l.08,0a5.51,5.51,0,0,0,.82.23l.3,0c.22,0,.44.05.67.06h.27a4.2,4.2,0,0,0,.93-.1l.08,0q.33-.07.66-.18l.15-.07.28-.13a5.49,5.49,0,0,0,.59-.31l.26-.18a4.15,4.15,0,0,0,.56-.46,1.37,1.37,0,0,0,.18-.16,6.61,6.61,0,0,0,.63-.77l0,0,24.31-37a5.37,5.37,0,0,0-9-5.89l-14.86,22.63-.46-19A68.69,68.69,0,1,0,92.26,148.57c.89,1.08,1.82,2.14,2.78,3.16A68.81,68.81,0,0,0,132,172.25a32.88,32.88,0,0,0,6.32.6l65.19,0a5.31,5.31,0,0,0,1.74-.32,5.23,5.23,0,0,0,1,.1l65.19,0a21.88,21.88,0,0,1,4.25.4,58.13,58.13,0,0,1,33.48,20,58,58,0,0,1-8.49,82.15c-23.8,19-59.76,15.91-79.67-6.93A57.39,57.39,0,0,1,206.49,228a5.34,5.34,0,0,0,.1-1.13v-.58c0-.67.07-1.34.14-2a5.45,5.45,0,0,0-.24-2.18l-.4-16.36,17.47,22.13a5.29,5.29,0,0,0,7.54.88,5.36,5.36,0,0,0,.89-7.54l-27.44-34.76c-.09-.11-.19-.21-.29-.32s-.1-.13-.16-.19a5.16,5.16,0,0,0-2.73-1.42l-.11,0a5.62,5.62,0,0,0-.92-.07h-.09a5.44,5.44,0,0,0-1,.11l-.19,0c-.19.05-.38.09-.57.16l-.15.07a2.36,2.36,0,0,0-.28.12,5.54,5.54,0,0,0-.59.32l-.26.17a5.08,5.08,0,0,0-.56.46c-.06.06-.13.11-.18.17a5.78,5.78,0,0,0-.63.76l0,0-24.31,37a5.38,5.38,0,0,0,.56,6.61,5.59,5.59,0,0,0,1,.83,5.37,5.37,0,0,0,7.44-1.54l14.86-22.63.46,19a68,68,0,0,0,17,49.11c.46.53.93,1,1.41,1.55A68.7,68.7,0,0,0,317.4,186.11Z" transform="translate(-76.54 -36.11)"/></svg>