<svg id="Layer_5" data-name="Layer 5" xmlns="http://www.w3.org/2000/svg" viewBox="0 0 492 492"><defs><style>.cls-2{fill:none;stroke:#777;stroke-linecap:round;stroke-linejoin:round;stroke-width:7px}</style></defs><path d="M246 71.43c-112.24 0-203.22 73.48-203.22 164.13 0 60.13 40 112.7 99.76 141.28L133.89 441l68.52-45.08a251.55 251.55 0 0043.59 3.76c112.24 0 203.22-73.48 203.22-164.12S358.24 71.43 246 71.43z" stroke-width="9" fill="none" stroke="#777" stroke-linecap="round" stroke-linejoin="round"/><path class="cls-2" d="M203.38 203.85l45.27 14.68v62.22l-45.27-14.57v-62.33zM293.92 203.85l-45.27 14.68v62.22l45.27-14.57v-62.33z"/><path class="cls-2" d="M203.38 203.85l45.27-15.21 45.27 15.21-45.27 14.68-45.27-14.68zM228.77 126.59l19.88-19.26M268.52 126.59l-19.87-19.26M248.65 107.33v47.29M268.52 342.79l-19.87 19.26M228.77 342.79l19.88 19.26M248.65 362.05v-47.29M356.75 214.82l19.26 19.87M356.75 254.56l19.26-19.87M376.01 234.69h-47.29M140.54 254.56l-19.26-19.87M140.54 214.82l-19.26 19.87M121.28 234.69h47.3M311.03 144.2l27.68.43M339.14 172.3l-.43-27.67M338.71 144.63l-33.45 33.44M186.26 325.18l-27.67-.43M158.15 297.08l.44 27.67M158.59 324.75l33.44-33.44M339.14 297.08l-.43 27.67M311.03 325.18l27.68-.43M338.71 324.75l-33.45-33.44M158.15 172.3l.44-27.67M186.26 144.2l-27.67.43M158.59 144.63l33.44 33.44"/></svg>