<svg xmlns="http://www.w3.org/2000/svg" viewBox="0 0 316.4 346.55"><defs><style>.cls-1{fill:#555555;}</style></defs><g id="Layer_2" data-name="Layer 2"><g id="Output"><path class="cls-1" d="M163.76,192.56a4.07,4.07,0,0,1-2-.53L81.84,145.88a4,4,0,0,1-2-3.46V50.14a4,4,0,0,1,2-3.46L161.76.54a4,4,0,0,1,4,0l79.91,46.14a4,4,0,0,1,2,3.46v92.28a4,4,0,0,1-2,3.46L165.76,192A4.07,4.07,0,0,1,163.76,192.56ZM87.84,140.11l75.92,43.83,75.91-43.83V52.45L163.76,8.62,87.84,52.45Zm155.83,2.31h0Z"/><path class="cls-1" d="M118.69,346.55a4,4,0,0,1-2-.54l-77.4-44.68a4,4,0,0,1-2-3.47V208.49a4,4,0,0,1,2-3.46l77.4-44.69a4,4,0,0,1,4,0L198.09,205a4,4,0,0,1,2,3.46v89.37a4,4,0,0,1-2,3.47L120.69,346A4,4,0,0,1,118.69,346.55Zm-73.4-51,73.4,42.38,73.4-42.38V210.8l-73.4-42.37L45.29,210.8Zm150.8,2.31h0Z"/><path class="cls-1" d="M83.88,281.54a4,4,0,0,1-2-.54L2,234.88a4,4,0,0,1-2-3.46V139.18a4,4,0,0,1,2-3.46L81.88,89.6a4,4,0,0,1,4,0l79.88,46.12a4,4,0,0,1,2,3.46v92.24a4,4,0,0,1-2,3.46L85.88,281A4,4,0,0,1,83.88,281.54ZM8,229.11l75.88,43.81,75.88-43.81V141.49L83.88,97.68,8,141.49Zm155.76,2.31h0Z"/><polygon class="cls-1" points="316.4 276.28 316.4 229.81 276.15 206.57 235.91 229.81 235.91 276.28 276.15 299.52 316.4 276.28"/></g></g></svg>