<svg id="Layer_1" data-name="Layer 1" xmlns="http://www.w3.org/2000/svg" viewBox="0 0 450 250"><defs><style>.cls-1,.cls-2,.cls-3{fill:none;}.cls-1{stroke:#63f0a3;stroke-width:2px;}.cls-1,.cls-2,.cls-3,.cls-4{stroke-miterlimit:10;}.cls-2,.cls-3,.cls-4{stroke:#e0e0e0;}.cls-2{stroke-width:3px;}.cls-3{opacity:0.5;}.cls-4{fill:#e0e0e0;stroke-width:0.5px;}</style></defs><polyline class="cls-1" points="217.9 80.67 184.01 99.48 183.35 138.24 216.59 158.19 250.48 139.38 251.14 100.62 230.37 88.15"/><line class="cls-1" x1="288.47" y1="41.65" x2="217.9" y2="80.67"/><g id="Group_1606" data-name="Group 1606"><g id="Group_1604" data-name="Group 1604"><g id="Group_1563" data-name="Group 1563"><g id="Group_1562" data-name="Group 1562"><g id="Group_1561" data-name="Group 1561"><path id="Path_1320-2" data-name="Path 1320-2" class="cls-2" d="M263,71.19c16.49,17.16,18.06,40.43,18.06,40.43l15.15,37.7s4.26,9.05-5.35,8.87-9.8-.56-9.61,2.95,0,26.62,0,26.62-.37,20-22,19.58"/><path id="Path_1320-2-2" data-name="Path 1320-2" class="cls-2" d="M152.83,155.61V107.74s4.62-55.26,64.49-54.52A73.28,73.28,0,0,1,242,57.47"/></g></g></g></g></g><polyline class="cls-1" points="276.35 36.99 290.09 41.09 285.98 54.83"/><polyline class="cls-3" points="341.28 59.38 355.01 63.48 350.9 77.22"/><line class="cls-3" x1="293.09" y1="95.93" x2="354.21" y2="63.9"/><polyline class="cls-3" points="321.51 96.37 335.24 100.48 331.13 114.21"/><line class="cls-3" x1="297.51" y1="120.24" x2="334.44" y2="100.89"/><polyline class="cls-3" points="309.9 48.56 323.63 52.66 319.53 66.4"/><line class="cls-3" x1="285.91" y1="72.43" x2="322.84" y2="53.08"/><line class="cls-3" x1="139.67" y1="201.22" x2="200.79" y2="169.19"/><line class="cls-3" x1="101.3" y1="145.5" x2="139.35" y2="125.57"/><g id="Group_1565" data-name="Group 1565"><g id="Group_1558" data-name="Group 1558"><g id="Group_1554" data-name="Group 1554"><g id="Group_1551" data-name="Group 1551"><g id="Path_607" data-name="Path 607"><path class="cls-4" d="M217.22,132.15a.18.18,0,0,1,.19.18.17.17,0,0,1-.18.19h0"/></g></g><g id="Group_1553" data-name="Group 1553"><g id="Group_1550" data-name="Group 1550"><g id="Path_606-2" data-name="Path 606-2"><path class="cls-4" d="M220.79,140.18l-3.32.07a.18.18,0,0,1-.19-.18.18.18,0,0,1,.18-.2l3.13-.06-.08-3.87a.19.19,0,0,1,.15-.19l.47-.12a.68.68,0,0,1,.23,0h0a.25.25,0,0,1,.12,0l.2-.06.25-.09a.2.2,0,0,1,.21.09l2,3.3,5.36-3.26-2-3.3a.17.17,0,0,1,0-.22l.78-.81a.18.18,0,0,1,.22,0l3.36,1.89,3.08-5.48-3.36-1.89a.17.17,0,0,1-.08-.23c.05-.18.1-.39.17-.64l.16-.68a.2.2,0,0,1,.18-.16l3.87-.08-.13-6.28-3.87.09a.19.19,0,0,1-.19-.15v0c0-.15-.08-.28-.12-.45a.68.68,0,0,1,0-.23v0a.2.2,0,0,1,0-.11,1.59,1.59,0,0,1-.07-.2c0-.08-.06-.15-.08-.25a.2.2,0,0,1,.09-.21l3.3-2-3.26-5.36-3.3,2a.17.17,0,0,1-.22,0l-.12-.11a1.54,1.54,0,0,1-.17-.19l-.52-.5a.2.2,0,0,1,0-.22l1.9-3.36-5.48-3.08-1.89,3.36a.17.17,0,0,1-.23.08l-.64-.17-.68-.16a.2.2,0,0,1-.16-.18l-.08-3.89-3.13.07a.18.18,0,0,1-.19-.19.18.18,0,0,1,.18-.19l3.32-.07a.17.17,0,0,1,.19.19l.09,3.92.53.12a3.51,3.51,0,0,1,.53.14l1.91-3.4a.2.2,0,0,1,.26-.08l5.8,3.26s.08.07.1.11,0,.09,0,.15l-1.91,3.4.42.4,0,0,.16.17,0,0,3.33-2a.36.36,0,0,1,.15,0c.06,0,.1,0,.12.09l3.45,5.69a.18.18,0,0,1-.07.26l-3.33,2s0,.06,0,.08.06.15.08.24v.06a.3.3,0,0,1,0,.15s0,.07,0,.11v0c0,.11.07.22.09.32l3.9-.08a.17.17,0,0,1,.19.18l.14,6.66a.18.18,0,0,1-.19.19l-3.9.08-.12.53c-.05.21-.09.38-.14.53l3.4,1.91a.22.22,0,0,1,.08.26l-3.26,5.8a.27.27,0,0,1-.11.1c-.05,0-.09,0-.15,0l-3.4-1.91-.57.6,2,3.34a.18.18,0,0,1,0,.15.13.13,0,0,1-.09.11l-5.68,3.46a.18.18,0,0,1-.26-.07l-2-3.34-.07,0c-.08,0-.15.06-.24.08h-.06l-.15,0-.11,0h0L221,136l.08,3.9C221,140.1,220.9,140.18,220.79,140.18Z"/></g><g id="Path_607-2" data-name="Path 607-2"><path class="cls-4" d="M217.31,132.52a.18.18,0,0,1-.19-.18.18.18,0,0,1,.18-.2,11,11,0,1,0-.45-22,.18.18,0,0,1-.19-.19.17.17,0,0,1,.18-.19,11.39,11.39,0,0,1,.47,22.77Z"/></g></g></g></g></g></g><g id="Group_1565-2" data-name="Group 1565"><g id="Group_1558-2" data-name="Group 1558"><g id="Group_1554-2" data-name="Group 1554"><g id="Group_1551-2" data-name="Group 1551"><g id="Path_607-2-2" data-name="Path 607"><path class="cls-4" d="M216.81,110.07a.2.2,0,0,1-.2-.19.18.18,0,0,1,.19-.19h0"/></g></g><g id="Group_1553-2" data-name="Group 1553"><g id="Group_1550-2" data-name="Group 1550"><g id="Path_606-2-2" data-name="Path 606-2"><path class="cls-4" d="M213.24,102l3.31-.07a.19.19,0,0,1,.2.19.18.18,0,0,1-.19.19l-3.13.07.08,3.86a.17.17,0,0,1-.14.19l-.47.13a.68.68,0,0,1-.23,0h0a.2.2,0,0,1-.11,0l-.21.06-.24.08a.19.19,0,0,1-.21-.09l-2-3.3-5.36,3.27,2,3.29a.17.17,0,0,1,0,.23l-.77.81a.21.21,0,0,1-.23,0l-3.36-1.89-3.07,5.47,3.36,1.9a.16.16,0,0,1,.08.22l-.18.65-.15.68a.21.21,0,0,1-.19.15l-3.86.08.13,6.28,3.86-.08a.18.18,0,0,1,.19.15v0c0,.15.08.28.12.45a.62.62,0,0,1,0,.22v0a.23.23,0,0,1,0,.11c0,.08,0,.13.06.21s.06.15.08.24a.18.18,0,0,1-.09.21l-3.29,2,3.26,5.37,3.29-2a.18.18,0,0,1,.23,0l.12.11c.05.06.11.11.17.19l.52.49a.2.2,0,0,1,0,.23L205,135.91l5.48,3.07,1.89-3.36a.18.18,0,0,1,.22-.08l.65.18.68.15a.23.23,0,0,1,.16.19l.08,3.88,3.13-.06a.18.18,0,0,1,.19.18.19.19,0,0,1-.19.2l-3.32.06a.17.17,0,0,1-.19-.18l-.08-3.92-.53-.12a5.31,5.31,0,0,1-.53-.14l-1.91,3.39a.2.2,0,0,1-.26.08l-5.8-3.25a.27.27,0,0,1-.1-.11.21.21,0,0,1,0-.15l1.91-3.4-.43-.41h0c-.06-.06-.09-.12-.15-.17l0,0-3.33,2a.21.21,0,0,1-.16,0,.13.13,0,0,1-.11-.09l-3.46-5.68a.21.21,0,0,1,.07-.27l3.34-2a.64.64,0,0,1,0-.07c0-.08-.06-.15-.08-.24v-.06a.53.53,0,0,1-.05-.15s0-.08,0-.11v0c0-.12-.06-.23-.08-.32l-3.9.08a.18.18,0,0,1-.19-.19l-.14-6.65a.18.18,0,0,1,.18-.19l3.91-.08.12-.53a4.65,4.65,0,0,1,.14-.54l-3.4-1.91a.19.19,0,0,1-.08-.26l3.25-5.8a.29.29,0,0,1,.12-.1c.05,0,.09,0,.15,0l3.39,1.91.58-.6-2-3.33a.24.24,0,0,1,0-.15c0-.06,0-.1.1-.12l5.68-3.45a.19.19,0,0,1,.26.07l2,3.33.08,0,.24-.08h.06a.3.3,0,0,1,.15,0l.11,0h0l.32-.08-.08-3.91C213.05,102.11,213.12,102,213.24,102Z"/></g><g id="Path_607-2-3" data-name="Path 607-2"><path class="cls-4" d="M216.71,109.69a.19.19,0,0,1,.2.19.18.18,0,0,1-.19.19,11,11,0,1,0,.46,22,.18.18,0,0,1,.19.19.18.18,0,0,1-.18.19,11.39,11.39,0,1,1-.48-22.78Z"/></g></g></g></g></g></g><polyline class="cls-1" points="211.72 121.61 215.09 124.98 222.91 117.16"/></svg>