<svg id="Layer_1" data-name="Layer 1" xmlns="http://www.w3.org/2000/svg" viewBox="0 0 450 250"><defs><style>.cls-1,.cls-2,.cls-4,.cls-5,.cls-7{fill:none;}.cls-1,.cls-7{stroke:#63f0a3;}.cls-1,.cls-4,.cls-5,.cls-7{stroke-width:2px;}.cls-3,.cls-6{fill:#e0e0e0;}.cls-4,.cls-5,.cls-6{stroke:#e0e0e0;}.cls-4{stroke-linecap:round;stroke-linejoin:round;}.cls-6,.cls-7{stroke-miterlimit:10;}.cls-6{stroke-width:0.5px;}</style></defs><g id="Group_1541" data-name="Group 1541"><g id="Group_1540" data-name="Group 1540"><g id="Group_1538" data-name="Group 1538"><line id="Line_133" data-name="Line 133" class="cls-1" x1="165.6" y1="141.91" x2="139.5" y2="161.51"/><line id="Line_134" data-name="Line 134" class="cls-1" x1="284.4" y1="141.91" x2="310.5" y2="161.51"/><line id="Line_135" data-name="Line 135" class="cls-1" x1="277.9" y1="74.41" x2="303.9" y2="54.91"/><line id="Line_136" data-name="Line 136" class="cls-1" x1="172.1" y1="74.41" x2="146.1" y2="54.91"/><line id="Line_137" data-name="Line 137" class="cls-1" x1="160.7" y1="110.21" x2="126.5" y2="110.21"/><line id="Line_138" data-name="Line 138" class="cls-1" x1="323.5" y1="110.21" x2="289.3" y2="110.21"/><line id="Line_139" data-name="Line 139" class="cls-1" x1="203" y1="49.81" x2="191.3" y2="17.71"/><line id="Line_141" data-name="Line 141" class="cls-1" x1="247" y1="49.81" x2="258.7" y2="17.71"/></g><g id="Group_1539" data-name="Group 1539"><g id="Union_1" data-name="Union 1"><path class="cls-2" d="M202.9,200.09v-32.4a55.5,55.5,0,1,1,44.6,0v32.4Z"/><path class="cls-3" d="M245.7,198.29v-31.8l1.1-.5a54.52,54.52,0,0,0,13-8.1,58.23,58.23,0,0,0,10.2-11.4,54.34,54.34,0,0,0,4.8-50.9,48.34,48.34,0,0,0-5-9.2,46.05,46.05,0,0,0-6.6-8,55.3,55.3,0,0,0-7.9-6.6,53.74,53.74,0,0,0-9.1-5,54.1,54.1,0,0,0-41.8,0,53.74,53.74,0,0,0-9.1,5,55.3,55.3,0,0,0-7.9,6.6,57.32,57.32,0,0,0-6.6,8,62.84,62.84,0,0,0-5,9.2,54.34,54.34,0,0,0,4.8,50.9,52.75,52.75,0,0,0,10.2,11.4,51.52,51.52,0,0,0,13,8.1l1.1.5v31.8h40.8m1.8,1.8H202.9v-32.4a55.5,55.5,0,1,1,44.6,0Z"/></g><path id="Path_597" data-name="Path 597" class="cls-4" d="M225,150.68l-27.6-15.9v-30.7"/><path id="Path_598" data-name="Path 598" class="cls-4" d="M252.65,104.18l-27.6-15.9-27.7,15.9"/><path id="Path_601" data-name="Path 601" class="cls-5" d="M225.05,150.68l27.9-17.3v-28.9"/></g><line id="Line_142" data-name="Line 142" class="cls-5" x1="225.2" y1="198.79" x2="225.2" y2="150.09"/><rect id="Rectangle_946" data-name="Rectangle 946" class="cls-3" x="202.7" y="203.79" width="45" height="3.7"/><rect id="Rectangle_947" data-name="Rectangle 947" class="cls-3" x="202.7" y="211.19" width="45" height="3.7"/><rect id="Rectangle_948" data-name="Rectangle 948" class="cls-3" x="202.7" y="218.49" width="45" height="3.7"/><path id="Subtraction_2" data-name="Subtraction 2" class="cls-3" d="M225.2,232.29a14.88,14.88,0,0,1-12.1-6.5h24.3a16.75,16.75,0,0,1-5.2,4.7A14.59,14.59,0,0,1,225.2,232.29Z"/></g></g><polyline class="cls-1" points="246.48 22.24 259.7 16.71 265.24 29.93"/><polyline class="cls-1" points="289.9 53.39 304.17 54.73 302.83 69"/><polyline class="cls-1" points="315.25 99.63 325.01 110.13 314.51 119.89"/><polyline class="cls-1" points="309.01 147.41 310.38 161.68 296.1 163.03"/><polyline class="cls-1" points="203.73 22.24 190.51 16.71 184.98 29.93"/><polyline class="cls-1" points="159.32 53.39 145.04 54.73 146.38 69"/><polyline class="cls-1" points="133.96 99.63 124.2 110.13 134.7 119.89"/><polyline class="cls-1" points="140.2 147.41 138.84 161.68 153.11 163.03"/><g id="Group_1565" data-name="Group 1565"><g id="Group_1558" data-name="Group 1558"><g id="Group_1554" data-name="Group 1554"><g id="Group_1551" data-name="Group 1551"><g id="Path_607" data-name="Path 607"><path class="cls-6" d="M225.49,127.5a.18.18,0,0,1,.18.17.17.17,0,0,1-.17.18h0"/></g></g><g id="Group_1553" data-name="Group 1553"><g id="Group_1550" data-name="Group 1550"><g id="Path_606-2" data-name="Path 606-2"><path class="cls-6" d="M228.78,134.91l-3.06.06a.16.16,0,0,1-.17-.17.15.15,0,0,1,.17-.17l2.88-.06-.07-3.57a.15.15,0,0,1,.13-.17l.43-.12a1,1,0,0,1,.21,0h0a.18.18,0,0,1,.1,0l.19-.06a1.25,1.25,0,0,1,.23-.07.17.17,0,0,1,.19.08l1.85,3,4.94-3-1.85-3a.17.17,0,0,1,0-.21l.72-.74a.18.18,0,0,1,.2,0l3.1,1.74,2.83-5-3.09-1.75a.16.16,0,0,1-.08-.2l.16-.6.15-.63a.18.18,0,0,1,.17-.14l3.56-.07-.12-5.79-3.56.08a.17.17,0,0,1-.18-.14h0c0-.14-.07-.26-.11-.42a.56.56,0,0,1,0-.21h0a.22.22,0,0,1,0-.11l-.06-.19c0-.07,0-.14-.07-.22a.18.18,0,0,1,.08-.2l3-1.85-3-4.94-3,1.85a.16.16,0,0,1-.21,0l-.11-.1-.16-.17-.48-.46a.2.2,0,0,1,0-.21l1.75-3.09-5-2.84L229.6,104a.16.16,0,0,1-.21.07l-.59-.16-.63-.14a.19.19,0,0,1-.14-.17L228,100l-2.88.06a.18.18,0,0,1,0-.35l3.06-.06a.17.17,0,0,1,.18.17l.07,3.61.49.11a4.55,4.55,0,0,1,.49.13l1.76-3.13a.18.18,0,0,1,.24-.07l5.35,3a.2.2,0,0,1,.08.1.18.18,0,0,1,0,.14L235,106.82l.39.37,0,0,.14.15,0,0,3.07-1.87a.16.16,0,0,1,.14,0c.05,0,.09,0,.1.08l3.19,5.24a.17.17,0,0,1-.07.24l-3.07,1.87a.64.64,0,0,0,0,.07c0,.07.06.14.08.23v0a.49.49,0,0,1,0,.14s0,.07,0,.1v0c0,.1.06.21.08.29l3.6-.07a.16.16,0,0,1,.17.17l.13,6.13a.17.17,0,0,1-.17.18l-3.6.07-.11.49c-.05.19-.08.35-.13.49l3.13,1.76a.19.19,0,0,1,.08.24l-3,5.35a.43.43,0,0,1-.1.09.22.22,0,0,1-.14,0l-3.13-1.76-.53.55,1.87,3.07a.17.17,0,0,1,0,.14c0,.05,0,.09-.08.11L231.94,134a.17.17,0,0,1-.24-.06l-1.87-3.07h-.07c-.07,0-.14.06-.23.08h-.05a.29.29,0,0,1-.14,0l-.1,0h0l-.29.07.07,3.6C229,134.84,228.88,134.91,228.78,134.91Z"/></g><g id="Path_607-2" data-name="Path 607-2"><path class="cls-6" d="M225.58,127.85a.17.17,0,0,1-.18-.17.17.17,0,0,1,.17-.18,10.15,10.15,0,0,0-.42-20.29A.16.16,0,0,1,225,107a.16.16,0,0,1,.17-.17,10.49,10.49,0,0,1,.44,21Z"/></g></g></g></g></g></g><g id="Group_1565-2" data-name="Group 1565"><g id="Group_1558-2" data-name="Group 1558"><g id="Group_1554-2" data-name="Group 1554"><g id="Group_1551-2" data-name="Group 1551"><g id="Path_607-2-2" data-name="Path 607"><path class="cls-6" d="M225.11,107.16a.17.17,0,0,1-.18-.17.16.16,0,0,1,.17-.17h0"/></g></g><g id="Group_1553-2" data-name="Group 1553"><g id="Group_1550-2" data-name="Group 1550"><g id="Path_606-2-2" data-name="Path 606-2"><path class="cls-6" d="M221.82,99.76l3.06-.06a.17.17,0,1,1,0,.34l-2.88.06.07,3.56a.16.16,0,0,1-.13.18l-.43.11a.56.56,0,0,1-.21,0h0a.18.18,0,0,1-.1,0l-.19.06-.23.07a.17.17,0,0,1-.19-.08l-1.85-3-4.94,3,1.85,3a.17.17,0,0,1,0,.21l-.72.75a.18.18,0,0,1-.2,0l-3.1-1.75-2.83,5,3.09,1.74a.17.17,0,0,1,.08.21c0,.17-.1.37-.16.59l-.15.63a.19.19,0,0,1-.17.15l-3.56.07.12,5.78,3.56-.07a.17.17,0,0,1,.18.14h0c0,.14.07.26.11.42a.56.56,0,0,1,0,.21h0a.22.22,0,0,1,0,.11l.06.19c0,.07.05.13.07.22a.16.16,0,0,1-.08.19l-3,1.86,3,4.94,3-1.85a.16.16,0,0,1,.21,0l.11.1.16.17.48.46a.2.2,0,0,1,0,.21L214.21,131l5,2.83,1.74-3.09a.17.17,0,0,1,.21-.08l.59.17.63.14a.18.18,0,0,1,.14.17l.08,3.58,2.88-.06a.16.16,0,0,1,.18.17.18.18,0,0,1-.17.18l-3.06.06a.18.18,0,0,1-.18-.17l-.07-3.61-.49-.11c-.14,0-.31-.07-.49-.13l-1.76,3.13a.2.2,0,0,1-.24.07l-5.35-3a.25.25,0,0,1-.08-.1.17.17,0,0,1,0-.14l1.76-3.13-.39-.38h0l-.14-.16h0L212,129.16a.21.21,0,0,1-.14,0c-.05,0-.09,0-.1-.09l-3.19-5.23a.18.18,0,0,1,.07-.25l3.07-1.87a.64.64,0,0,1,0-.07,1.77,1.77,0,0,1-.08-.22v0a.58.58,0,0,1,0-.14s0-.07,0-.1v0c0-.11-.06-.21-.08-.29l-3.6.07a.16.16,0,0,1-.17-.17l-.13-6.13a.17.17,0,0,1,.17-.18l3.6-.07.11-.49c.05-.2.08-.35.13-.49l-3.13-1.76a.2.2,0,0,1-.08-.24l3-5.35a.43.43,0,0,1,.1-.09.17.17,0,0,1,.14,0l3.13,1.76.53-.55-1.87-3.08a.14.14,0,0,1,0-.13c0-.06,0-.09.08-.11l5.24-3.18a.16.16,0,0,1,.24.06l1.87,3.07.07,0,.23-.07h.05a.29.29,0,0,1,.14,0l.1,0h0l.29-.08L221.6,100C221.65,99.83,221.72,99.76,221.82,99.76Z"/></g><g id="Path_607-2-3" data-name="Path 607-2"><path class="cls-6" d="M225,106.82a.16.16,0,0,1,.18.17.16.16,0,0,1-.17.17,10.15,10.15,0,0,0,.42,20.29.18.18,0,1,1,0,.35,10.49,10.49,0,1,1-.44-21Z"/></g></g></g></g></g></g><polyline class="cls-7" points="220.42 117.8 223.53 120.91 230.74 113.69"/></svg>