<svg id="Layer_1" data-name="Layer 1" xmlns="http://www.w3.org/2000/svg" viewBox="0 0 450 250"><defs><style>.cls-1{fill:#e0e0e0;stroke-width:0.5px;}.cls-1,.cls-2{stroke:#e0e0e0;}.cls-1,.cls-3{stroke-miterlimit:10;}.cls-2,.cls-3{fill:none;stroke-width:2px;}.cls-2{stroke-linecap:round;stroke-linejoin:round;}.cls-3{stroke:#63f0a3;}</style></defs><g id="Group_1565" data-name="Group 1565"><g id="Group_1558" data-name="Group 1558"><g id="Group_1554" data-name="Group 1554"><g id="Group_1551" data-name="Group 1551"><g id="Path_607" data-name="Path 607"><path class="cls-1" d="M250.8,206.33a.26.26,0,0,1,.27.26.25.25,0,0,1-.26.27h0"/></g></g><g id="Group_1553" data-name="Group 1553"><g id="Group_1550" data-name="Group 1550"><g id="Path_606-2" data-name="Path 606-2"><path class="cls-1" d="M255.88,217.78l-4.73.1a.26.26,0,0,1-.27-.27.25.25,0,0,1,.26-.27l4.46-.09-.11-5.51a.25.25,0,0,1,.21-.27l.67-.18a.87.87,0,0,1,.32-.06h0a.32.32,0,0,1,.16,0l.3-.09c.11,0,.21-.08.35-.11a.25.25,0,0,1,.29.13l2.87,4.69,7.64-4.64-2.86-4.7a.24.24,0,0,1,0-.32l1.11-1.16a.29.29,0,0,1,.32-.06l4.79,2.7,4.38-7.8-4.79-2.7a.24.24,0,0,1-.11-.32c.07-.27.15-.57.25-.92l.22-1a.28.28,0,0,1,.26-.22l5.51-.11-.19-8.95-5.5.11a.25.25,0,0,1-.28-.21v0c-.06-.22-.11-.4-.17-.64a.91.91,0,0,1-.06-.32v0a.3.3,0,0,1,0-.16c0-.11-.06-.19-.09-.3a2.27,2.27,0,0,1-.11-.34.27.27,0,0,1,.12-.3l4.7-2.87-4.65-7.64-4.69,2.87a.27.27,0,0,1-.33-.05l-.16-.16a3.13,3.13,0,0,1-.25-.26l-.74-.71a.29.29,0,0,1-.06-.32l2.7-4.79-7.81-4.38-2.69,4.79a.26.26,0,0,1-.32.11c-.35-.1-.68-.17-.92-.25l-1-.22a.29.29,0,0,1-.22-.27l-.12-5.53-4.46.09a.27.27,0,0,1,0-.53l4.73-.1a.24.24,0,0,1,.27.26l.12,5.59.75.17a5.77,5.77,0,0,1,.76.2l2.72-4.84a.3.3,0,0,1,.38-.12l8.26,4.64a.43.43,0,0,1,.14.16c0,.06,0,.14,0,.22l-2.72,4.84.6.58,0,0c.08.08.13.16.22.24l0,0,4.75-2.9a.32.32,0,0,1,.22,0c.08,0,.13.05.16.13l4.93,8.1a.28.28,0,0,1-.1.38l-4.75,2.89s0,.08,0,.11.08.21.11.34v.08a.51.51,0,0,1,.06.22,1.16,1.16,0,0,1,0,.16v0c0,.17.09.33.12.46l5.56-.12a.26.26,0,0,1,.27.27l.2,9.48a.25.25,0,0,1-.26.27l-5.56.12-.18.75a6.83,6.83,0,0,1-.2.76l4.84,2.72a.3.3,0,0,1,.12.38l-4.64,8.26a.36.36,0,0,1-.16.14c-.08,0-.13,0-.21,0l-4.84-2.72-.82.85,2.89,4.75a.29.29,0,0,1,0,.21c0,.08-.06.14-.14.16l-8.09,4.93a.28.28,0,0,1-.38-.1l-2.89-4.75-.11,0c-.1,0-.21.08-.35.11H257a.43.43,0,0,1-.21.06l-.16,0h0c-.16,0-.32.09-.45.12l.11,5.56C256.15,217.66,256,217.77,255.88,217.78Z"/></g><g id="Path_607-2" data-name="Path 607-2"><path class="cls-1" d="M250.93,206.86a.25.25,0,0,1-.28-.26.26.26,0,0,1,.26-.28,15.69,15.69,0,1,0-.65-31.37.25.25,0,0,1-.27-.26.26.26,0,0,1,.26-.28,16.23,16.23,0,0,1,.68,32.45Z"/></g></g></g></g></g></g><g id="Group_1565-2" data-name="Group 1565"><g id="Group_1558-2" data-name="Group 1558"><g id="Group_1554-2" data-name="Group 1554"><g id="Group_1551-2" data-name="Group 1551"><g id="Path_607-2-2" data-name="Path 607"><path class="cls-1" d="M250.21,174.87a.27.27,0,0,1-.28-.26.26.26,0,0,1,.26-.28h0"/></g></g><g id="Group_1553-2" data-name="Group 1553"><g id="Group_1550-2" data-name="Group 1550"><g id="Path_606-2-2" data-name="Path 606-2"><path class="cls-1" d="M245.12,163.42l4.73-.1a.25.25,0,0,1,.27.26.25.25,0,0,1-.26.28l-4.46.09.11,5.51a.25.25,0,0,1-.21.27l-.66.18a1.8,1.8,0,0,1-.33.06h0a.32.32,0,0,1-.16,0l-.3.08c-.1,0-.21.09-.34.12a.26.26,0,0,1-.3-.13l-2.87-4.7L232.68,170l2.86,4.7a.25.25,0,0,1,0,.32l-1.11,1.15a.29.29,0,0,1-.32.06l-4.78-2.69-4.38,7.8,4.78,2.7a.25.25,0,0,1,.12.32c-.08.27-.15.56-.25.91l-.23,1a.3.3,0,0,1-.26.22l-5.51.11.19,9,5.51-.12a.27.27,0,0,1,.27.21v0c.06.21.11.4.17.64a.91.91,0,0,1,.06.32v0a.3.3,0,0,1,0,.16c0,.11.06.19.09.29s.09.22.12.35a.28.28,0,0,1-.13.3l-4.7,2.86,4.65,7.65,4.69-2.87a.26.26,0,0,1,.33,0l.16.16a2.09,2.09,0,0,1,.25.26l.74.71a.29.29,0,0,1,.06.32l-2.7,4.79,7.81,4.38,2.69-4.79a.25.25,0,0,1,.32-.11c.36.1.68.17.92.25l1,.22a.3.3,0,0,1,.23.26l.11,5.54,4.46-.1a.26.26,0,0,1,.27.27.24.24,0,0,1-.26.27l-4.73.1a.25.25,0,0,1-.27-.26l-.12-5.59L245,212a5.77,5.77,0,0,1-.76-.2l-2.72,4.84a.31.31,0,0,1-.38.11l-8.26-4.64a.32.32,0,0,1-.14-.16s0-.13,0-.21l2.73-4.84-.61-.58,0,0c-.08-.07-.13-.15-.22-.23l0,0-4.75,2.89a.33.33,0,0,1-.22,0,.23.23,0,0,1-.16-.14l-4.93-8.09a.28.28,0,0,1,.1-.38l4.75-2.89a.45.45,0,0,0,0-.11c0-.11-.08-.21-.11-.35v-.08a.43.43,0,0,1-.06-.21s0-.11,0-.16v0c0-.16-.09-.32-.12-.45l-5.56.11a.24.24,0,0,1-.27-.26l-.2-9.48a.26.26,0,0,1,.26-.28l5.57-.11.17-.76a6.6,6.6,0,0,1,.2-.75l-4.84-2.73a.29.29,0,0,1-.12-.37l4.64-8.27a.51.51,0,0,1,.16-.13.26.26,0,0,1,.21,0l4.84,2.72.82-.85L232,170.14a.25.25,0,0,1,0-.21.21.21,0,0,1,.13-.17l8.09-4.92a.26.26,0,0,1,.38.1l2.89,4.75.11,0c.11,0,.21-.09.35-.12H244a.58.58,0,0,1,.21-.06l.16,0h0l.45-.11-.11-5.56C244.85,163.53,245,163.42,245.12,163.42Z"/></g><g id="Path_607-2-3" data-name="Path 607-2"><path class="cls-1" d="M250.08,174.34a.24.24,0,0,1,.27.26.25.25,0,0,1-.26.27,15.69,15.69,0,1,0,.65,31.38.24.24,0,0,1,.27.26.25.25,0,0,1-.26.27,16.22,16.22,0,1,1-.67-32.44Z"/></g></g></g></g></g></g><polyline class="cls-2" points="284.16 183.55 301.05 173.8 301.05 115.82 250.84 86.84 200.64 115.82 200.64 173.8 216.18 182.77"/><line class="cls-2" x1="250.85" y1="144.81" x2="301.05" y2="115.82"/><line class="cls-2" x1="250.85" y1="144.81" x2="200.64" y2="115.82"/><line class="cls-2" x1="250.85" y1="155.43" x2="250.85" y2="144.81"/><path class="cls-2" d="M229.75,77.09l62-33.75a9.64,9.64,0,0,1,13,3.85h0a9.63,9.63,0,0,1-3.85,13l-35.12,18.7"/><path class="cls-2" d="M298.46,83.77a9.65,9.65,0,0,0,3.85-13h0a9.64,9.64,0,0,0-13-3.85"/><path class="cls-2" d="M177.62,62.14,215,41.8a9.62,9.62,0,0,1,13,3.85h0a9.63,9.63,0,0,1-3.85,13l-12.95,7.05s-6.49,4-11.41,2.91"/><path class="cls-2" d="M229.7,77l49.5-26.93A9.61,9.61,0,0,0,270,33.18L226.61,56.8"/><path class="cls-2" d="M194.09,155.43l-34.33,18.68"/><path class="cls-2" d="M177.63,62.15s-11,4.73-15.1,25.32l-38.51,21"/><path class="cls-2" d="M297.77,84.05l-13.56,7.38"/><path class="cls-2" d="M298.63,105.38a9.63,9.63,0,0,0,3.85-13h0a9.63,9.63,0,0,0-13-3.84"/><polyline class="cls-3" points="242.96 191.32 247.76 196.12 258.91 184.97"/></svg>