<svg xmlns="http://www.w3.org/2000/svg" width="220.457" height="202.597" viewBox="0 0 220.457 202.597">
  <g id="Group_1603" data-name="Group 1603" transform="translate(-320.066 -3544.125)">
    <g id="Group_1602" data-name="Group 1602">
      <g id="Group_1564" data-name="Group 1564" transform="translate(0 -4.56)">
        <g id="Group_1558" data-name="Group 1558" transform="translate(10 -5)">
          <g id="Group_1554" data-name="Group 1554" transform="translate(-11)">
            <g id="Group_1551" data-name="Group 1551" transform="translate(363.593 3614.69)">
              <path id="Path_606" data-name="Path 606" d="M745.69,620.955H733.338V605.9q-.862-.193-1.72-.413c-.215-.055-.428-.114-.641-.172s-.422-.112-.632-.171q-.854-.24-1.7-.507l-7.554,13.018-21.368-12.4,7.555-13.02-.2-.182-.218-.2q-.335-.316-.665-.639-.218-.212-.435-.426t-.427-.431q-.324-.329-.643-.663l-.2-.217-.183-.194-12.98,7.623-12.511-21.3,12.98-7.623q-.393-1.223-.731-2.469t-.621-2.5H675.395v-24.7h15.051q.193-.862.413-1.72c.055-.215.114-.428.172-.642s.112-.422.171-.633q.24-.854.506-1.7l-13.018-7.554,12.4-21.368,13.02,7.554.183-.2.2-.217q.317-.336.641-.667.211-.217.424-.433t.433-.428q.328-.324.662-.642l.217-.205.194-.183-7.623-12.98,21.3-12.51,7.623,12.98q1.223-.393,2.469-.731t2.5-.621V480.364H745.69" transform="translate(-675.395 -480.364)" fill="none" stroke="#e0e0e0" stroke-linecap="round" stroke-linejoin="round" stroke-width="2"/>
              <path id="Path_607" data-name="Path 607" d="M716.96,564.751a41.6,41.6,0,0,0,0,83.208" transform="translate(-646.664 -536.06)" fill="none" stroke="#e0e0e0" stroke-linecap="round" stroke-linejoin="round" stroke-width="2"/>
            </g>
            <g id="Group_1553" data-name="Group 1553">
              <g id="Group_1550" data-name="Group 1550" transform="translate(434.155 3614.691)">
                <path id="Path_606-2" data-name="Path 606" d="M675.395,620.955h12.352V605.9q.862-.193,1.72-.413c.215-.055.428-.114.641-.172s.422-.112.632-.171q.854-.24,1.7-.507l7.554,13.018,21.368-12.4-7.555-13.02.2-.182.218-.2q.335-.316.665-.639.218-.212.435-.426t.427-.431q.324-.329.643-.663l.2-.217.183-.194,12.98,7.623,12.511-21.3-12.98-7.623q.393-1.223.731-2.469t.621-2.5h15.053v-24.7H730.639q-.193-.862-.413-1.72c-.055-.215-.114-.428-.172-.642s-.112-.422-.171-.632q-.24-.854-.506-1.7l13.018-7.554L730,504.7l-13.02,7.554-.183-.2-.2-.217q-.317-.336-.641-.667-.211-.217-.424-.433t-.433-.428q-.328-.324-.662-.642l-.218-.2-.194-.183,7.623-12.98-21.3-12.51-7.623,12.98q-1.223-.393-2.469-.731t-2.5-.621V480.364H675.395" transform="translate(-675.395 -480.364)" fill="none" stroke="#e0e0e0" stroke-linecap="round" stroke-linejoin="round" stroke-width="2"/>
                <path id="Path_607-2" data-name="Path 607" d="M675.395,564.751a41.6,41.6,0,0,1,0,83.208" transform="translate(-675.395 -536.059)" fill="none" stroke="#e0e0e0" stroke-linecap="round" stroke-linejoin="round" stroke-width="2"/>
              </g>
              <path id="Path_605" data-name="Path 605" d="M2675.064,5158.3l60.545,33.437v33.641" transform="translate(-2248.131 -1603.736)" fill="none" stroke="#e0e0e0" stroke-width="2"/>
              <path id="Path_606-3" data-name="Path 606" d="M2591.136,5332.948l-90.524-49,4.981-69.121,85.543-28.331Z" transform="translate(-2150.874 -1617.763)" fill="#0e4072"/>
              <g id="Group_1552" data-name="Group 1552" transform="translate(364.886 3555.078)">
                <g id="Group_1511" data-name="Group 1511" transform="translate(0 0)">
                  <g id="Group_1358" data-name="Group 1358" transform="translate(0 0)">
                    <path id="Path_450" data-name="Path 450" d="M255.068,513.171v71.679L192.947,549.01V479.721Z" transform="translate(-192.947 -444.258)" fill="none" stroke="#e0e0e0" stroke-linecap="round" stroke-linejoin="round" stroke-width="2"/>
                    <path id="Path_451" data-name="Path 451" d="M255.355,428.516l-62.408,35.745,62.122,33.45Z" transform="translate(-192.947 -428.516)" fill="none" stroke="#e0e0e0" stroke-linecap="round" stroke-linejoin="round" stroke-width="2"/>
                    <path id="Path_452" data-name="Path 452" d="M229.8,567.532l23.533-13.183V491.915" transform="translate(-204.072 -447.94)" fill="none" stroke="#e0e0e0" stroke-miterlimit="10" stroke-width="2"/>
                    <ellipse id="Ellipse_57" data-name="Ellipse 57" cx="6.431" cy="6.431" rx="6.431" ry="6.431" transform="translate(42.562 31.498)" fill="#fa7268"/>
                    <path id="Path_595" data-name="Path 595" d="M123.243,156.722" transform="translate(-60.978 -16.131)" fill="none" stroke="#e0e0e0" stroke-width="2"/>
                  </g>
                </g>
              </g>
            </g>
          </g>
          <g id="Group_1560" data-name="Group 1560" transform="translate(8)">
            <g id="Group_1556" data-name="Group 1556" transform="translate(-4 -10)">
              <g id="Group_1555" data-name="Group 1555">
                <line id="Line_145" data-name="Line 145" y1="82" transform="translate(518.5 3639.5)" fill="none" stroke="#2f8786" stroke-width="3" stroke-dasharray="7"/>
              </g>
            </g>
            <path id="Path_608" data-name="Path 608" d="M285.807,379.545l-14.252-8.229v16.457Z" transform="translate(134.749 3900.579) rotate(-90)" fill="#63f1a4" opacity="0.998"/>
          </g>
          <g id="Group_1559" data-name="Group 1559">
            <g id="Group_1557" data-name="Group 1557" transform="translate(836.588 7336.271) rotate(180)">
              <g id="Group_1555-2" data-name="Group 1555">
                <line id="Line_145-2" data-name="Line 145" y1="82" transform="translate(518.5 3639.5)" fill="none" stroke="#2f8786" stroke-width="3" stroke-dasharray="7"/>
              </g>
            </g>
            <path id="Path_609" data-name="Path 609" d="M285.807,379.545l-14.252-8.229v16.457Z" transform="translate(697.839 3425.693) rotate(90)" fill="#63f1a4" opacity="0.998"/>
          </g>
        </g>
      </g>
    </g>
  </g>
</svg>
