<svg xmlns="http://www.w3.org/2000/svg" width="214.563" height="234.126" viewBox="0 0 214.563 234.126">
  <g id="Group_1541" data-name="Group 1541" transform="translate(-820 -2889.875)">
    <g id="Group_1540" data-name="Group 1540" transform="translate(-32 10)">
      <g id="Group_1538" data-name="Group 1538" transform="translate(852 2880.217)">
        <line id="Line_133" data-name="Line 133" x1="28.372" y2="21.279" transform="translate(14.186 135.39)" fill="none" stroke="#63f0a3" stroke-width="2" stroke-dasharray="7"/>
        <line id="Line_134" data-name="Line 134" x2="28.372" y2="21.279" transform="translate(172.005 135.39)" fill="none" stroke="#63f0a3" stroke-width="2" stroke-dasharray="7"/>
        <line id="Line_135" data-name="Line 135" x1="28.372" y2="21.279" transform="translate(193.284 61.8) rotate(180)" fill="none" stroke="#63f0a3" stroke-width="2" stroke-dasharray="7"/>
        <line id="Line_136" data-name="Line 136" x2="28.372" y2="21.279" transform="translate(49.651 61.8) rotate(180)" fill="none" stroke="#63f0a3" stroke-width="2" stroke-dasharray="7"/>
        <line id="Line_137" data-name="Line 137" x1="37.238" transform="translate(0 100.812)" fill="none" stroke="#63f0a3" stroke-width="2" stroke-dasharray="7"/>
        <line id="Line_138" data-name="Line 138" x1="37.238" transform="translate(177.324 100.812)" fill="none" stroke="#63f0a3" stroke-width="2" stroke-dasharray="7"/>
        <line id="Line_139" data-name="Line 139" x1="37.238" transform="translate(70.589 0) rotate(70)" fill="none" stroke="#63f0a3" stroke-width="2" stroke-dasharray="7"/>
        <line id="Line_141" data-name="Line 141" x1="37.238" transform="translate(143.974) rotate(110)" fill="none" stroke="#63f0a3" stroke-width="2" stroke-dasharray="7"/>
      </g>
      <g id="Group_1539" data-name="Group 1539" transform="translate(899.047 2927.387)">
        <g id="Union_1" data-name="Union 1" transform="translate(-0.047 -0.387)" fill="none">
          <path d="M36.212,152V116.673A60.963,60.963,0,0,1,60.5,0,60.963,60.963,0,0,1,84.789,116.673V152Z" stroke="none"/>
          <path d="M 82.78868865966797 149.9998779296875 L 82.78868865966797 116.6727294921875 L 82.78868865966797 115.3696670532227 L 83.98066711425781 114.8432312011719 C 89.09308624267578 112.5852508544922 93.85971069335938 109.5980453491211 98.14812469482422 105.9645462036133 C 102.4107513427734 102.352897644043 106.1363754272461 98.15800476074219 109.2214584350586 93.49643707275391 C 115.6186218261719 83.83027648925781 119 72.55498504638672 119 60.88952255249023 C 119 52.93712615966797 117.4529571533203 45.22373199462891 114.4018325805664 37.96360778808594 C 112.935417175293 34.47429275512695 111.1203308105469 31.10873222351074 109.0070190429688 27.96043968200684 C 106.9135818481445 24.84177398681641 104.5093994140625 21.90910720825195 101.8612670898438 19.24389839172363 C 99.21335601806641 16.57889938354492 96.29983520507812 14.15950298309326 93.20164489746094 12.05289840698242 C 90.07450103759766 9.926607131958008 86.731689453125 8.100461006164551 83.26605987548828 6.62516975402832 C 76.056396484375 3.556044578552246 68.39683532714844 1.9998779296875 60.50012588500977 1.9998779296875 C 52.60337448120117 1.9998779296875 44.94379043579102 3.556044578552246 37.73408508300781 6.62516975402832 C 34.26845932006836 8.100461006164551 30.92562484741211 9.926607131958008 27.7984790802002 12.05289840698242 C 24.70027160644531 14.15950298309326 21.78675079345703 16.57889938354492 19.13881301879883 19.24389839172363 C 16.49066734313965 21.90910720825195 14.08647918701172 24.84177398681641 11.99302101135254 27.96043968200684 C 9.879687309265137 31.1087532043457 8.064603805541992 34.47429275512695 6.598187446594238 37.96360778808594 C 3.547062397003174 45.22373199462891 2 52.93712615966797 2 60.88952255249023 C 2 72.55493927001953 5.381479263305664 83.83027648925781 11.77887535095215 93.49656677246094 C 14.86404132843018 98.15817260742188 18.58975028991699 102.3531036376953 22.85247993469238 105.9648132324219 C 27.1409797668457 109.5983581542969 31.90768814086914 112.5856094360352 37.02018737792969 114.8436050415039 L 38.21216583251953 115.3700408935547 L 38.21216583251953 116.6731033325195 L 38.21216583251953 149.9998779296875 L 82.78868865966797 149.9998779296875 M 84.78868865966797 151.9998779296875 L 36.21216583251953 151.9998779296875 L 36.21216583251953 116.6731033325195 C 14.89208316802979 107.2568359375 1.4210854715202e-14 85.82324981689453 1.4210854715202e-14 60.88952255249023 C 1.4210854715202e-14 27.26160621643066 27.0867919921875 -0.0001220703125 60.50012588500977 -0.0001220703125 C 93.913330078125 -0.0001220703125 121 27.26160621643066 121 60.88952255249023 C 121 85.82324981689453 106.1085205078125 107.2565841674805 84.78868865966797 116.6727294921875 L 84.78868865966797 151.9998779296875 Z" stroke="none" fill="#e0e0e0"/>
        </g>
        <path id="Path_597" data-name="Path 597" d="M222.973,495.889v34.646l-30.026-17.323V479.721Z" transform="translate(-162.745 -432.755)" fill="none" stroke="#e0e0e0" stroke-linecap="round" stroke-linejoin="round" stroke-width="2"/>
        <path id="Path_598" data-name="Path 598" d="M253.138,445.793l-30.026-17.277-30.165,17.277,30.026,16.168Z" transform="translate(-162.745 -398.691)" fill="none" stroke="#e0e0e0" stroke-linecap="round" stroke-linejoin="round" stroke-width="2"/>
        <path id="Path_599" data-name="Path 599" d="M229.8,528.464l11.375-6.372V491.915" transform="translate(-187.161 -440.834)" fill="none" stroke="#e0e0e0" stroke-miterlimit="10" stroke-width="2"/>
        <path id="Path_600" data-name="Path 600" d="M311.645,459.967l-11.075,5.522V496.1" transform="translate(-234.055 -420.086)" fill="none" stroke="#e0e0e0" stroke-miterlimit="10" stroke-width="2"/>
        <path id="Path_601" data-name="Path 601" d="M123.243,121.4l30.434-18.866V70.984" transform="translate(-62.946 -23.622)" fill="none" stroke="#e0e0e0" stroke-width="2"/>
        <circle id="Ellipse_75" data-name="Ellipse 75" cx="3.357" cy="3.357" r="3.357" transform="translate(50.58 46.647)" fill="#fa7268"/>
        <circle id="Ellipse_76" data-name="Ellipse 76" cx="3.357" cy="3.357" r="3.357" transform="translate(62.993 72.359)" fill="#fa7268"/>
      </g>
      <line id="Line_142" data-name="Line 142" y1="53" transform="translate(959.5 3024.5)" fill="none" stroke="#e0e0e0" stroke-width="2"/>
      <rect id="Rectangle_946" data-name="Rectangle 946" width="49" height="4" transform="translate(935 3083)" fill="#fa7268"/>
      <rect id="Rectangle_947" data-name="Rectangle 947" width="49" height="4" transform="translate(935 3091)" fill="#fa7268"/>
      <rect id="Rectangle_948" data-name="Rectangle 948" width="49" height="4" transform="translate(935 3099)" fill="#fa7268"/>
      <path id="Subtraction_2" data-name="Subtraction 2" d="M-2096.5-1566a15.937,15.937,0,0,1-7.552-1.911,16.65,16.65,0,0,1-5.69-5.089h26.484a16.65,16.65,0,0,1-5.691,5.089A15.941,15.941,0,0,1-2096.5-1566Z" transform="translate(3056 4680)" fill="#e0e0e0"/>
    </g>
  </g>
</svg>
