<svg xmlns="http://www.w3.org/2000/svg" width="287.861" height="206.99" viewBox="0 0 287.861 206.99">
  <g id="Group_1606" data-name="Group 1606" transform="translate(-815.448 -3541.5)">
    <g id="Group_1604" data-name="Group 1604">
      <g id="Group_1563" data-name="Group 1563" transform="translate(0 -16)">
        <g id="Group_1562" data-name="Group 1562" transform="translate(8 9)">
          <g id="Group_1561" data-name="Group 1561" transform="translate(814.246 3550)">
            <path id="Path_1319" data-name="Path 1319" d="M1446.819,596.111V522.392s3.959-47.868,55.783-47.155,55.161,50.556,55.161,50.556l13.089,32.652s3.675,7.761-4.7,7.75-8.436-.423-8.386,2.57,0,23,0,23-.341,17.194-19.109,16.9" transform="translate(-1403.882 -432.965)" fill="none" stroke="#e0e0e0" stroke-miterlimit="10" stroke-width="3"/>
            <path id="Path_1320" data-name="Path 1320" d="M1649.51,543.228V469.509s-3.961-47.867-55.785-47.155-55.162,50.556-55.162,50.556l-13.086,32.653s-3.675,7.761,4.7,7.75,8.434-.423,8.385,2.569,0,23,0,23,.342,17.194,19.111,16.894" transform="translate(-1419.516 -422.346)" fill="none" stroke="#e0e0e0" stroke-miterlimit="10" stroke-width="3"/>
            <path id="Path_1320-2" data-name="Path 1320" d="M1524.674,497.932v-46.1s2.477-29.931,34.881-29.485,34.491,31.612,34.491,31.612l8.182,20.417s2.3,4.853-2.938,4.846-5.274-.264-5.243,1.607,0,14.384,0,14.384-.214,10.751-11.95,10.564" transform="translate(-1524.674 -344.281)" fill="none" stroke="#e0e0e0" stroke-miterlimit="10" stroke-width="3"/>
          </g>
          <path id="Path_1320-3" data-name="Path 1320" d="M1602.732,497.932v-46.1s-2.477-29.931-34.881-29.485-34.491,31.612-34.491,31.612l-8.182,20.417s-2.3,4.853,2.938,4.846,5.274-.264,5.243,1.607,0,14.384,0,14.384.214,10.751,11.95,10.564" transform="translate(-513.987 3163.624)" fill="none" stroke="#e0e0e0" stroke-miterlimit="10" stroke-width="3"/>
        </g>
        <ellipse id="Ellipse_78" data-name="Ellipse 78" cx="6.431" cy="6.431" rx="6.431" ry="6.431" transform="translate(1090.448 3662.575)" fill="#62f0a3"/>
        <ellipse id="Ellipse_79" data-name="Ellipse 79" cx="6.431" cy="6.431" rx="6.431" ry="6.431" transform="translate(815.448 3705.575)" fill="#62f0a3"/>
        <ellipse id="Ellipse_80" data-name="Ellipse 80" cx="6.431" cy="6.431" rx="6.431" ry="6.431" transform="translate(953 3728.575)" fill="#62f0a3"/>
        <ellipse id="Ellipse_81" data-name="Ellipse 81" cx="6.431" cy="6.431" rx="6.431" ry="6.431" transform="translate(953 3685.575)" fill="#62f0a3"/>
        <ellipse id="Ellipse_82" data-name="Ellipse 82" cx="4.431" cy="4.431" rx="4.431" ry="4.431" transform="translate(875.448 3716)" fill="#62f0a3"/>
        <ellipse id="Ellipse_85" data-name="Ellipse 85" cx="4.431" cy="4.431" rx="4.431" ry="4.431" transform="translate(1034.448 3674)" fill="#62f0a3"/>
        <path id="Path_610" data-name="Path 610" stroke="#2f8786" d="M3028.879,5326.575v6.431h67.6" fill="none" transform="translate(-2149 -1596)" stroke-linecap="round" stroke-linejoin="round" stroke-width="3" stroke-dasharray="7"/>
        <path id="Path_611" data-name="Path 611" stroke="#2f8786" d="M3028.879,5327.682v37.309h275v-79.182" fill="none" transform="translate(-2207 -1602)" stroke-linecap="round" stroke-linejoin="round" stroke-width="3" stroke-dasharray="7"/>
      </g>
    </g>
  </g>
</svg>
