<svg xmlns="http://www.w3.org/2000/svg" xmlns:xlink="http://www.w3.org/1999/xlink" width="250.88" height="201.005" viewBox="0 0 250.88 201.005">
  <defs>
    <linearGradient id="linear-gradient" x1="0.5" x2="-0.094" y2="0.785" gradientUnits="objectBoundingBox">
      <stop offset="0" stop-color="#fa7268"/>
      <stop offset="1" stop-color="#fa7268"/>
    </linearGradient>
    <linearGradient id="linear-gradient-2" y1="1" x2="1" gradientUnits="objectBoundingBox">
      <stop offset="0" stop-color="#e05d53"/>
      <stop offset="0.176" stop-color="#fa7268"/>
      <stop offset="0.645" stop-color="#e69e98"/>
      <stop offset="1" stop-color="#f4c2be"/>
    </linearGradient>
  </defs>
  <g id="Group_1600" data-name="Group 1600" transform="translate(-302.5 -2897.424)">
    <g id="Group_1527" data-name="Group 1527" transform="translate(-229 1205.439)">
      <g id="Group_1511" data-name="Group 1511" transform="translate(465.645 1335.376)">
        <path id="Path_447" data-name="Path 447" stroke-linecap="round" d="M206.212,547.413a81.485,81.485,0,0,1,5.27-160.232" fill="none" stroke="#63f0a3" transform="translate(-31.811 -12.785)" stroke-linejoin="round" stroke-width="3" stroke-dasharray="7" opacity="0.4"/>
        <path id="Path_448" data-name="Path 448" stroke-linecap="round" d="M309.573,390.511a81.49,81.49,0,0,1-6.609,158.848" fill="none" stroke="#63f0a3" transform="translate(-96.726 -14.204)" stroke-linejoin="round" stroke-width="3" stroke-dasharray="7" opacity="0.4"/>
        <g id="Group_1358" data-name="Group 1358" transform="translate(67.355 357.185)">
          <path id="Path_450" data-name="Path 450" d="M244.008,507.215v58.917l-51.062-29.459V479.721Z" transform="translate(-120.883 -409.411)" fill="none" stroke="#e0e0e0" stroke-linecap="round" stroke-linejoin="round" stroke-width="2"/>
          <path id="Path_451" data-name="Path 451" d="M295.305,457.9l-51.062-29.381-51.3,29.381,51.062,27.495Z" transform="translate(-120.883 -387.355)" fill="none" stroke="#e0e0e0" stroke-linecap="round" stroke-linejoin="round" stroke-width="2"/>
          <path id="Path_452" data-name="Path 452" d="M229.8,554.07l19.344-10.836V491.915" transform="translate(-136.589 -414.608)" fill="none" stroke="#e0e0e0" stroke-miterlimit="10" stroke-width="2"/>
          <circle id="Ellipse_57" data-name="Ellipse 57" cx="5.286" cy="5.286" r="5.286" transform="translate(107.048 67.051)" fill="#fa7268"/>
          <path id="Path_453" data-name="Path 453" d="M319.4,459.967l-18.833,9.39v52.048" transform="translate(-166.753 -401.704)" fill="none" stroke="#e0e0e0" stroke-miterlimit="10" stroke-width="2"/>
          <path id="Path_596" data-name="Path 596" d="M4.7,0A4.7,4.7,0,1,1,0,4.7,4.7,4.7,0,0,1,4.7,0Z" transform="translate(129.113 119.701)" fill="#fa7268"/>
          <g id="Group_1355" data-name="Group 1355" transform="translate(-1)">
            <path id="Path_454" data-name="Path 454" d="M102.973,388.54v23.474l20.344-11.737V377.586Z" transform="translate(-82.536 -365.88)" fill="none" stroke="#e0e0e0" stroke-miterlimit="10" stroke-width="1" stroke-dasharray="3"/>
            <path id="Path_455" data-name="Path 455" d="M87.7,388.54v23.474L67.355,400.277V377.586Z" transform="translate(-67.355 -365.88)" fill="none" stroke="#e0e0e0" stroke-miterlimit="10" stroke-width="1" stroke-dasharray="3"/>
            <path id="Path_456" data-name="Path 456" d="M67.355,368.89l20.438-11.706,20.344,11.706" transform="translate(-67.355 -357.185)" fill="none" stroke="#e0e0e0" stroke-miterlimit="10" stroke-width="1" stroke-dasharray="3"/>
          </g>
          <path id="Path_595" data-name="Path 595" d="M123.243,156.722,175,124.638V70.984" fill="none" stroke="#e0e0e0" stroke-width="2"/>
          <g id="Group_1524" data-name="Group 1524" transform="translate(143.809 129.706)" opacity="0.999">
            <g id="Group_1356" data-name="Group 1356" transform="translate(54.918 33.125) rotate(180)">
              <circle id="Ellipse_65" data-name="Ellipse 65" cx="3.5" cy="3.5" r="3.5" fill="#fa7268"/>
              <circle id="Ellipse_66" data-name="Ellipse 66" cx="3.5" cy="3.5" r="3.5" transform="translate(11.756 6.656)" fill="#fa7268"/>
              <circle id="Ellipse_67" data-name="Ellipse 67" cx="3.5" cy="3.5" r="3.5" transform="translate(24.821 13.572)" fill="#fa7268"/>
              <circle id="Ellipse_68" data-name="Ellipse 68" cx="3.5" cy="3.5" r="3.5" transform="translate(36.577 20.228)" fill="#fa7268"/>
              <circle id="Ellipse_69" data-name="Ellipse 69" cx="3.5" cy="3.5" r="3.5" transform="translate(48.918 27.125)" fill="#fa7268"/>
            </g>
          </g>
          <g id="Group_1525" data-name="Group 1525" transform="translate(45.809 35.706)" opacity="0.999">
            <g id="Group_1356-2" data-name="Group 1356" transform="translate(54.918 33.125) rotate(180)">
              <circle id="Ellipse_65-2" data-name="Ellipse 65" cx="3.5" cy="3.5" r="3.5" fill="#fa7268"/>
              <circle id="Ellipse_66-2" data-name="Ellipse 66" cx="3.5" cy="3.5" r="3.5" transform="translate(11.756 6.656)" fill="#fa7268"/>
              <circle id="Ellipse_67-2" data-name="Ellipse 67" cx="3.5" cy="3.5" r="3.5" transform="translate(24.821 13.572)" fill="#fa7268"/>
              <circle id="Ellipse_68-2" data-name="Ellipse 68" cx="3.5" cy="3.5" r="3.5" transform="translate(36.577 20.228)" fill="#fa7268"/>
              <circle id="Ellipse_69-2" data-name="Ellipse 69" cx="3.5" cy="3.5" r="3.5" transform="translate(48.918 27.125)" fill="#fa7268"/>
            </g>
          </g>
        </g>
        <path id="Path_457" data-name="Path 457" d="M462.358,649.112v24.959l21.631-12.479V637.465Z" transform="translate(-167.354 -116.458)" fill="#f4c2be"/>
        <path id="Path_458" data-name="Path 458" d="M446.291,649.112v24.959L424.66,661.592V637.465Z" transform="translate(-151.287 -116.458)" fill="url(#linear-gradient)"/>
        <path id="Path_459" data-name="Path 459" d="M468.022,628.22,446.39,615.773,424.66,628.22l21.631,11.647Z" transform="translate(-151.287 -107.213)" opacity="0.7" fill="url(#linear-gradient-2)"/>
        <path id="Path_460" data-name="Path 460" d="M285.807,379.545l-14.252-8.229v16.457Z" transform="translate(-87.032 -6.023)" fill="#63f1a4" opacity="0.998"/>
        <path id="Path_461" data-name="Path 461" d="M271.555,663.508l14.252,8.228V655.279Z" transform="translate(-87.032 -127.051)" fill="#63f1a4" opacity="0.998"/>
      </g>
    </g>
  </g>
</svg>
