<svg xmlns="http://www.w3.org/2000/svg" width="341.901" height="263.418" viewBox="0 0 341.901 263.418">
  <g id="Group_1601" data-name="Group 1601" transform="translate(-1323.411 -2867)">
    <g id="Group_1542" data-name="Group 1542" transform="translate(82.591 49.44)">
      <g id="Group_1546" data-name="Group 1546" transform="translate(1351.608 2881.737)">
        <g id="Group_1531" data-name="Group 1531" transform="translate(29.48 33.37)">
          <g id="Group_1511" data-name="Group 1511" transform="translate(0 0)">
            <g id="Group_1358" data-name="Group 1358" transform="translate(0 0)">
              <path id="Path_450" data-name="Path 450" d="M223.555,496.2V531.52l-30.608-17.659v-34.14Z" transform="translate(-192.947 -462.248)" fill="none" stroke="#e0e0e0" stroke-linecap="round" stroke-linejoin="round" stroke-width="2"/>
              <path id="Path_451" data-name="Path 451" d="M254.3,446.128,223.7,428.516l-30.75,17.612,30.608,16.481Z" transform="translate(-192.947 -428.516)" fill="none" stroke="#e0e0e0" stroke-linecap="round" stroke-linejoin="round" stroke-width="2"/>
              <path id="Path_452" data-name="Path 452" d="M229.8,529.173l11.6-6.5V491.915" transform="translate(-217.121 -470.247)" fill="none" stroke="#e0e0e0" stroke-miterlimit="10" stroke-width="2"/>
              <ellipse id="Ellipse_57" data-name="Ellipse 57" cx="3.169" cy="3.169" rx="3.169" ry="3.169" transform="translate(20.971 15.519)" fill="#fa7268"/>
              <path id="Path_453" data-name="Path 453" d="M311.86,459.967,300.571,465.6v31.2" transform="translate(-263.553 -449.716)" fill="none" stroke="#e0e0e0" stroke-miterlimit="10" stroke-width="2"/>
              <path id="Path_596" data-name="Path 596" d="M2.82,0A2.82,2.82,0,1,1,0,2.82,2.82,2.82,0,0,1,2.82,0Z" transform="translate(34.198 47.08)" fill="#fa7268"/>
              <path id="Path_595" data-name="Path 595" d="M123.243,122.379l31.024-19.232V70.984" transform="translate(-92.564 -53.107)" fill="none" stroke="#e0e0e0" stroke-width="2"/>
            </g>
          </g>
        </g>
        <g id="Group_1542-2" data-name="Group 1542" transform="translate(57.055)">
          <line id="Line_143" data-name="Line 143" y1="16.784" transform="translate(3.297 11.057)" fill="none" stroke="#e0e0e0" stroke-width="2"/>
          <path id="Path_603" data-name="Path 603" d="M3635.063,4491.735v3.833l3.465,2.009,3.427-2.009v-3.833l-3.427-2Z" transform="translate(-3635.063 -4489.736)" fill="#e0e0e0"/>
          <line id="Line_144" data-name="Line 144" y1="16.784" transform="translate(3.596 124.684) rotate(180)" fill="none" stroke="#e0e0e0" stroke-width="2"/>
          <path id="Path_604" data-name="Path 604" d="M0,2V5.833L3.465,7.841,6.893,5.833V2L3.465,0Z" transform="translate(6.893 135.742) rotate(180)" fill="#e0e0e0"/>
        </g>
        <g id="Group_1543" data-name="Group 1543" transform="translate(117.555 30.951) rotate(60)">
          <line id="Line_143-2" data-name="Line 143" y1="16.784" transform="translate(3.297 11.057)" fill="none" stroke="#e0e0e0" stroke-width="2"/>
          <path id="Path_603-2" data-name="Path 603" d="M0,2V5.832L3.465,7.841,6.893,5.832V2L3.465,0Z" transform="translate(0 0)" fill="#e0e0e0"/>
          <line id="Line_144-2" data-name="Line 144" y1="16.784" transform="translate(3.596 124.684) rotate(180)" fill="none" stroke="#e0e0e0" stroke-width="2"/>
          <path id="Path_604-2" data-name="Path 604" d="M0,2V5.832L3.465,7.841,6.893,5.832V2L3.465,0Z" transform="translate(6.893 135.741) rotate(180)" fill="#e0e0e0"/>
        </g>
        <g id="Group_1544" data-name="Group 1544" transform="translate(121.002 98.821) rotate(120)">
          <line id="Line_143-3" data-name="Line 143" y1="16.784" transform="translate(3.297 11.057)" fill="none" stroke="#e0e0e0" stroke-width="2"/>
          <path id="Path_603-3" data-name="Path 603" d="M0,2V5.832L3.465,7.841,6.893,5.832V2L3.465,0Z" transform="translate(0 0)" fill="#63f0a3"/>
          <line id="Line_144-3" data-name="Line 144" y1="16.784" transform="translate(3.596 124.684) rotate(180)" fill="none" stroke="#e0e0e0" stroke-width="2"/>
          <path id="Path_604-3" data-name="Path 604" d="M0,2V5.832L3.465,7.841,6.893,5.832V2L3.465,0Z" transform="translate(6.893 135.741) rotate(180)" fill="#63f0a3"/>
        </g>
      </g>
      <g id="Group_1547" data-name="Group 1547" transform="translate(1240.82 2817.561)">
        <g id="Group_1531-2" data-name="Group 1531" transform="translate(29.48 33.37)">
          <g id="Group_1511-2" data-name="Group 1511" transform="translate(0 0)">
            <g id="Group_1358-2" data-name="Group 1358" transform="translate(0 0)">
              <path id="Path_450-2" data-name="Path 450" d="M223.555,496.2V531.52l-30.608-17.659v-34.14Z" transform="translate(-192.947 -462.248)" fill="none" stroke="#e0e0e0" stroke-linecap="round" stroke-linejoin="round" stroke-width="2"/>
              <path id="Path_451-2" data-name="Path 451" d="M254.3,446.128,223.7,428.516l-30.75,17.612,30.608,16.481Z" transform="translate(-192.947 -428.516)" fill="none" stroke="#e0e0e0" stroke-linecap="round" stroke-linejoin="round" stroke-width="2"/>
              <path id="Path_452-2" data-name="Path 452" d="M229.8,529.173l11.6-6.5V491.915" transform="translate(-217.121 -470.247)" fill="none" stroke="#e0e0e0" stroke-miterlimit="10" stroke-width="2"/>
              <ellipse id="Ellipse_57-2" data-name="Ellipse 57" cx="3.169" cy="3.169" rx="3.169" ry="3.169" transform="translate(20.971 15.519)" fill="#fa7268"/>
              <path id="Path_453-2" data-name="Path 453" d="M311.86,459.967,300.571,465.6v31.2" transform="translate(-263.553 -449.716)" fill="none" stroke="#e0e0e0" stroke-miterlimit="10" stroke-width="2"/>
              <path id="Path_596-2" data-name="Path 596" d="M2.82,0A2.82,2.82,0,1,1,0,2.82,2.82,2.82,0,0,1,2.82,0Z" transform="translate(34.198 47.08)" fill="#fa7268"/>
              <path id="Path_595-2" data-name="Path 595" d="M123.243,122.379l31.024-19.232V70.984" transform="translate(-92.564 -53.107)" fill="none" stroke="#e0e0e0" stroke-width="2"/>
            </g>
          </g>
        </g>
        <g id="Group_1542-3" data-name="Group 1542" transform="translate(57.055)">
          <line id="Line_143-4" data-name="Line 143" y1="16.784" transform="translate(3.297 11.057)" fill="none" stroke="#e0e0e0" stroke-width="2"/>
          <path id="Path_603-4" data-name="Path 603" d="M3635.063,4491.735v3.833l3.465,2.009,3.427-2.009v-3.833l-3.427-2Z" transform="translate(-3635.063 -4489.736)" fill="#e0e0e0"/>
          <line id="Line_144-4" data-name="Line 144" y1="16.784" transform="translate(3.596 124.684) rotate(180)" fill="none" stroke="#e0e0e0" stroke-width="2"/>
          <path id="Path_604-4" data-name="Path 604" d="M0,2V5.833L3.465,7.841,6.893,5.833V2L3.465,0Z" transform="translate(6.893 135.742) rotate(180)" fill="#e0e0e0"/>
        </g>
        <g id="Group_1543-2" data-name="Group 1543" transform="translate(117.555 30.951) rotate(60)">
          <line id="Line_143-5" data-name="Line 143" y1="16.784" transform="translate(3.297 11.057)" fill="none" stroke="#e0e0e0" stroke-width="2"/>
          <path id="Path_603-5" data-name="Path 603" d="M0,2V5.832L3.465,7.841,6.893,5.832V2L3.465,0Z" transform="translate(0 0)" fill="#e0e0e0"/>
          <line id="Line_144-5" data-name="Line 144" y1="16.784" transform="translate(3.596 124.684) rotate(180)" fill="none" stroke="#e0e0e0" stroke-width="2"/>
          <path id="Path_604-5" data-name="Path 604" d="M0,2V5.832L3.465,7.841,6.893,5.832V2L3.465,0Z" transform="translate(6.893 135.741) rotate(180)" fill="#e0e0e0"/>
        </g>
        <g id="Group_1544-2" data-name="Group 1544" transform="translate(121.002 98.821) rotate(120)">
          <line id="Line_143-6" data-name="Line 143" y1="16.784" transform="translate(3.297 11.057)" fill="none" stroke="#e0e0e0" stroke-width="2"/>
          <line id="Line_144-6" data-name="Line 144" y1="16.784" transform="translate(3.596 124.684) rotate(180)" fill="none" stroke="#e0e0e0" stroke-width="2"/>
          <path id="Path_604-6" data-name="Path 604" d="M0,2V5.832L3.465,7.841,6.893,5.832V2L3.465,0Z" transform="translate(6.893 135.741) rotate(180)" fill="#e0e0e0"/>
        </g>
      </g>
      <g id="Group_1548" data-name="Group 1548" transform="translate(1461.72 2945.237)">
        <g id="Group_1531-3" data-name="Group 1531" transform="translate(29.48 33.37)">
          <g id="Group_1511-3" data-name="Group 1511" transform="translate(0 0)">
            <g id="Group_1358-3" data-name="Group 1358" transform="translate(0 0)">
              <path id="Path_450-3" data-name="Path 450" d="M223.555,496.2V531.52l-30.608-17.659v-34.14Z" transform="translate(-192.947 -462.248)" fill="none" stroke="#e0e0e0" stroke-linecap="round" stroke-linejoin="round" stroke-width="2"/>
              <path id="Path_451-3" data-name="Path 451" d="M254.3,446.128,223.7,428.516l-30.75,17.612,30.608,16.481Z" transform="translate(-192.947 -428.516)" fill="none" stroke="#e0e0e0" stroke-linecap="round" stroke-linejoin="round" stroke-width="2"/>
              <path id="Path_452-3" data-name="Path 452" d="M229.8,529.173l11.6-6.5V491.915" transform="translate(-217.121 -470.247)" fill="none" stroke="#e0e0e0" stroke-miterlimit="10" stroke-width="2"/>
              <ellipse id="Ellipse_57-3" data-name="Ellipse 57" cx="3.169" cy="3.169" rx="3.169" ry="3.169" transform="translate(20.971 15.519)" fill="#fa7268"/>
              <path id="Path_453-3" data-name="Path 453" d="M311.86,459.967,300.571,465.6v31.2" transform="translate(-263.553 -449.716)" fill="none" stroke="#e0e0e0" stroke-miterlimit="10" stroke-width="2"/>
              <path id="Path_596-3" data-name="Path 596" d="M2.82,0A2.82,2.82,0,1,1,0,2.82,2.82,2.82,0,0,1,2.82,0Z" transform="translate(34.198 47.08)" fill="#fa7268"/>
              <path id="Path_595-3" data-name="Path 595" d="M123.243,122.379l31.024-19.232V70.984" transform="translate(-92.564 -53.107)" fill="none" stroke="#e0e0e0" stroke-width="2"/>
            </g>
          </g>
        </g>
        <g id="Group_1542-4" data-name="Group 1542" transform="translate(57.055)">
          <line id="Line_143-7" data-name="Line 143" y1="16.784" transform="translate(3.297 11.057)" fill="none" stroke="#e0e0e0" stroke-width="2"/>
          <path id="Path_603-6" data-name="Path 603" d="M3635.063,4491.735v3.833l3.465,2.009,3.427-2.009v-3.833l-3.427-2Z" transform="translate(-3635.063 -4489.736)" fill="#e0e0e0"/>
          <line id="Line_144-7" data-name="Line 144" y1="16.784" transform="translate(3.596 124.684) rotate(180)" fill="none" stroke="#e0e0e0" stroke-width="2"/>
          <path id="Path_604-7" data-name="Path 604" d="M0,2V5.833L3.465,7.841,6.893,5.833V2L3.465,0Z" transform="translate(6.893 135.742) rotate(180)" fill="#e0e0e0"/>
        </g>
        <g id="Group_1543-3" data-name="Group 1543" transform="translate(117.555 30.951) rotate(60)">
          <line id="Line_143-8" data-name="Line 143" y1="16.784" transform="translate(3.297 11.057)" fill="none" stroke="#e0e0e0" stroke-width="2"/>
          <path id="Path_603-7" data-name="Path 603" d="M0,2V5.832L3.465,7.841,6.893,5.832V2L3.465,0Z" transform="translate(0 0)" fill="#e0e0e0"/>
          <line id="Line_144-8" data-name="Line 144" y1="16.784" transform="translate(3.596 124.684) rotate(180)" fill="none" stroke="#e0e0e0" stroke-width="2"/>
          <path id="Path_604-8" data-name="Path 604" d="M0,2V5.832L3.465,7.841,6.893,5.832V2L3.465,0Z" transform="translate(6.893 135.741) rotate(180)" fill="#e0e0e0"/>
        </g>
        <g id="Group_1544-3" data-name="Group 1544" transform="translate(121.002 98.821) rotate(120)">
          <line id="Line_143-9" data-name="Line 143" y1="16.784" transform="translate(3.297 11.057)" fill="none" stroke="#e0e0e0" stroke-width="2"/>
          <path id="Path_603-8" data-name="Path 603" d="M0,2V5.832L3.465,7.841,6.893,5.832V2L3.465,0Z" transform="translate(0 0)" fill="#e0e0e0"/>
          <line id="Line_144-9" data-name="Line 144" y1="16.784" transform="translate(3.596 124.684) rotate(180)" fill="none" stroke="#e0e0e0" stroke-width="2"/>
        </g>
      </g>
    </g>
  </g>
</svg>
