<svg xmlns="http://www.w3.org/2000/svg" width="508" height="99"><g fill="none" fill-rule="evenodd"><path fill="#FFF" fill-rule="nonzero" d="M22 19h58v58H22z"/><path fill="#222" d="M49.92 0C22.316.044-.03 22.225 0 49.553.03 76.88 22.423 99.014 50.027 99 77.63 98.985 100 76.828 100 49.5 99.972 22.142 77.554-.016 49.92 0zM26.545 49.5c.003-5.828 4.078-10.878 9.819-12.168v3.83c-3.727 1.21-6.208 4.7-6.101 8.583.106 3.881 2.775 7.233 6.563 8.242 3.787 1.01 7.795-.564 9.855-3.869h4.166c-2.273 5.511-8.157 8.669-14.062 7.547-5.904-1.122-10.19-6.213-10.24-12.165zM49.92 72.592H39.165v-7.895a18.61 18.61 0 003.738-.375v4.54h6.977a8.893 8.893 0 007.93-4.302 8.707 8.707 0 000-8.952 8.893 8.893 0 00-7.93-4.302h-6.977v3.365a8.927 8.927 0 01-3.708.8V26.397H49.92c5.154.002 9.789 3.103 11.713 7.836h-.997c-1.029 0-2.056.085-3.07.256a8.889 8.889 0 00-7.676-4.372h-6.977v17.527h6.977a8.915 8.915 0 006.978-3.355 8.907 8.907 0 014.765-.76 12.528 12.528 0 01-5.094 5.92c4.812 2.919 7.075 8.651 5.537 14.027-1.539 5.375-6.502 9.08-12.146 9.066l-.01.05zm15.42-11.506V56.96c3.116-1.91 4.725-5.52 4.05-9.086-.676-3.566-3.496-6.354-7.099-7.017-3.603-.662-7.247.936-9.171 4.024h-4.177c2.118-5.303 7.594-8.512 13.308-7.802 5.714.71 10.218 5.16 10.946 10.817.728 5.656-2.504 11.082-7.856 13.189z"/><path fill="#222" fill-rule="nonzero" d="M144.025 41c2.638 0 6.106 1.126 6.106 4.777 0 1.958-1.23 3.485-3.528 4.16v.059c2.466.169 4.382 2.17 4.397 4.59 0 3.652-3.128 5.414-7.545 5.414H136V41h8.025zm-1 7.733c2.179 0 3.498-.979 3.498-2.388 0-1.664-1.32-2.448-3.787-2.448h-3.128v4.836h3.417zm.07 8.35c2.868 0 4.327-.91 4.327-2.79s-1.379-2.682-4.127-2.682h-3.647v5.472h3.447zM191.48 41v3.06h-9.84v4.665h9.33v3.051h-9.33v5.153H192V60h-14V41zm38.41.952l-2.622 2.602a4.353 4.353 0 00-3.538-1.506c-1.987 0-3.308.978-3.308 2.445 0 1.282 1.142 1.957 3.14 2.573 3.219.978 6.438 1.956 6.438 5.87 0 3.912-3.279 6.064-7.243 6.064-2.852 0-5.187-.802-6.757-2.573l2.713-2.475a4.805 4.805 0 003.974 1.957c1.987 0 3.537-1.076 3.537-2.602 0-1.526-.993-2.172-3.616-2.935-3.627-1.047-5.962-2.2-5.962-5.634s3.05-5.733 7.442-5.733a8.701 8.701 0 015.803 1.947zM270 41v3.06h-6.203V60h-3.594V44.06H254V41zm37.89.952l-2.622 2.602a4.323 4.323 0 00-3.538-1.506c-1.987 0-3.308.978-3.308 2.446 0 1.28 1.142 1.956 3.14 2.572 3.219.978 6.438 1.957 6.438 5.87 0 3.912-3.279 6.064-7.243 6.064-2.852 0-5.187-.802-6.757-2.573l2.713-2.474a4.815 4.815 0 003.974 1.956c1.938 0 3.537-1.076 3.537-2.602 0-1.526-.993-2.172-3.626-2.935-3.617-1.046-5.962-2.2-5.962-5.634 0-3.433 3.05-5.732 7.442-5.732a8.681 8.681 0 015.813 1.946zM346.48 41v3.06h-9.84v4.665h9.32v3.051h-9.32v5.153H347V60h-14V41zm44.032 2.031l-2.916 1.96c-1.125-1.2-2.743-1.886-4.44-1.881-1.939-.072-3.82.62-5.198 1.909-1.377 1.29-2.126 3.06-2.067 4.89 0 3.92 2.792 7.065 7.264 7.065 1.877-.037 3.627-.9 4.732-2.332l3.113 1.96c-1.898 2.252-4.82 3.512-7.866 3.39-6.485 0-11.134-4.007-11.134-9.916 0-5.908 4.41-10.072 11.134-10.072 2.814-.077 5.518 1.032 7.378 3.027zM422.025 41c3.816 0 7.3 1.29 7.3 5.447a4.959 4.959 0 01-4.609 5.143L430 59.98h-4.276l-4.599-8.038h-2.583V60H415V41h7.025zm-.567 8.048c2.025 0 4.158-.274 4.158-2.63 0-2.171-2.045-2.524-3.913-2.524h-3.17v5.154h2.925zM468.49 41v3.06h-9.85v4.665h9.33v3.051h-9.33v5.153H469V60h-14V41zM508 41v3.06h-6.203V60h-3.604V44.06H492V41z"/></g></svg>