<?xml version="1.0" encoding="iso-8859-1"?>
<!-- Generator: Adobe Illustrator 19.0.0, SVG Export Plug-In . SVG Version: 6.00 Build 0)  -->
<svg version="1.1" id="Layer_1" xmlns="http://www.w3.org/2000/svg" xmlns:xlink="http://www.w3.org/1999/xlink" x="0px" y="0px"
	 viewBox="0 0 360.33 360.33" style="enable-background:new 0 0 360.33 360.33;" xml:space="preserve">
<g>
	<g>
		<path d="M352.292,8.364c-5.244-5.331-12.251-8.301-19.729-8.363L332.328,0c-15.308,0-27.866,12.456-27.992,27.766
			c-0.061,7.478,2.792,14.533,8.037,19.864s12.251,8.301,19.729,8.363l0.235,0.001c15.308,0,27.866-12.456,27.992-27.766
			C360.39,20.75,357.536,13.695,352.292,8.364z M332.336,45.651l-0.149-0.001c-4.715-0.039-9.133-1.912-12.439-5.273
			c-3.307-3.362-5.107-7.81-5.068-12.525c0.079-9.654,7.996-17.508,17.648-17.508l0.149,0.001c4.715,0.039,9.133,1.912,12.439,5.273
			c3.307,3.362,5.107,7.81,5.068,12.525C349.905,37.797,341.988,45.651,332.336,45.651z"/>
	</g>
</g>
<g>
	<g>
		<path d="M28.228,152.169l-0.235-0.001c-15.309,0-27.866,12.456-27.992,27.767c-0.127,15.436,12.328,28.099,27.765,28.227H28
			c15.309,0,27.867-12.456,27.993-27.766C56.12,164.959,43.665,152.296,28.228,152.169z M28,197.818l-0.149-0.001
			c-9.734-0.08-17.588-8.064-17.508-17.798c0.08-9.654,7.997-17.508,17.649-17.508h0.149c9.734,0.08,17.588,8.065,17.508,17.799
			C45.57,189.964,37.653,197.818,28,197.818z"/>
	</g>
</g>
<g>
	<g>
		<path d="M133.585,46.812l-0.235-0.001c-15.309,0-27.867,12.456-27.992,27.766c-0.127,15.437,12.328,28.1,27.765,28.227
			l0.235,0.001c15.308,0,27.866-12.456,27.992-27.766C161.477,59.601,149.022,46.938,133.585,46.812z M133.357,92.462l-0.149-0.001
			c-9.734-0.08-17.588-8.065-17.508-17.798c0.08-9.654,7.997-17.508,17.649-17.508l0.149,0.001
			c9.734,0.08,17.588,8.065,17.508,17.798C150.927,84.608,143.01,92.462,133.357,92.462z"/>
	</g>
</g>
<g>
	<g>
		<path d="M209.669,122.896l-0.235-0.001c-15.309,0-27.866,12.456-27.992,27.766c-0.127,15.437,12.329,28.1,27.766,28.227
			l0.234,0.001c15.308,0,27.866-12.456,27.992-27.766C237.561,135.685,225.105,123.023,209.669,122.896z M209.441,168.546
			l-0.149-0.001c-9.734-0.08-17.588-8.065-17.508-17.798c0.079-9.654,7.996-17.508,17.648-17.508l0.149,0.001
			c9.734,0.08,17.587,8.065,17.507,17.798C227.01,160.692,219.093,168.546,209.441,168.546z"/>
	</g>
</g>
<g>
	<g>
		<rect x="206.728" y="84.203" transform="matrix(0.7062 -0.708 0.708 0.7062 16.2826 217.9874)" width="128.149" height="10.343"/>
	</g>
</g>
<g>
	<g>
		<rect x="166.241" y="81.876" transform="matrix(0.7071 -0.7071 0.7071 0.7071 -29.608 154.267)" width="10.343" height="61.994"/>
	</g>
</g>
<g>
	<g>
		
			<rect x="29.003" y="122.315" transform="matrix(0.7071 -0.7071 0.7071 0.7071 -66.517 94.3877)" width="103.349" height="10.343"/>
	</g>
</g>
<g>
	<g>
		<path d="M296.727,106.518V360.33h63.602V106.518H296.727z M307.071,349.986l-0.001-233.125h42.916v233.125H307.071z"/>
	</g>
</g>
<g>
	<g>
		<path d="M197.818,213.035V360.33h63.602V213.035H197.818z M251.078,349.986h-42.916V223.379h42.916V349.986z"/>
	</g>
</g>
<g>
	<g>
		<path d="M98.908,205.427V360.33h63.602V205.427H98.908z M152.168,349.986h-42.916V215.771h42.916V349.986z"/>
	</g>
</g>
<g>
	<g>
		<path d="M0,243.469V360.33h63.602l0.001-116.861H0z M53.259,349.986H10.343v-96.175h42.916
			C53.259,253.811,53.259,349.986,53.259,349.986z"/>
	</g>
</g>
<g>
</g>
<g>
</g>
<g>
</g>
<g>
</g>
<g>
</g>
<g>
</g>
<g>
</g>
<g>
</g>
<g>
</g>
<g>
</g>
<g>
</g>
<g>
</g>
<g>
</g>
<g>
</g>
<g>
</g>
</svg>
