<?xml version="1.0" encoding="utf-8"?>
<!-- Generator: Adobe Illustrator 24.2.1, SVG Export Plug-In . SVG Version: 6.00 Build 0)  -->
<svg version="1.1" id="Layer_1" xmlns="http://www.w3.org/2000/svg" xmlns:xlink="http://www.w3.org/1999/xlink" x="0px" y="0px"
	 viewBox="0 0 450 278" style="enable-background:new 0 0 450 278;" xml:space="preserve">
<style type="text/css">
	.st0{fill:none;stroke:#E0E0E0;stroke-width:2;stroke-miterlimit:10;}
	.st1{fill:#63F0A3;}
	.st2{fill:#E0E0E0;}
</style>
<polygon class="st0" points="154.7,125 154.7,84.5 119.7,64.3 84.6,84.5 84.6,125 119.7,145.2 "/>
<polygon class="st0" points="225,165.5 225,125 189.9,104.8 154.9,125 154.9,165.5 189.9,185.7 "/>
<polygon class="st0" points="295.1,125 295.1,84.5 260.1,64.3 225,84.5 225,125 260.1,145.2 "/>
<polygon class="st0" points="365.4,165.5 365.4,125 330.3,104.8 295.3,125 295.3,165.5 330.3,185.7 "/>
<line class="st0" x1="119.7" y1="64.3" x2="119.7" y2="15.2"/>
<line class="st0" x1="330.3" y1="234.8" x2="330.3" y2="185.7"/>
<line class="st0" x1="35.5" y1="124.9" x2="84.6" y2="124.9"/>
<line class="st0" x1="365.4" y1="124.9" x2="414.5" y2="124.9"/>
<circle class="st1" cx="154.9" cy="125" r="4.9"/>
<circle class="st1" cx="225" cy="125" r="4.9"/>
<circle class="st2" cx="154.9" cy="164.6" r="4.9"/>
<circle class="st2" cx="225" cy="164.6" r="4.9"/>
<circle class="st2" cx="295.3" cy="164.6" r="4.9"/>
<circle class="st2" cx="365.4" cy="164.6" r="4.9"/>
<circle class="st1" cx="295.3" cy="125" r="4.9"/>
<circle class="st2" cx="365.4" cy="125" r="4.9"/>
<circle class="st2" cx="84.7" cy="125" r="4.9"/>
<circle class="st2" cx="119.8" cy="64.3" r="4.9"/>
<path class="st2" d="M262.6,60.1c-2.3-1.4-5.3-0.6-6.7,1.8s-0.6,5.3,1.8,6.7c2.3,1.4,5.3,0.6,6.7-1.8
	C265.7,64.4,264.9,61.4,262.6,60.1z"/>
<circle class="st2" cx="119.8" cy="143.1" r="4.9"/>
<path class="st2" d="M262.6,138.9c-2.3-1.4-5.3-0.6-6.7,1.8s-0.6,5.3,1.8,6.7c2.3,1.4,5.3,0.6,6.7-1.8
	C265.7,143.2,264.9,140.2,262.6,138.9z"/>
<circle class="st2" cx="329.8" cy="184.3" r="4.9"/>
<path class="st2" d="M332.3,101.6c-2.3-1.4-5.3-0.6-6.7,1.7c-1.4,2.3-0.6,5.3,1.7,6.7c2.3,1.4,5.3,0.6,6.7-1.7c0,0,0,0,0,0
	C335.4,105.9,334.6,102.9,332.3,101.6z"/>
<circle class="st2" cx="189.9" cy="184.3" r="4.9"/>
<path class="st2" d="M192.4,101.6c-2.3-1.4-5.3-0.6-6.7,1.8c-1.4,2.3-0.6,5.3,1.8,6.7c2.3,1.4,5.3,0.6,6.7-1.8c0,0,0,0,0,0
	C195.5,105.9,194.7,102.9,192.4,101.6C192.4,101.6,192.4,101.6,192.4,101.6z"/>
<circle class="st2" cx="84.7" cy="85.4" r="4.9"/>
<circle class="st2" cx="154.8" cy="85.4" r="4.9"/>
<ellipse transform="matrix(0.7552 -0.6555 0.6555 0.7552 -0.5992 168.2686)" class="st2" cx="225" cy="84.9" rx="4.9" ry="4.9"/>
<circle class="st2" cx="295.1" cy="84.7" r="4.9"/>
</svg>
