<?xml version="1.0" encoding="utf-8"?>
<!-- Generator: Adobe Illustrator 24.1.2, SVG Export Plug-In . SVG Version: 6.00 Build 0)  -->
<svg version="1.1" id="Layer_1" xmlns="http://www.w3.org/2000/svg" xmlns:xlink="http://www.w3.org/1999/xlink" x="0px" y="0px"
	 viewBox="0 0 190 25.8" style="enable-background:new 0 0 190 25.8;" xml:space="preserve">
<style type="text/css">
	.st0{fill:#2B2C2D;}
</style>
<g>
	<path class="st0" d="M38.2,11.7c0.2,1.3,0.2,2.4,0,3.4c-0.1,1-0.4,1.8-0.7,2.4c-0.2,0.3-0.4,0.6-0.6,0.9c-0.2,0.3-0.4,0.5-0.7,0.7
		c-0.2,0.2-0.5,0.4-0.8,0.5s-0.5,0.3-0.8,0.4c-0.6,0.2-1.2,0.3-1.7,0.3c-0.6,0-1.1,0-1.6-0.1s-0.9-0.1-1.2-0.2
		c-0.3-0.1-0.5-0.1-0.5-0.1c1.3,1,2.5,1.7,3.7,2.1s2.2,0.5,3.2,0.4s1.8-0.5,2.6-1c0.7-0.5,1.3-1.3,1.8-2.2c0.3-0.5,0.5-1,0.6-1.6
		s0.2-1.2,0.3-1.8c0-0.6,0-1.3-0.1-2s-0.2-1.4-0.4-2c-0.4-1.5-1-2.9-1.7-4.1c-0.7-1.3-1.4-2.4-2-3.3c-0.7-0.9-1.3-1.7-1.8-2.3
		C35.3,1.6,35,1.2,35,1.2c0.9,2.2,1.7,4.1,2.2,5.8C37.7,8.9,38,10.4,38.2,11.7z"/>
	<path class="st0" d="M28.2,9.7c0.9-0.4,1.7-0.6,2.5-0.6c0.4,0,0.7,0,1.1,0.1c0.3,0,0.7,0.1,1,0.2c0.3,0.1,0.6,0.2,0.8,0.4
		c0.3,0.2,0.5,0.3,0.7,0.5c0.5,0.4,0.8,0.8,1.2,1.3c0.3,0.5,0.6,1,0.8,1.4s0.3,0.8,0.4,1.1c0.1,0.3,0.1,0.5,0.1,0.5
		c0.3-1.6,0.2-3.1,0-4.3s-0.7-2.2-1.2-3C35,6.5,34.3,6,33.4,5.6c-0.7-0.3-1.5-0.5-2.4-0.5c-0.1,0-0.2,0-0.4,0
		c-0.5,0-1.1,0.1-1.7,0.3c-0.6,0.2-1.1,0.4-1.7,0.6c-0.6,0.3-1.1,0.6-1.7,1c-0.5,0.4-1.1,0.9-1.6,1.4c-1.1,1.1-2,2.3-2.7,3.5
		c-0.8,1.2-1.4,2.4-1.9,3.4s-0.8,2-1.1,2.6c-0.2,0.7-0.4,1.1-0.4,1.2c1.4-1.9,2.7-3.5,4-4.8c1.2-1.3,2.4-2.3,3.5-3.1
		C26.3,10.7,27.3,10.1,28.2,9.7z"/>
	<path class="st0" d="M31.6,22.6c-1.2-0.5-2.2-1.1-3-1.7s-1.4-1.2-1.8-1.8c-0.2-0.3-0.4-0.6-0.5-0.9s-0.2-0.6-0.3-0.9
		c0-0.4,0-0.7,0-1c0-0.3,0-0.6,0.1-0.9c0.1-0.6,0.3-1.2,0.6-1.7c0.3-0.5,0.6-1,0.8-1.3c0.3-0.4,0.6-0.7,0.8-0.9
		c0.2-0.2,0.4-0.4,0.4-0.4c-1.6,0.6-2.8,1.3-3.7,2.1c-0.9,0.8-1.6,1.7-2,2.6c-0.4,0.9-0.5,1.8-0.4,2.7c0.1,0.9,0.4,1.8,1,2.6
		c0.3,0.5,0.7,0.9,1.1,1.3s0.9,0.8,1.4,1.1c0.5,0.3,1.1,0.7,1.7,0.9c0.6,0.3,1.3,0.5,2,0.7c1.5,0.4,3,0.5,4.4,0.6s2.8,0,3.9-0.1
		c1.2-0.1,2.1-0.3,2.8-0.4s1.1-0.2,1.2-0.3c-2.4-0.3-4.4-0.6-6.2-1C34.2,23.6,32.8,23.1,31.6,22.6z"/>
	<path class="st0" d="M3.5,20.6V10.3c0-0.4,0.3-0.7,0.7-0.7H19V6.1H4.2C1.9,6.1,0,8,0,10.3v10.3c0,2.3,1.9,4.2,4.2,4.2h14.9v-3.5
		H4.2C3.8,21.3,3.5,21,3.5,20.6z"/>
	<path class="st0" d="M59.6,6.1H48.2C45.9,6.1,44,8,44,10.3v10.3c0,2.3,1.9,4.2,4.2,4.2h14.9V0h-3.5V6.1z M59.6,20.6
		c0,0.4-0.3,0.7-0.7,0.7H48.2c-0.4,0-0.7-0.3-0.7-0.7V10.3c0-0.4,0.3-0.7,0.7-0.7h10.7c0.4,0,0.7,0.3,0.7,0.7
		C59.6,10.3,59.6,20.6,59.6,20.6z"/>
	<path class="st0" d="M81.4,20.6c0,0.4-0.3,0.7-0.7,0.7H70c-0.4,0-0.7-0.3-0.7-0.7V6.1h-3.5v14.5c0,2.3,1.9,4.2,4.2,4.2h10.7
		c2.3,0,4.2-1.9,4.2-4.2V6.1h-3.5C81.4,6.1,81.4,20.6,81.4,20.6z"/>
	<path class="st0" d="M88.3,10.3v14.5h3.5V10.3c0-0.4,0.3-0.7,0.7-0.7H103V6.1H92.5C90.2,6.1,88.3,8,88.3,10.3z"/>
	<path class="st0" d="M119.9,6.1H105v3.5h14.9c0.4,0,0.7,0.3,0.7,0.7v3.4H105v6.9c0,2.3,1.9,4.2,4.2,4.2h14.9V10.3
		C124.1,8,122.3,6.1,119.9,6.1z M120.7,21.3h-11.4c-0.4,0-0.7-0.3-0.7-0.7v-3.4h12.1V21.3z"/>
	<path class="st0" d="M141.8,6.1h-14.9v18.6h3.5V10.3c0-0.4,0.3-0.7,0.7-0.7h10.7c0.4,0,0.7,0.3,0.7,0.7v14.5h3.5V10.3
		C146,8,144.2,6.1,141.8,6.1z"/>
	<path class="st0" d="M152.4,20.6V10.3c0-0.4,0.3-0.7,0.7-0.7h14.8V6.1h-14.8c-2.3,0-4.2,1.9-4.2,4.2v10.3c0,2.3,1.9,4.2,4.2,4.2
		H168v-3.5h-14.9C152.7,21.3,152.4,21,152.4,20.6z"/>
	<path class="st0" d="M190,17.2v-6.9c0-2.3-1.9-4.2-4.2-4.2h-10.7c-2.3,0-4.2,1.9-4.2,4.2v10.3c0,2.3,1.9,4.2,4.2,4.2H190v-3.5
		h-14.9c-0.4,0-0.7-0.3-0.7-0.7v-3.4C174.4,17.2,190,17.2,190,17.2z M174.4,10.3c0-0.4,0.3-0.7,0.7-0.7h10.7c0.4,0,0.7,0.3,0.7,0.7
		v3.4h-12.1L174.4,10.3L174.4,10.3z"/>
</g>
</svg>
