<?xml version="1.0" encoding="utf-8"?>
<!-- Generator: Adobe Illustrator 24.1.2, SVG Export Plug-In . SVG Version: 6.00 Build 0)  -->
<svg version="1.1" id="Layer_1" xmlns="http://www.w3.org/2000/svg" xmlns:xlink="http://www.w3.org/1999/xlink" x="0px" y="0px"
	 viewBox="0 0 512 512" style="enable-background:new 0 0 512 512;" xml:space="preserve">
<style type="text/css">
	.st0{fill:#999999;}
</style>
<path class="st0" d="M453.3,42.7h-48V16c0-8.8-7.2-16-16-16s-16,7.2-16,16v26.7H138.7V16c0-8.8-7.2-16-16-16s-16,7.2-16,16v26.7h-48
	C26.3,42.7,0,69,0,101.3v352C0,485.7,26.3,512,58.7,512h394.7c32.4,0,58.7-26.3,58.7-58.7v-352C512,69,485.7,42.7,453.3,42.7z
	 M58.7,74.7h48V112c0,8.8,7.2,16,16,16s16-7.2,16-16V74.7h234.7V112c0,8.8,7.2,16,16,16s16-7.2,16-16V74.7h48
	c14.7,0,26.7,12,26.7,26.7v69.3H32v-69.3C32,86.6,44,74.7,58.7,74.7z M453.3,480H58.7C44,480,32,468,32,453.3V202.7h448v250.7
	C480,468,468,480,453.3,480z"/>
</svg>
